<?xml version="1.0" encoding="UTF-8"?>
<svg id="katman_1" data-name="katman 1" xmlns="http://www.w3.org/2000/svg" viewBox="0 0 506.39 506.69">
  <defs>
    <style>
      .cls-1 {
        fill: #ffce00;
      }
    </style>
  </defs>
  <g>
    <path class="cls-1" d="M254.36,87.53c-15.75,0-31.69-1.82-46.1-5.26-10.87-2.59-20.51-6.44-29.49-11.76-12.5-7.41-24.17-21.49-15.92-36.79,9.15-16.96,35-24.72,42.71-26.69,15.63-4,31.71-6.03,47.82-6.03,14.37,0,28.86,1.62,43.07,4.81,12.14,2.72,22.87,7.04,32.8,13.21,8.89,5.51,14.94,13.16,16.61,20.99,1.28,5.98.06,11.77-3.62,17.2-3.41,5.04-8.2,9.42-14.21,13.03-18.6,11.15-44.76,17.3-73.67,17.3ZM253.29,19.85c-13.5,0-27.14,1.51-40.55,4.49-5.58,1.24-24.4,6.06-32.46,16.12-1.19,1.49-1.56,3.07-1.13,4.83,1.2,4.86,8.15,9.83,14.51,12.61,9.43,4.12,19.08,6.93,29.5,8.59,10.14,1.61,20.5,2.43,30.77,2.43,22.35,0,42.82-3.89,59.21-11.26,6.23-2.8,13.01-7.76,14.12-12.54.4-1.73.01-3.28-1.19-4.73-8.18-9.83-25.47-14.65-35.05-16.64-12.45-2.59-25.14-3.9-37.73-3.9Z"/>
    <path d="M253.38,2c14.34,0,28.68,1.6,42.85,4.78,11.79,2.65,22.37,6.8,32.49,13.08,13.77,8.54,21.92,23.16,12.69,36.77-3.54,5.22-8.38,9.42-13.9,12.73-20.21,12.12-46.99,17.15-73.15,17.15-16.08,0-31.92-1.9-45.86-5.23-10.58-2.52-20.07-6.23-29.22-11.65-13.36-7.92-23.1-21.45-15.55-35.45,7.4-13.73,26.65-22.25,42.08-26.2,15.66-4.01,31.61-6,47.57-6M253.94,69.92c20.68,0,41.79-3.33,59.63-11.34,8.88-3.99,18.76-12.22,13.28-18.82-7.62-9.16-23.29-14.42-35.62-16.98-12.59-2.62-25.27-3.92-37.93-3.92-13.63,0-27.25,1.51-40.77,4.51-11.33,2.52-26.19,7.94-33.02,16.47-5.46,6.81,4.82,15.08,13.76,18.98,9.55,4.18,19.3,7,29.75,8.66,9.86,1.57,20.34,2.44,30.93,2.44M253.38,0v2V0c-16.19,0-32.37,2.04-48.07,6.06-10.01,2.56-34.26,10.34-43.34,27.18-8.59,15.92,3.41,30.49,16.29,38.12,9.07,5.37,18.8,9.26,29.77,11.87,14.48,3.46,30.51,5.28,46.33,5.28,29.08,0,55.43-6.19,74.18-17.44,6.14-3.68,11.03-8.17,14.53-13.33,3.78-5.58,5.09-11.79,3.77-17.96-1.72-8.09-7.94-15.97-17.06-21.63-10.03-6.22-20.86-10.58-33.11-13.33C282.39,1.63,267.82,0,253.38,0h0ZM253.94,67.92c-10.22,0-20.52-.81-30.61-2.42-10.34-1.64-19.91-4.43-29.26-8.51-5.94-2.59-12.83-7.44-13.94-11.94-.36-1.46-.06-2.72.94-3.96,7.86-9.81,26.4-14.55,31.9-15.77,13.33-2.96,26.9-4.46,40.33-4.46,12.52,0,25.14,1.31,37.52,3.88,7.61,1.58,26.21,6.34,34.49,16.3,1.01,1.21,1.32,2.44.99,3.86-.88,3.79-6.45,8.66-13.55,11.85-16.26,7.31-36.6,11.17-58.81,11.17h0Z"/>
  </g>
  <g>
    <path class="cls-1" d="M253.3,436.32c-1.51,0-3.82-1.83-3.98-3.55l-1.14-12.39-3.11-116.94c-.7-59.95.61-122.21,3.99-190.35.1-1.94,2.08-4.26,3.54-4.65.17-.04.34-.07.52-.07,1.76,0,4.15,2.23,4.26,4.59,3.26,68.92,4.53,131.73,3.89,191.99l-2.33,95.76-1.75,31.79c-.08,1.54-2.33,3.63-3.68,3.79-.07,0-.15.01-.22.01Z"/>
    <path d="M253.12,109.38c1.22,0,3.17,1.81,3.26,3.64,3.03,63.99,4.57,127.61,3.89,191.93l-2.33,95.74-1.74,31.76c-.06,1.03-1.94,2.75-2.8,2.85-.04,0-.07,0-.11,0-1.03,0-2.88-1.51-2.98-2.64l-1.14-12.39-3.1-116.87c-.74-63.78.84-126.86,3.99-190.27.08-1.54,1.77-3.46,2.8-3.73.08-.02.17-.03.27-.03M253.12,107.38c-.27,0-.53.03-.78.1-1.83.48-4.16,3.14-4.29,5.56-3.39,68.16-4.69,130.44-3.99,190.39l3.1,116.9v.07s0,.07,0,.07l1.14,12.39c.21,2.25,3.02,4.45,4.98,4.45.12,0,.23,0,.34-.02,1.79-.21,4.45-2.69,4.56-4.73l1.74-31.76v-.03s0-.03,0-.03l2.33-95.74c.64-60.31-.63-123.13-3.89-192.08-.13-2.75-2.78-5.55-5.26-5.55h0Z"/>
  </g>
  <g>
    <path class="cls-1" d="M379.9,409.82c-1.43,0-3.89-1.05-4.58-2.94l-23.61-64.56c-19.26-52.64-34.74-104.96-46.07-144.66l-23.11-86.88c-.39-1.46.25-3.13.91-4.12.42-.63,1.11-1.41,2.03-1.54.11-.02.23-.02.35-.02,1.62,0,3.96,1.47,4.67,3.43,32.46,90.27,62.38,184.33,88.92,279.57l4.04,17.15c.36,1.52-1.34,3.84-2.56,4.38-.28.12-.61.19-.97.19Z"/>
    <path d="M285.81,106.11c1.18,0,3.16,1.19,3.73,2.77,33.12,92.12,62.59,185.11,88.9,279.5l4.03,17.11c.23.96-1.16,2.87-1.99,3.24-.15.07-.35.1-.57.1-1.19,0-3.14-.92-3.64-2.28l-23.62-64.56c-17.44-47.68-32.09-95.72-46.05-144.59l-23.11-86.86c-.44-1.67.97-4.26,2.11-4.41.07,0,.14-.01.21-.01M285.81,104.11c-.16,0-.33.01-.48.03-1.02.14-1.96.82-2.73,1.97-.81,1.22-1.51,3.16-1.04,4.94l23.11,86.86c11.35,39.75,26.84,92.1,46.1,144.76l23.62,64.56c.86,2.34,3.76,3.59,5.52,3.59.51,0,.97-.09,1.38-.27,1.58-.7,3.62-3.46,3.13-5.53l-4.03-17.11v-.04s-.02-.04-.02-.04c-26.56-95.27-56.48-189.36-88.95-279.64-.87-2.41-3.65-4.09-5.61-4.09h0Z"/>
  </g>
  <g>
    <path class="cls-1" d="M126.53,409.83c-.15,0-.29-.01-.42-.03-1.12-.17-2-1.33-2.32-1.83-.81-1.24-1.13-2.6-.85-3.62l13.77-50.33c22.96-79.74,44.11-146.3,66.56-209.48l13.01-36.61c.52-1.46,3.05-2.75,4.31-2.75.95.02,1.72.78,2.21,1.41.23.3,1.39,1.87,1.09,3.16l-4.96,21.56c-23.53,91.46-53.07,184.14-87.81,275.48-.8,2.09-3.17,3.04-4.6,3.04Z"/>
    <path d="M220.59,106.19s.02,0,.03,0c.96.02,2.53,2.34,2.3,3.34l-4.96,21.56c-24.06,93.53-53.4,184.98-87.77,275.34-.64,1.67-2.59,2.39-3.66,2.39-.1,0-.19,0-.27-.02-1.13-.17-2.76-2.68-2.35-4.2l13.77-50.33c20.32-70.58,41.95-140.23,66.54-209.41l13.01-36.61c.34-.96,2.39-2.08,3.37-2.08M220.59,104.19h0c-1.59,0-4.56,1.47-5.25,3.41l-13.01,36.61c-22.46,63.2-43.61,129.78-66.57,209.53l-13.78,50.35c-.51,1.87.51,3.72.97,4.43.49.76,1.54,2.05,3.01,2.27.18.03.37.04.57.04,2,0,4.62-1.29,5.53-3.68,34.75-91.37,64.3-184.08,87.83-275.56v-.03s.01-.03.01-.03l4.96-21.56c.39-1.68-.88-3.48-1.28-4-.62-.8-1.64-1.76-2.92-1.79h-.02s-.05,0-.05,0h0Z"/>
  </g>
  <g>
    <path class="cls-1" d="M454.53,333.14c-1.58,0-3.03-.76-3.88-2.03l-37.42-56.22c-32.45-48.75-73.44-123.89-97.17-172.92-.61-1.27-.67-2.99-.13-4.38.36-.95.97-1.64,1.71-1.94.37-.15.8-.23,1.29-.23,1.58,0,3.67.8,4.63,2.34l45.75,73.45c27.7,44.47,55.02,92.16,88.59,154.62,1.26,2.35.62,5-.63,6.29-.61.64-1.64,1.02-2.74,1.02Z"/>
    <path d="M318.93,96.42c1.28,0,3.04.68,3.78,1.87l45.75,73.45c31.51,50.59,60.42,102.21,88.56,154.56,1.01,1.87.54,4.08-.47,5.13-.43.44-1.19.71-2.02.71-1.09,0-2.3-.46-3.04-1.58l-37.42-56.22c-31.59-47.46-72.06-121.05-97.1-172.8-.84-1.73-.3-4.41,1.05-4.96.25-.1.56-.15.91-.15M318.93,94.42h0c-.62,0-1.18.1-1.66.3-1,.41-1.8,1.3-2.27,2.51-.64,1.66-.57,3.65.17,5.18,23.74,49.06,64.76,124.25,97.23,173.04l37.42,56.22c1.03,1.55,2.79,2.47,4.71,2.47,1.39,0,2.65-.48,3.46-1.33,1.49-1.55,2.27-4.69.79-7.46-33.58-62.48-60.91-110.19-88.62-154.67l-45.75-73.45c-1.2-1.93-3.68-2.81-5.48-2.81h0Z"/>
  </g>
  <g>
    <path class="cls-1" d="M51.4,333.25c-.15,0-.29,0-.41-.03-1.18-.16-2.14-1.28-2.65-2.28-.71-1.38-.77-2.8-.19-3.89l18.06-33.61c22.42-41.73,46.3-82.79,72.99-125.51l44.02-70.47c.81-1.3,2.94-2,4.52-2,.56,0,1.03.09,1.4.27.68.33,1.25,1.05,1.59,2.05.46,1.31.41,2.75-.12,3.84-32.13,65.75-68.86,130.16-109.17,191.45l-25.62,38.06c-.86,1.28-2.98,2.15-4.42,2.15Z"/>
    <path d="M187.74,96.45c.39,0,.73.05.97.17,1.03.49,1.81,2.89,1,4.54-32.33,66.15-68.6,129.75-109.1,191.34l-25.62,38.05c-.68,1.02-2.49,1.7-3.59,1.7-.1,0-.19,0-.28-.02-1.34-.18-3.04-2.95-2.09-4.71l18.06-33.61c22.96-42.73,47.21-84.25,72.96-125.46l44.02-70.47c.59-.95,2.4-1.53,3.67-1.53M187.74,94.45h0c-1.54,0-4.24.66-5.37,2.47l-44.02,70.47c-26.7,42.75-50.59,83.82-73.02,125.57l-18.06,33.61c-.74,1.39-.68,3.14.18,4.82.81,1.59,2.09,2.64,3.41,2.82.17.02.36.03.54.03,1.73,0,4.16-.97,5.25-2.59l25.62-38.05c40.34-61.34,77.09-125.79,109.24-191.58.65-1.32.71-3.05.17-4.6-.43-1.25-1.18-2.18-2.11-2.62-.51-.24-1.12-.36-1.83-.36h0Z"/>
  </g>
  <g>
    <path class="cls-1" d="M252.98,505.69c-2,0-2.78-2.43-3.77-5.51-.93-2.92-2.1-6.54-4.43-8.44-1.83-1.48-4.57-2.42-7-3.24-3.27-1.11-6.1-2.07-5.51-4.35.54-2.09,2.95-2.82,5.73-3.66,2.68-.81,5.71-1.72,7.64-3.95,1.89-2.16,2.72-4.88,3.46-7.27.79-2.57,1.48-4.79,3.28-5.79.3-.17.62-.25.93-.25,1.74,0,2.52,2.3,3.6,5.48.9,2.65,2.01,5.95,3.75,7.85,1.96,2.14,5.02,3.11,7.71,3.98,2.77.88,5.16,1.65,5.66,3.6.58,2.32-2.2,3.25-5.42,4.34-2.41.81-5.15,1.73-7.17,3.28-2.26,1.72-3.29,5.01-4.2,7.91-.88,2.79-1.63,5.2-3.44,5.87-.28.1-.56.16-.83.16Z"/>
    <path d="M253.32,464.23c2.11,0,2.94,9,6.61,13.01,4.11,4.49,12.4,4.2,13.14,7.15.66,2.62-7.52,2.98-12.23,6.58-4.65,3.55-4.45,12.55-7.37,13.64-.17.06-.33.09-.48.09-2.73,0-2.76-9.83-7.57-13.73-4.27-3.47-12.83-4.01-12.17-6.56.83-3.22,9.07-2.5,13.16-7.2,3.99-4.58,3.53-11.21,6.47-12.85.15-.09.3-.13.44-.13M253.32,462.23h0c-.49,0-.96.13-1.42.38-2.15,1.2-2.93,3.71-3.75,6.37-.71,2.3-1.51,4.91-3.26,6.91-1.74,2-4.63,2.87-7.18,3.64-2.95.89-5.73,1.73-6.41,4.37-.82,3.18,2.73,4.38,6.16,5.55,2.34.8,5,1.7,6.69,3.07,2.1,1.71,3.22,5.18,4.11,7.97,1.07,3.33,1.99,6.21,4.72,6.21.39,0,.79-.07,1.18-.22,2.26-.84,3.09-3.47,4.04-6.51.87-2.76,1.85-5.88,3.85-7.41,1.89-1.44,4.54-2.34,6.88-3.12,3.38-1.14,6.88-2.31,6.07-5.53-.63-2.49-3.39-3.38-6.32-4.31-2.58-.82-5.51-1.76-7.28-3.7-1.6-1.74-2.67-4.93-3.54-7.5-1.16-3.44-2.08-6.16-4.54-6.16h0Z"/>
  </g>
  <g>
    <path class="cls-1" d="M424.65,388.38c-2.42,0-3.16-2.51-3.94-5.18-.7-2.37-1.49-5.06-3.44-6.78-1.67-1.47-3.79-2.2-5.67-2.85-2.23-.77-4.34-1.49-5.3-3.32-.24-.45-.27-.95-.09-1.41.48-1.22,2.32-1.88,4.87-2.8,2.22-.8,4.74-1.7,6.1-2.95,1.9-1.73,2.77-4.44,3.54-6.84.85-2.65,1.66-5.16,3.9-5.26h.1c1.97,0,2.72,2.27,3.58,4.89.84,2.55,1.89,5.73,4.15,7.42,1.65,1.23,3.84,2.04,5.78,2.74,2.72,1,5.29,1.94,4.55,4.05-.67,1.91-2.83,2.61-5.11,3.36-2.08.68-4.44,1.45-6.16,3.17-1.77,1.77-2.59,4.45-3.32,6.82-.81,2.63-1.5,4.89-3.49,4.93h-.05Z"/>
    <path d="M424.73,352c2.68,0,2.44,8.61,7.14,12.12,3.99,2.98,10.72,3.54,9.98,5.66-1.01,2.88-7.26,2.37-11.04,6.15-3.84,3.85-3.57,11.41-6.12,11.46-.01,0-.02,0-.04,0-3.33,0-2.35-7.85-6.72-11.71-3.77-3.32-9.25-3.03-10.75-5.89-1.06-2.02,7.41-2.98,10.67-5.95,4.21-3.84,3.74-11.7,6.81-11.83.02,0,.04,0,.06,0M424.73,350s-.1,0-.15,0c-2.93.13-3.89,3.09-4.81,5.95-.73,2.27-1.56,4.85-3.26,6.4-1.22,1.11-3.74,2.02-5.76,2.74-2.8,1.01-4.83,1.73-5.47,3.38-.28.73-.24,1.53.14,2.24,1.15,2.18,3.54,3.01,5.86,3.8,1.87.64,3.81,1.31,5.33,2.65,1.74,1.53,2.48,4.07,3.14,6.31.81,2.76,1.73,5.89,4.9,5.89h.07c2.71-.05,3.59-2.89,4.43-5.63.69-2.26,1.48-4.82,3.07-6.41,1.55-1.55,3.69-2.25,5.76-2.92,2.42-.79,4.92-1.6,5.75-3.98,1.06-3.04-2.38-4.3-5.15-5.32-1.87-.68-3.99-1.46-5.52-2.61-2-1.5-3-4.51-3.8-6.93-.91-2.74-1.84-5.58-4.53-5.58h0Z"/>
  </g>
  <g>
    <path class="cls-1" d="M141.48,484.7c-.79,0-1.55-.13-2.26-.38-3.53-1.26-5.09-4.63-4.4-9.48l.03-.18,12.19-22.13,3.3-1.43c.28-.12.57-.19.84-.19.58,0,1.1.28,1.46.78,2.48,3.44-1.95,21.3-4.13,27.82-1.05,3.15-3.81,5.18-7.03,5.18Z"/>
    <path d="M151.18,451.92c3.11,0-.46,17.84-3.62,27.28-1.01,3.01-3.62,4.5-6.08,4.5-.66,0-1.32-.11-1.92-.32-3.41-1.22-4.3-4.52-3.75-8.39l11.94-21.67,2.99-1.29c.16-.07.31-.1.44-.1M151.18,449.92h0c-.41,0-.83.09-1.24.27l-2.99,1.29-.63.27-.33.6-11.94,21.67-.18.32-.05.36c-1.03,7.25,2.72,9.73,5.05,10.56.82.29,1.69.44,2.59.44,3.65,0,6.78-2.3,7.97-5.86,1.22-3.64,7.12-24.38,3.99-28.72-.55-.76-1.38-1.2-2.27-1.2h0Z"/>
  </g>
  <g>
    <path class="cls-1" d="M365.01,484.78c-2.58,0-5.69-1.39-6.83-4.5-1.65-4.48-8.02-27.14-3.54-29.08.3-.13.62-.2.96-.2,6.03,0,15.63,23.63,15.72,23.87.74,1.9.67,3.98-.2,5.85-.82,1.76-2.26,3.14-3.87,3.69-.7.24-1.46.36-2.25.36Z"/>
    <path d="M355.6,452c4.04,0,11.83,15.65,14.79,23.23,1.43,3.66-.84,7.34-3.46,8.24-.6.2-1.25.31-1.93.31-2.36,0-4.94-1.26-5.89-3.85-3.05-8.31-6.93-26.59-4.08-27.82.18-.08.37-.11.56-.11M355.6,450h0c-.47,0-.93.09-1.36.28-1.77.77-3.16,2.93-1.35,13.43.99,5.73,2.74,12.53,4.35,16.91,1.31,3.56,4.85,5.16,7.77,5.16.91,0,1.77-.14,2.58-.42,1.86-.64,3.52-2.21,4.45-4.22.98-2.12,1.06-4.48.22-6.64-1.36-3.48-4.04-9.42-7.12-14.74-5.03-8.66-7.74-9.77-9.53-9.77h0Z"/>
  </g>
  <g>
    <path class="cls-1" d="M101.23,460.54c-1.76-.07-2.39-1.88-3.11-3.97-1.16-3.35-2.61-7.53-8.49-8.27-.91-.11-2.59-1.18-3.14-2.16-.36-.63-.22-1.14-.11-1.39.65-1.44,2.3-2.12,4.21-2.9,3.12-1.28,6.66-2.74,7.33-7.74.22-1.65,2.28-4.05,3.79-4.43l.82-.21,4.16,9.59,8.77,4.38.04.03c.55.35.79.98.64,1.68-.29,1.36-2.22,3.26-3.5,3.45-5.96.89-7.23,4.9-8.25,8.11-.63,1.97-1.22,3.83-3.05,3.83h-.09Z"/>
    <path d="M101.94,430.65l3.97,9.15,9.04,4.52c.95.61-1.36,3.14-2.47,3.3-10.27,1.53-8.08,11.94-11.16,11.94-.02,0-.04,0-.05,0-3.02-.12-1.41-10.96-11.52-12.23-.76-.1-2.77-1.47-2.47-2.15,1.37-3.04,10.45-2.27,11.62-10.92.17-1.27,1.95-3.32,3.04-3.6M103.1,428.29l-1.65.41c-1.92.48-4.26,3.19-4.54,5.27-.6,4.43-3.71,5.71-6.72,6.95-2.02.83-3.92,1.61-4.74,3.42-.19.42-.42,1.27.15,2.29.73,1.3,2.72,2.52,3.89,2.67,5.27.67,6.54,4.35,7.67,7.6.74,2.13,1.58,4.55,4.02,4.65.05,0,.09,0,.13,0,2.57,0,3.37-2.51,4.01-4.53.99-3.11,2.1-6.63,7.45-7.43,1.69-.25,3.96-2.47,4.33-4.23.24-1.11-.18-2.16-1.08-2.73l-.09-.06-.09-.05-8.39-4.19-3.68-8.48-.68-1.56h0Z"/>
  </g>
  <g>
    <path class="cls-1" d="M405.31,460.61c-.3,0-.6-.1-.88-.29-1.74-1.18-2.45-3.22-3.12-5.19-.7-2.03-1.36-3.95-3.06-4.76l-9.54-4.55,1.04-1c1.81-1.74,3.79-2.61,5.54-3.37,3.14-1.38,5.63-2.46,6.66-8.05.15-.83,1.46-3.32,3-3.32h.07l.14.02c1.62.24,2.22,1.88,2.92,3.78,1.1,2.99,2.6,7.07,8.58,8.23,1.09.21,2.92,1.58,3.43,2.58.13.25.29.77-.06,1.44-.52.98-2.25,2.21-3.3,2.33-6.08.74-7.88,5.73-9.07,9.03-.65,1.8-1.12,3.11-2.35,3.11Z"/>
    <path d="M404.94,431.1s.04,0,.07,0c2.93.43,1.38,10.05,11.46,12.01.83.16,2.38,1.36,2.73,2.05.36.69-1.74,2.22-2.6,2.32-9.6,1.17-9.55,12.13-11.29,12.13-.1,0-.21-.04-.32-.11-3.16-2.13-2.44-8.18-6.31-10.02l-8.24-3.92c4.81-4.62,10.75-2.55,12.49-11.95.14-.75,1.26-2.5,2.01-2.5M404.94,429.1h0c-2.23,0-3.77,3-3.98,4.14-.94,5.06-2.98,5.96-6.08,7.31-1.82.8-3.88,1.7-5.83,3.56l-2.09,2,2.61,1.24,8.24,3.92c1.32.63,1.88,2.27,2.54,4.18.7,2.03,1.49,4.33,3.51,5.69.44.3.94.46,1.44.46,1.93,0,2.59-1.83,3.29-3.77,1.46-4.06,3.19-7.76,8.25-8.38,1.38-.17,3.39-1.58,4.06-2.86.41-.78.44-1.65.07-2.36-.65-1.26-2.74-2.83-4.13-3.1-5.42-1.05-6.7-4.53-7.83-7.6-.74-2.02-1.51-4.1-3.72-4.43-.12-.02-.24-.03-.36-.03h0Z"/>
  </g>
  <g>
    <path class="cls-1" d="M313.3,364.78c-1.35,0-3-2.16-3.06-3.32-.25-4.36-3.39-5.67-6.15-6.83-1.59-.67-2.97-1.25-3.71-2.34-.13-.19-.39-.71-.05-1.41.47-.97,2.12-2.17,3.11-2.25,4.37-.35,5.77-3.88,6.89-6.72.73-1.85,1.36-3.45,2.85-3.55h.15c1.71,0,2.34,1.74,3.01,3.59,1,2.75,2.24,6.17,6.82,6.67.96.1,2.54,1.19,3.02,1.92.21.33.39.89.02,1.7-.37.82-1.44,2.05-2.49,2.2-5.46.81-6.65,4.25-7.6,7.02-.59,1.7-1.14,3.31-2.8,3.32h0Z"/>
    <path d="M313.32,339.36c2.72,0,1.47,9.36,9.72,10.26.64.07,1.97.98,2.29,1.47.4.61-1,2.25-1.77,2.36-9.39,1.39-7.57,10.31-10.27,10.33h0c-.7,0-2.02-1.63-2.07-2.37-.44-7.48-8.31-7.13-10.03-9.67-.37-.55,1.53-2.04,2.31-2.1,7.77-.62,7.33-10.11,9.73-10.27.03,0,.06,0,.08,0M313.32,337.36h0c-.07,0-.14,0-.22,0-2.12.14-2.93,2.2-3.71,4.18-1.3,3.28-2.56,5.81-6.04,6.09-1.35.11-3.3,1.5-3.93,2.81-.4.82-.35,1.7.12,2.4.91,1.34,2.48,2,4.15,2.7,3.21,1.35,5.33,2.49,5.54,5.97.09,1.6,2.1,4.26,4.06,4.26,2.39-.02,3.15-2.22,3.76-3.99.91-2.64,1.94-5.64,6.8-6.36,1.48-.22,2.79-1.76,3.25-2.78.58-1.29.19-2.22-.1-2.66-.62-.95-2.47-2.23-3.75-2.36-3.68-.4-4.8-2.74-5.99-6.02-.69-1.89-1.54-4.25-3.95-4.25h0Z"/>
  </g>
  <g>
    <path class="cls-1" d="M50.26,422.16c-1.73,0-3.37-.65-4.61-1.83-1.27-1.2-2.04-3.06-2.07-4.98-.03-1.89.67-3.65,1.97-4.97,3.75-3.79,11.45-9.41,16.08-9.41.67,0,1.27.11,1.8.33.72.31,1.19.9,1.37,1.71.79,3.62-5.04,12.14-9.24,16.75-1.38,1.52-3.31,2.39-5.3,2.39Z"/>
    <path d="M61.63,401.97c.52,0,.99.08,1.41.26,3.09,1.31-2.92,11.04-8.21,16.87-1.25,1.37-2.92,2.06-4.56,2.06-1.42,0-2.83-.52-3.92-1.56-1.98-1.88-2.66-5.9-.08-8.51,3.69-3.73,11.12-9.11,15.37-9.11M61.63,399.97h0c-5.44,0-13.66,6.54-16.79,9.71-1.49,1.51-2.29,3.53-2.26,5.68.03,2.18.93,4.3,2.38,5.69,1.43,1.36,3.31,2.11,5.3,2.11,2.27,0,4.47-.99,6.04-2.72,2.79-3.07,10.51-12.89,9.47-17.64-.25-1.13-.94-1.98-1.96-2.41-.65-.28-1.38-.41-2.19-.41h0Z"/>
  </g>
  <g>
    <path class="cls-1" d="M456.03,422.2c-2.02,0-3.96-.89-5.33-2.45-2.95-3.36-10.86-13.81-8.62-17.66.59-1.02,2.59-1.35,3.47-1.35.41,0,.74.06,1.02.17,7.27,3.14,15.37,8.4,16.3,13.76.36,2.1-.36,4.02-2.16,5.7-1.27,1.18-2.93,1.83-4.68,1.83Z"/>
    <path d="M445.54,401.74c.25,0,.47.03.62.09,9.31,4.02,20.3,11.79,13.86,17.8-1.1,1.03-2.54,1.56-3.99,1.56-1.65,0-3.33-.69-4.58-2.11-4.26-4.85-10.09-13.76-8.51-16.5.27-.46,1.68-.85,2.6-.85M445.54,399.74h0s-3.27.02-4.33,1.84c-3.07,5.28,8.61,18.69,8.73,18.82,1.56,1.77,3.77,2.79,6.08,2.79,2,0,3.91-.75,5.36-2.1,2.56-2.39,2.75-4.91,2.46-6.6-1.25-7.23-13.24-12.93-16.89-14.5-.4-.17-.86-.26-1.41-.26h0Z"/>
  </g>
  <g>
    <path class="cls-1" d="M104.79,348.15c-4.75,0-8.61-3.86-8.61-8.61s3.86-8.61,8.61-8.61,8.61,3.86,8.61,8.61-3.86,8.61-8.61,8.61Z"/>
    <path d="M104.79,331.93c4.2,0,7.61,3.41,7.61,7.61s-3.41,7.61-7.61,7.61-7.61-3.41-7.61-7.61,3.41-7.61,7.61-7.61M104.79,329.93c-5.3,0-9.61,4.31-9.61,9.61s4.31,9.61,9.61,9.61,9.61-4.31,9.61-9.61-4.31-9.61-9.61-9.61h0Z"/>
  </g>
  <g>
    <path class="cls-1" d="M305.5,422.17c-4.67,0-8.46-3.8-8.46-8.46s3.8-8.46,8.46-8.46,8.46,3.8,8.46,8.46-3.8,8.46-8.46,8.46Z"/>
    <path d="M305.5,406.25c4.12,0,7.46,3.34,7.46,7.46s-3.34,7.46-7.46,7.46-7.46-3.34-7.46-7.46,3.34-7.46,7.46-7.46M305.5,404.25c-5.22,0-9.46,4.25-9.46,9.46s4.25,9.46,9.46,9.46,9.46-4.25,9.46-9.46-4.25-9.46-9.46-9.46h0Z"/>
  </g>
  <g>
    <path class="cls-1" d="M23.25,375.16c-4.59,0-8.32-3.73-8.32-8.32s3.73-8.32,8.32-8.32,8.32,3.73,8.32,8.32-3.73,8.32-8.32,8.32Z"/>
    <path d="M23.25,359.53c4.04,0,7.32,3.28,7.32,7.32s-3.28,7.32-7.32,7.32-7.32-3.28-7.32-7.32,3.28-7.32,7.32-7.32M23.25,357.53c-5.14,0-9.32,4.18-9.32,9.32s4.18,9.32,9.32,9.32,9.32-4.18,9.32-9.32-4.18-9.32-9.32-9.32h0Z"/>
  </g>
  <g>
    <path class="cls-1" d="M483.17,375.09c-4.57,0-8.29-3.72-8.29-8.29s3.72-8.29,8.29-8.29,8.29,3.72,8.29,8.29-3.72,8.29-8.29,8.29Z"/>
    <path d="M483.17,359.51c4.03,0,7.29,3.26,7.29,7.29s-3.26,7.29-7.29,7.29-7.29-3.26-7.29-7.29,3.26-7.29,7.29-7.29M483.17,357.51c-5.12,0-9.29,4.17-9.29,9.29s4.17,9.29,9.29,9.29,9.29-4.17,9.29-9.29-4.17-9.29-9.29-9.29h0Z"/>
  </g>
  <g>
    <path class="cls-1" d="M194.54,484.05c-.22,0-.44,0-.66-.03-1.97-.17-3.73-1.12-4.84-2.6-1.1-1.48-1.47-3.41-1.04-5.42,1.12-5.26,4.74-12.55,8.61-12.55.13,0,.25,0,.37.02,3.94.48,4.68,7.88,4.13,14.08-.35,3.95-2.94,6.5-6.58,6.5Z"/>
    <path d="M196.62,464.45c.09,0,.17,0,.25.02,2.97.36,3.79,7.03,3.25,13-.34,3.83-2.8,5.59-5.58,5.59-.19,0-.38,0-.58-.02-3.22-.27-5.81-2.94-4.98-6.82,1.11-5.19,4.56-11.76,7.63-11.76M196.62,462.45h0c-5.09,0-8.66,8.99-9.59,13.34-.49,2.3-.06,4.51,1.21,6.23,1.27,1.72,3.3,2.81,5.56,3,.25.02.5.03.75.03,4.2,0,7.17-2.91,7.57-7.41.22-2.41.99-14.44-5-15.17-.16-.02-.33-.03-.49-.03h0Z"/>
  </g>
  <g>
    <path class="cls-1" d="M312.08,484.12c-2.55,0-5.77-1.27-6.46-4.84-.92-4.76-.61-11.44,1.48-14.39.61-.85,1.33-1.35,2.16-1.47.15-.02.31-.03.46-.03,3.93,0,7.42,7.06,8.64,12.08,1.09,4.49-1.36,7.63-4.34,8.41-.62.16-1.27.24-1.93.24Z"/>
    <path d="M309.72,464.4c2.97,0,6.36,5.93,7.66,11.32.92,3.78-.94,6.5-3.62,7.2-.53.14-1.1.21-1.68.21-2.37,0-4.93-1.19-5.47-4.03-1.2-6.21-.08-14.25,2.8-14.68.1-.02.21-.02.32-.02M309.72,462.4h0c-.2,0-.41.01-.61.04-.76.11-1.87.53-2.82,1.88-2.33,3.28-2.59,10.26-1.64,15.16.75,3.9,4.28,5.65,7.44,5.65.75,0,1.49-.09,2.19-.28,3.45-.9,6.3-4.49,5.06-9.61-1.21-4.97-4.88-12.84-9.61-12.84h0Z"/>
  </g>
  <g>
    <path class="cls-1" d="M177.17,427.98c-1.17,0-2.72-1.91-2.8-2.89-.32-3.52-2.6-4.64-5.02-5.83-1.03-.51-2.01-.99-2.81-1.66-.4-.34-.54-.86-.38-1.4.3-.97,1.86-2.29,2.83-2.4,3.38-.35,4.36-2.8,5.3-5.18.49-1.23.96-2.4,1.77-3.1.23-.2.51-.3.82-.3,1.16,0,2.47,1.71,2.65,2.58.92,4.49,3.73,5.49,5.78,6.22,1.25.44,2.42.86,2.61,2.07.21,1.39-1.69,2.9-2.75,3.09-3.66.64-4.45,2.68-5.36,5.04-.44,1.14-.9,2.32-1.71,3.31-.23.29-.58.45-.96.45Z"/>
    <path d="M176.9,406.23c.53,0,1.56,1.22,1.67,1.78,1.55,7.56,8.1,6.38,8.38,8.24.1.68-1.26,1.83-1.93,1.95-6.14,1.08-5.4,5.92-7.67,8.7-.05.06-.11.08-.18.08-.55,0-1.75-1.39-1.81-1.98-.51-5.71-5.7-6.08-8.17-8.16-.5-.42,1.23-1.96,1.91-2.03,5.88-.61,5.67-6.83,7.63-8.51.05-.04.11-.06.17-.06M176.9,404.23c-.54,0-1.07.19-1.47.54-1.01.86-1.51,2.14-2.05,3.49-1.06,2.65-1.89,4.29-4.48,4.55-1.37.14-3.26,1.73-3.68,3.1-.28.92-.02,1.86.69,2.46.89.75,1.97,1.28,3.01,1.79,2.6,1.28,4.21,2.2,4.46,5.02.13,1.43,2.02,3.8,3.8,3.8.68,0,1.31-.3,1.73-.82.91-1.12,1.4-2.37,1.87-3.58.9-2.33,1.5-3.87,4.6-4.41,1.44-.25,3.88-2.16,3.56-4.22-.28-1.8-1.93-2.39-3.26-2.86-2.03-.72-4.33-1.54-5.14-5.47-.24-1.16-1.84-3.38-3.63-3.38h0Z"/>
  </g>
  <g>
    <path class="cls-1" d="M208.1,383.33c-.24,0-.46-.07-.68-.21-.38-.24-1.75-1.42-1.93-2.45-.46-2.77-2.14-3.55-4.08-4.46-1.01-.47-2.06-.96-2.96-1.75-.5-.44-.5-.92-.45-1.17.14-.72.77-.94,1.51-1.2,1.49-.53,4.25-1.51,6.05-5.65l.79-1.82c.19-.43.59-.7,1.06-.7,1.13,0,2.38,1.85,2.53,2.44.73,2.96,3.34,4.36,5.07,5.29,1.22.66,2.18,1.17,2.12,2.2-.07,1.02-1.15,1.51-2.26,1.94-3.95,1.51-4.82,4.32-5.29,5.83-.25.8-.53,1.7-1.47,1.7Z"/>
    <path d="M207.4,364.92c.41,0,1.45,1.23,1.56,1.68,1.61,6.53,10.82,6.24,5.54,8.26-6.07,2.32-5.64,7.47-6.4,7.47-.04,0-.09-.02-.14-.05-.42-.27-1.39-1.24-1.48-1.78-.81-4.85-4.93-4.64-7.36-6.79-1.06-.93,4.45-.17,7.36-6.87l.79-1.82c.03-.07.08-.09.14-.09M207.4,362.92h0c-.86,0-1.63.51-1.97,1.3l-.79,1.82c-1.62,3.73-4.12,4.62-5.46,5.1-.81.29-1.91.68-2.16,1.96-.07.37-.14,1.31.77,2.11,1,.89,2.17,1.43,3.19,1.91,2.07.96,3.16,1.57,3.52,3.72.25,1.48,1.96,2.86,2.37,3.13.37.24.79.36,1.22.36,1.68,0,2.17-1.57,2.43-2.41.47-1.54,1.19-3.86,4.69-5.19.97-.37,2.78-1.06,2.9-2.81.11-1.67-1.35-2.45-2.64-3.15-1.67-.9-3.95-2.12-4.57-4.65-.2-.82-1.72-3.2-3.5-3.2h0Z"/>
  </g>
  <g>
    <path class="cls-1" d="M380.74,290.31c-3.05,0-5.53-2.48-5.53-5.53s2.48-5.53,5.53-5.53,5.53,2.48,5.53,5.53-2.48,5.53-5.53,5.53Z"/>
    <path d="M380.74,280.25c2.5,0,4.53,2.03,4.53,4.53s-2.03,4.53-4.53,4.53-4.53-2.03-4.53-4.53,2.03-4.53,4.53-4.53M380.74,278.25c-3.6,0-6.53,2.93-6.53,6.53s2.93,6.53,6.53,6.53,6.53-2.93,6.53-6.53-2.93-6.53-6.53-6.53h0Z"/>
  </g>
</svg>