<?xml version="1.0" encoding="UTF-8"?>
<svg id="katman_1" data-name="katman 1" xmlns="http://www.w3.org/2000/svg" viewBox="0 0 512.39 510.64">
  <defs>
    <style>
      .cls-1 {
        fill: #111;
      }

      .cls-2 {
        fill: #fff;
      }
    </style>
  </defs>
  <g>
    <path class="cls-1" d="M150.64,508.65c-.16,0-.33,0-.5-.02-1.35-.13-2.58-.79-3.37-1.82-.52-.67-1.08-1.8-.83-3.39l4.98-31.45c1.34-8.45,3.74-16.25,6.27-24.5l.59-1.92c2.84-9.27,4.41-19.04,4.94-30.77l1-22.14c.61-13.61-.79-26.38-4.3-39.03l-6.99-25.21-1.03,3.16c-3.78,11.64-7.93,21.86-13.08,32.14-2.95,5.89-4.36,12.23-4.31,19.37.12,18.08-3.48,35.95-11,54.62-.61,1.52-1.23,3.03-1.84,4.54-3.91,9.62-7.6,18.71-10.47,28.72-3.13,10.91-4.79,21.69-6.35,32.68-.44,3.12-2.16,4.98-4.6,4.98-.16,0-.33,0-.5-.02-1.44-.14-2.67-.83-3.46-1.95-.83-1.17-1.08-2.67-.7-4.2l3.28-19.65v-.1c-.57-21.95-5.18-42.52-13.71-61.12l-11.64-23.68-6.84-18.08-.73,3.24c-3.23,14.22-4.34,28.52-3.41,43.71l2.2,35.88c1.01,16.4.52,30.08-1.52,43.06-.31,1.94-2.3,2.81-4.15,2.81-.51,0-1-.07-1.44-.2-2.3-.68-3.47-2.66-3.13-5.3,1.73-13.39,2.15-26.04,1.31-38.68l-2.05-30.52c-.87-13.01-.63-25.37.75-37.76,2.01-18.11,7.39-30.46,12.14-41.36,3.36-7.71,6.26-14.37,7.07-21.34l2.02-17.22c1.25-10.68,3.75-20.38,7.65-29.67,2.45-5.83,3.59-12.02,3.72-20.07.24-15.62,2.8-29.75,7.82-43.22,6.24-16.75,18.06-29.4,34.16-36.59,11.02-4.92,22.47-7.16,33.21-8.85,13.89-2.18,26.26-7.02,37.82-14.79,4.18-2.81,8.54-6.62,9.29-13.59.09-.83.2-1.71.32-2.62.6-4.69,1.35-10.52-.54-14.95-.71-1.66-1.43-3.28-2.15-4.88-2.71-6.06-5.26-11.78-6.5-18.5-1.71-9.3-3.33-18.09-3.84-27.47-.81-14.84.44-27.1,3.93-38.59,4.97-16.37,16.42-28.52,32.24-34.21,7.74-2.78,15.78-4.19,23.92-4.19,9.04,0,17.82,1.74,26.09,5.16,13.42,5.56,23.29,15.81,28.53,29.64,3.44,9.09,5.12,19.18,5.43,32.69.3,13.13-1.89,25.76-4.15,37.58-1.2,6.25-3.58,11.59-6.1,17.24-.8,1.81-1.64,3.67-2.43,5.58-2.26,5.41-.97,12.78-.03,18.17l.13.74c.8,4.61,3.21,8.27,7.16,10.89,5.91,3.92,13.05,8.33,21.23,11.34,6.97,2.56,14.13,3.9,21.7,5.32,8.58,1.6,17.46,3.26,26.53,6.88,12.12,4.83,21.75,12.03,28.61,21.42,10.36,14.17,16.33,35.85,16.82,61.05.13,6.96,1.24,12.76,3.49,18.25,4.71,11.51,7.45,23.35,8.37,36.19.85,11.85,3.6,22.53,8.41,32.64,5.33,11.21,8.69,21.03,10.58,30.88,2.74,14.31,3.57,29.11,2.55,45.22l-2.23,35.16c-.79,12.39-.34,24.45,1.36,36.87.39,2.81-.94,5.02-3.39,5.62-.34.08-.7.13-1.08.13-1.89,0-4.08-1.04-4.42-3.33-1.92-13.16-2.35-26.9-1.33-43.23l2.3-37.08c.98-15.8-.57-31.02-4.73-46.55-.16-.5-.5-1.57-1.45-1.57-.75,0-1.18.58-1.26,1.71-2.11,8.38-5.42,16.63-10.72,26.73l-10.72,20.42c-6.49,14.83-10,28.07-11.09,41.72v.14s6.75,34.69,6.75,34.69c.41,1.57.2,3.1-.56,4.27-.68,1.05-1.75,1.74-3.01,1.94-.3.05-.61.07-.9.07-2.44,0-4.2-1.71-4.61-4.47-1.99-13.63-3.97-25.91-8.07-38.24l-11.12-29.07c-7.26-18.97-10.72-36.54-10.58-53.69.06-7.18-1.44-13.66-4.57-19.82-5.25-10.31-9.34-20.51-12.87-32.1l-.97-3.18-.95,3.19c-3.31,11.14-6.66,23.23-8.78,36.18-2.29,13.96-1.61,27.25-.9,41.31l.16,3.14c.65,13.02,1.84,24.05,5.57,35.6,3.57,11.04,6.09,21.54,7.71,32.1l3.59,23.34c.24,1.54-.11,2.98-.97,4.07-.78.99-1.93,1.59-3.23,1.7-.16.01-.33.02-.48.02-3.6,0-4.43-3.44-4.62-4.92-.3-2.32-.58-4.63-.86-6.94-1.27-10.47-2.58-21.29-5.55-31.75l-7.32-25.79-1.14,2.38c-4.1,8.53-8.82,15.21-14.83,21.03l-16.12,13.72c-11.14,8.56-20.65,18.34-29.03,29.86-1.18,1.62-2.42,2.44-3.71,2.44-.55,0-1.14-.15-1.74-.45-.98-.49-1.69-1.37-1.95-2.4-.26-1.07-.03-2.19.67-3.17,7.36-10.32,16.39-19.93,27.63-29.38l17.23-14.49c6.72-5.66,12.14-13.36,16.55-23.55,3.26-7.54,4.36-15.41,3.45-24.77-1.76-18.14-1.06-34.9,2.15-51.24l7.95-30.84c2.34-9.07,4.24-17.37,3.89-27.07l-.08-2.28-1.62,1.6c-10.27,10.17-22.8,16.02-36.22,16.91-2.04.14-4.11.2-6.14.2-12.31,0-23.76-2.42-34.08-7.2.63-.02,1.28-.03,1.94-.03,3.03,0,6.03.2,8.93.39,2.38.16,4.85.32,7.33.37,1.05.02,2.11.03,3.15.03,29.03,0,47.42-9.08,57.87-28.58,4.12-7.69,6.68-16.33,8.05-27.18.13-1.04,1.45-2.44,2.24-2.8.33-.15.87-.24,1.46-.24,1.11,0,2.25.29,2.86.73l18.77,13.58c9.21,5.73,18.13,9.93,27.32,12.89l1.4.45-.82-12.23c-.66-9.99-1.29-19.42-3.54-29.12-4.72-20.29-13.49-33.1-28.43-41.53-10.64-6.01-21.06-7.96-32.1-10.04-6.34-1.19-12.89-2.42-19.72-4.48l-.73-.22-.41.64c-12.43,19.69-31.83,32.43-54.64,35.89-5.26.8-10.61,1.2-15.9,1.2-26.58,0-52.87-9.45-85.24-30.65-2.3-1.51-5.32-3.23-8.32-3.23-.23,0-.47.01-.7.03-8.14.75-15.89,2.23-24.38,4.66-20.53,5.86-33.41,17.93-40.52,37.98-4.6,12.98-5.7,26.55-6.36,38.25l-.73,12.78,1.37-.41c14.62-4.37,30-13.15,45.7-26.08.86-.71,1.93-1.1,3.01-1.1.58,0,1.15.11,1.7.32.97.38,2.27,2.03,2.47,3.6,1.17,8.89,3.11,16.18,6.11,22.96,6.68,15.1,19.45,25.53,35.98,29.37,7.43,1.72,15.23,2.56,23.83,2.56,3.91,0,8-.17,12.51-.52.64-.05,1.29-.11,1.93-.17,1.59-.15,3.24-.3,4.85-.3.84,0,1.61.04,2.35.12-11.24,4.86-22.84,7.33-34.55,7.33-2.31,0-4.65-.1-6.95-.29-13.41-1.14-25.38-6.81-35.57-16.85l-1.67-1.65-.03,2.35c-.09,7.86.98,15.9,3.28,24.58l7.89,29.79c3.83,17.48,4.72,36.18,2.73,57.12-.82,8.57.75,15.33,4.93,21.27,4.61,6.55,9.76,12.07,15.74,16.88l25.5,20.51c1.07.86,2.02,1.68,2.82,2.55-21.32-6.6-39.11-19.07-50.32-35.33l-1.23-1.78-7.97,29.76c-2.79,10.43-4.14,21.14-5.45,31.5-.25,2.02-.51,4.05-.78,6.08-.36,2.72-2.08,4.41-4.5,4.41ZM80.61,342.02c-.83,4.33-2.62,8.3-4.35,12.13-1.52,3.37-3.09,6.86-4,10.57-1.36,5.54.3,11.14,1.91,16.55.66,2.21,1.28,4.3,1.7,6.37l.02.11,10.12,22.01c8.75,16.75,14.26,32.91,16.85,49.46l.58,3.7,12.09-31.45c6.5-16.92,9.54-32.96,9.29-49.04l.2-7.26-.75-.21c-17.34-4.91-32.19-16.72-41.81-33.25l-1.34-2.31-.5,2.62ZM429.71,341.73c-9.36,16.57-24.16,28.35-41.69,33.19l-.76.21.37,12.97c.41,14.28,3.25,28.26,8.46,41.55l9.24,23.6.73-3.15c3.34-14.45,9.49-26.72,16-39.72l10.21-20.38c3.05-7.83,6.49-18.21,6.26-29.74v-.18s-7.77-20.22-7.77-20.22l-1.04,1.85ZM366.69,278.32c-2.77,9.75-3.43,18.57-2.09,27.73,2.21,15.09,6.56,29.62,13.32,44.43l7.94,17.39.85-.28c14.5-4.71,26.44-13.28,34.53-24.79,2.91-4.15,6.82-10.47,7.07-17.42.4-10.92-1.96-22.35-7.42-35.97l-.18-.46-11.86-3.23.94,1.97c4.06,8.49,10.1,24.07,8.48,38.88-2.13-10.1-4.49-18.42-8.48-26.7-3.37-6.56-7.12-13.44-12.76-19.44l-.11-.12-.15-.08c-9.1-4.85-16.96-9.84-24.74-15.7l-1.17-.88-4.16,14.66ZM91.56,288.95l-.18.46c-5.44,13.78-7.67,25.04-7.23,36.53.21,5.46,2.92,10.45,5.26,14.18,8.26,13.18,21.2,22.9,36.45,27.37l.84.25,5.06-11.51c8.26-17.07,13.45-33.1,15.84-48.99,1.46-9.74,1.14-17.93-1.01-25.78l-4.98-18.12-1.19,1c-4.85,4.06-10.31,7.33-15.59,10.5-2.92,1.75-5.95,3.56-8.86,5.5-4.13,2.75-6.83,7.54-9.2,11.76-.5.89-1,1.77-1.49,2.61-6.09,10.31-9.13,21.26-11.2,31.85-1.41-14.01,3.62-28.62,8.45-38.94l.92-1.96-11.88,3.28ZM218.29,147.14c-.64,7.86-3.36,14.22-8.08,18.91-7.41,6.01-15.92,10.83-28.4,16.06l-1.71.72,1.54,1.04c28.82,19.42,55,28.87,80.05,28.87,5.13,0,10.27-.41,15.26-1.23,19.77-3.62,36.54-14.56,47.27-30.81l.63-.95-1.02-.5c-7.56-3.7-13.63-7.21-19.11-11.05l-.75-.53-.59.71c-8.69,10.42-21.03,17.69-35.69,21.02-5.09.93-10.29,1.4-15.41,1.4-10.09,0-19.92-1.87-28.72-5.44l19.34,1.07c12.02-.5,21.04-2.02,29.34-4.95,10.84-3.91,19.73-10.01,26.43-18.12l.44-.53-.33-.6c-2.6-4.64-4.22-9.68-4.83-14.96l-.23-2.03-11.84,11.64c-7.13,5.57-15,8.51-23.4,8.76-.92.05-1.81.07-2.68.07-15.13,0-24.24-6.73-35.76-19.15l-1.55-1.67-.18,2.27ZM256.15,13.07c-7.22,0-14.29,1.26-21.02,3.76-18.29,6.78-28.31,22.73-29.79,47.4-1.04,17.44,1.16,35.29,6.53,53.03l.02.06.03.06c5.7,12.43,13.81,23.26,24.08,32.2,5.3,4.61,12.5,7.15,20.27,7.15h0c8.14,0,15.85-2.88,21.16-7.89,7.35-6.95,17.7-17.77,22.7-31.49,5.49-15.06,7.73-32.5,6.85-53.32-.34-8.05-2.03-15.72-5.16-23.45-4.59-11.32-13.5-19.82-25.1-23.95-6.64-2.36-13.56-3.56-20.59-3.56Z"/>
    <path class="cls-2" d="M256.31,4.95c8.91,0,17.56,1.71,25.71,5.08,13.16,5.45,22.84,15.5,27.98,29.07,3.4,8.98,5.06,18.96,5.36,32.35.3,13.03-1.88,25.61-4.14,37.36-1.18,6.14-3.53,11.42-6.03,17.02-.81,1.81-1.64,3.68-2.44,5.6-2.37,5.68-1.05,13.22-.09,18.73l.13.73c.84,4.82,3.46,8.81,7.59,11.55,5.96,3.95,13.17,8.4,21.44,11.44,7.05,2.59,14.25,3.94,21.86,5.36,8.54,1.6,17.36,3.25,26.34,6.82,11.95,4.75,21.42,11.85,28.17,21.08,10.24,14.01,16.14,35.49,16.63,60.48.14,7.09,1.27,13.01,3.57,18.61,4.67,11.41,7.38,23.15,8.3,35.88.86,11.98,3.64,22.77,8.5,33,5.29,11.14,8.63,20.87,10.5,30.64,2.72,14.23,3.55,28.94,2.53,44.97l-2.23,35.16c-.79,12.46-.34,24.59,1.37,37.07.25,1.81-.32,3.94-2.64,4.52-.26.06-.55.1-.85.1-1.06,0-3.14-.52-3.43-2.47-1.91-13.09-2.33-26.76-1.32-43.02l2.3-37.08c.99-15.91-.57-31.24-4.76-46.87v-.05s-.03-.05-.03-.05c-.47-1.47-1.28-2.22-2.39-2.22-.48,0-2.03.19-2.25,2.54-2.09,8.27-5.37,16.43-10.62,26.43l-10.72,20.42-.03.06-.03.07c-6.51,14.88-10.05,28.22-11.14,41.98l-.02.27.05.27,6.74,34.56v.06s.03.06.03.06c.33,1.25.17,2.46-.44,3.41-.53.82-1.34,1.34-2.33,1.5-.25.04-.5.06-.74.06-1.93,0-3.28-1.35-3.62-3.62-2-13.68-3.99-26-8.11-38.41v-.04s-.03-.04-.03-.04l-11.1-29.02c-7.21-18.85-10.65-36.3-10.51-53.33.06-7.35-1.47-13.98-4.68-20.28-5.22-10.26-9.29-20.41-12.8-31.94l-1.94-6.36-1.89,6.38c-3.32,11.17-6.68,23.3-8.81,36.31-2.31,14.06-1.63,27.4-.91,41.51l.16,3.15c.65,13.1,1.85,24.21,5.61,35.85,3.55,11,6.06,21.45,7.68,31.95l3.59,23.34c.19,1.26-.08,2.43-.76,3.3-.61.78-1.49,1.24-2.53,1.32-.14.01-.27.02-.4.02-2.7,0-3.44-2.54-3.63-4.05-.3-2.31-.58-4.62-.86-6.92-1.28-10.51-2.59-21.37-5.59-31.91l-6.6-23.25-1.44-5.07-2.29,4.75c-4.04,8.4-8.67,14.98-14.58,20.7l-16.08,13.69c-11.24,8.65-20.8,18.48-29.23,30.07-.98,1.35-1.95,2.03-2.9,2.03-.4,0-.83-.12-1.29-.35-.72-.36-1.24-1-1.43-1.75-.19-.78-.01-1.61.52-2.35,7.31-10.25,16.29-19.8,27.46-29.2l17.23-14.49c6.84-5.76,12.35-13.58,16.82-23.92,3.33-7.7,4.45-15.73,3.53-25.27-1.75-18.02-1.05-34.67,2.12-50.89l7.95-30.84c2.27-8.81,4.28-17.54,3.92-27.35l-.17-4.56-3.24,3.21c-10.1,10-22.41,15.75-35.59,16.62-2.02.13-4.07.2-6.07.2-10.37,0-20.11-1.73-29.07-5.17,1.96.07,3.89.2,5.79.32,2.4.16,4.87.32,7.38.37,1.07.02,2.14.03,3.17.03,29.44,0,48.11-9.25,58.75-29.1,4.18-7.8,6.78-16.55,8.16-27.53.08-.6,1.08-1.75,1.66-2.02.15-.07.51-.15,1.04-.15.99,0,1.91.28,2.27.54l18.77,13.58.06.04.06.04c9.22,5.74,18.21,9.97,27.49,12.95l2.8.9-.2-2.94-.59-8.75-.13-2.03c-.66-10.02-1.29-19.49-3.57-29.27-4.79-20.59-13.71-33.59-28.91-42.18-10.78-6.09-21.29-8.06-32.41-10.15-6.31-1.19-12.84-2.41-19.62-4.46l-1.46-.44-.81,1.29c-12.27,19.44-31.43,32.02-53.94,35.43-5.21.79-10.51,1.19-15.75,1.19-26.37,0-52.49-9.4-84.69-30.48-2.41-1.58-5.6-3.4-8.87-3.4-.27,0-.53.01-.79.04-8.2.76-16.01,2.25-24.56,4.69-20.87,5.96-33.96,18.22-41.18,38.61-4.65,13.1-5.75,26.76-6.42,38.53l-.64,11.36-.16,2.85,2.73-.82c14.75-4.41,30.24-13.25,46.05-26.27.69-.57,1.51-.87,2.37-.87.45,0,.9.09,1.34.25.61.24,1.68,1.59,1.84,2.8,1.19,8.98,3.15,16.37,6.19,23.23,6.81,15.4,19.83,26.03,36.67,29.94,7.51,1.74,15.37,2.59,24.05,2.59,3.94,0,8.06-.17,12.59-.52.65-.05,1.29-.11,1.94-.17.65-.06,1.29-.12,1.92-.17-9.6,3.54-19.44,5.32-29.35,5.32-2.28,0-4.59-.1-6.86-.29-13.18-1.12-24.94-6.69-34.96-16.57l-3.35-3.3-.06,4.7c-.09,7.95.99,16.08,3.31,24.85l7.88,29.75c3.81,17.41,4.69,35.99,2.71,56.81-.84,8.82.78,15.79,5.11,21.94,4.66,6.62,9.87,12.21,15.93,17.09l24.58,19.77c-19.03-6.84-34.88-18.51-45.13-33.38l-2.46-3.57-1.12,4.18-7.41,27.67c-2.81,10.49-4.16,21.24-5.47,31.63-.25,2.02-.51,4.05-.78,6.08-.29,2.22-1.6,3.54-3.51,3.54-.13,0-.27,0-.41-.02-1.08-.1-2.05-.62-2.68-1.43-.4-.51-.83-1.38-.63-2.62l4.98-31.45c1.33-8.38,3.71-16.14,6.24-24.36l.59-1.93c2.87-9.35,4.45-19.21,4.98-31.02l1-22.14c.62-13.72-.8-26.59-4.34-39.34l-6.1-22-1.78-6.41-2.05,6.33c-3.76,11.59-7.9,21.76-13.02,32-3.02,6.04-4.47,12.52-4.42,19.82.12,17.95-3.46,35.69-10.93,54.24-.61,1.52-1.23,3.03-1.84,4.54-3.92,9.64-7.61,18.76-10.5,28.82-3.15,10.97-4.81,21.78-6.38,32.82-.18,1.24-.88,4.12-3.61,4.12-.13,0-.27,0-.41-.02-1.15-.11-2.12-.65-2.74-1.53-.66-.93-.85-2.13-.54-3.38l.02-.08v-.08s3.26-19.48,3.26-19.48l.03-.19v-.19c-.58-22.09-5.22-42.78-13.8-61.51v-.02s-.02-.02-.02-.02l-11.59-23.57-5.67-14.98-2.35-6.21-1.47,6.47c-3.25,14.31-4.37,28.7-3.43,43.99l2.2,35.88c1,16.32.52,29.94-1.51,42.84-.24,1.55-2.1,1.97-3.16,1.97-.41,0-.81-.05-1.15-.16-1.82-.54-2.7-2.07-2.42-4.22,1.73-13.46,2.16-26.17,1.31-38.87l-2.05-30.52c-.87-12.95-.62-25.25.75-37.58,2-17.96,7.35-30.24,12.06-41.07,3.39-7.78,6.32-14.5,7.15-21.62l2.02-17.22c1.24-10.58,3.72-20.2,7.58-29.4,2.5-5.95,3.67-12.26,3.79-20.44.24-15.5,2.77-29.53,7.75-42.88,6.15-16.49,17.78-28.95,33.64-36.03,10.92-4.88,22.29-7.1,32.96-8.78,14.04-2.21,26.54-7.1,38.22-14.95,4.37-2.94,8.94-6.93,9.73-14.31.09-.82.2-1.69.32-2.6.62-4.81,1.39-10.79-.61-15.47-.71-1.67-1.45-3.31-2.16-4.9-2.68-6-5.21-11.67-6.43-18.27-1.71-9.27-3.32-18.03-3.83-27.34-.8-14.72.43-26.87,3.89-38.24,4.88-16.06,16.11-27.98,31.63-33.56,7.63-2.74,15.56-4.13,23.58-4.13M256.28,157.73c8.39,0,16.36-2.98,21.85-8.17,7.42-7.02,17.88-17.95,22.96-31.88,5.53-15.19,7.79-32.75,6.91-53.7-.35-8.17-2.06-15.95-5.23-23.79-4.7-11.59-13.82-20.29-25.69-24.51-6.75-2.4-13.78-3.61-20.92-3.61s-14.53,1.29-21.37,3.82c-18.7,6.93-28.94,23.17-30.44,48.27-1.05,17.56,1.16,35.52,6.57,53.38l.04.13.06.12c5.76,12.56,13.95,23.51,24.34,32.54,5.48,4.77,12.92,7.39,20.93,7.39M209.58,165.27c-7.38,5.98-15.81,10.74-28.15,15.91l-3.42,1.43,3.07,2.07c28.99,19.54,55.36,29.04,80.61,29.04,5.19,0,10.37-.42,15.46-1.25,20.02-3.66,37.03-14.76,47.9-31.24l1.25-1.9-2.04-1c-7.51-3.68-13.54-7.16-18.97-10.97l-1.51-1.05-1.18,1.41c-8.54,10.24-20.67,17.39-35.1,20.68-5.06.92-10.19,1.38-15.23,1.38-7.48,0-14.81-1.04-21.68-3.05l12.25.68h.1s.1,0,.1,0c12.03-.5,21.14-2.05,29.55-5.01,11-3.97,20.04-10.17,26.86-18.42l.87-1.06-.67-1.19c-2.53-4.53-4.11-9.43-4.71-14.59l-.47-4.07-2.92,2.87-10.34,10.16c-6.95,5.41-14.61,8.27-22.81,8.51-.88.05-1.76.07-2.61.07-14.77,0-23.7-6.62-35.03-18.83l-3.09-3.33-.37,4.53c-.61,7.58-3.21,13.7-7.72,18.21M94.96,317.99c.74-11.02,4.68-21.82,8.47-29.94l1.84-3.93-4.18,1.15-9.31,2.57-.96.27-.37.93c-5.5,13.91-7.75,25.31-7.3,36.94.22,5.7,3.01,10.83,5.41,14.67,8.39,13.39,21.53,23.26,37.02,27.8l1.69.49.71-1.61,4.69-10.67c8.31-17.18,13.52-33.3,15.92-49.27,1.49-9.88,1.16-18.2-1.04-26.19l-4.56-16.62-.82-3-2.39,2c-4.79,4.01-10.22,7.26-15.47,10.41-2.93,1.76-5.96,3.58-8.9,5.53-4.33,2.88-7.09,7.78-9.52,12.1-.5.89-.99,1.76-1.48,2.6-4.56,7.72-7.43,15.79-9.46,23.79M385.32,369.09l1.7-.55c14.71-4.77,26.83-13.48,35.04-25.16,2.99-4.25,6.99-10.74,7.25-17.96.41-11.06-1.97-22.62-7.49-36.38l-.37-.92-.96-.26-9.28-2.52-4.21-1.15,1.88,3.94c3.29,6.89,7.92,18.51,8.57,30.52-1.74-6.84-3.84-13.11-6.77-19.21v-.02s-.02-.02-.02-.02c-3.39-6.6-7.18-13.55-12.91-19.64l-.23-.24-.29-.16c-9.05-4.82-16.87-9.79-24.61-15.61l-2.33-1.75-.8,2.81-3.76,13.26c-2.81,9.9-3.48,18.84-2.12,28.15,2.22,15.19,6.6,29.81,13.4,44.7l7.57,16.58.74,1.62M103.03,466.78l2.69-6.99,10.75-27.96c6.55-17.02,9.61-33.18,9.36-49.37l.18-6.48.04-1.56-1.5-.42c-17.09-4.84-31.73-16.49-41.22-32.79l-2.68-4.61-1.01,5.24c-.81,4.22-2.57,8.13-4.28,11.91-1.54,3.41-3.13,6.94-4.06,10.74-1.43,5.81.28,11.54,1.92,17.08.65,2.19,1.27,4.26,1.68,6.29l.05.23.1.21,10.07,21.9.02.05.02.04c8.68,16.6,14.15,32.67,16.72,49.1l1.16,7.39M405.58,456.64l1.46-6.29c3.32-14.34,9.44-26.56,15.92-39.5l10.21-20.38.04-.08.03-.09c3.05-7.83,6.52-18.32,6.29-30.04v-.35s-.13-.33-.13-.33l-6.94-18.08-1.52-3.96-2.09,3.7c-9.22,16.33-23.82,27.95-41.09,32.72l-1.51.42.04,1.57.35,12.19c.41,14.4,3.28,28.49,8.52,41.89l8.07,20.6,2.35,6.01M256.31,2.95c-8.2,0-16.41,1.43-24.26,4.25-16.2,5.83-27.86,18.4-32.86,34.86-3.84,12.66-4.7,25.59-3.97,38.93.51,9.44,2.16,18.41,3.86,27.6,1.59,8.63,5.31,15.64,8.71,23.59,2.14,5,.69,12.01.15,17.07-.66,6.13-4.22,9.75-8.86,12.87-11.47,7.71-23.65,12.47-37.42,14.63-11.62,1.83-22.79,4.16-33.46,8.93-16.45,7.35-28.43,20.35-34.69,37.16-5.24,14.04-7.65,28.45-7.88,43.55-.11,6.93-.95,13.3-3.64,19.7-4.06,9.68-6.49,19.44-7.72,29.94l-2.02,17.22c-1.92,16.35-15.73,31.38-19.21,62.7-1.42,12.73-1.62,25.08-.76,37.94l2.05,30.52c.87,13.01.36,25.64-1.3,38.48-.41,3.2,1.15,5.6,3.84,6.39.53.16,1.12.24,1.72.24,2.27,0,4.74-1.15,5.14-3.66,2.26-14.39,2.42-28.63,1.53-43.27l-2.2-35.88c-.9-14.63.07-28.83,3.39-43.43l5.71,15.07,11.63,23.65c8.79,19.19,13.07,39.67,13.62,60.73l-3.25,19.48c-.92,3.69,1.37,7.03,5.04,7.38.2.02.4.03.6.03,3.09,0,5.1-2.43,5.59-5.84,1.57-11.06,3.23-21.78,6.32-32.55,3.31-11.54,7.79-22.04,12.27-33.16,7.14-17.73,11.2-35.77,11.07-55-.04-6.72,1.21-12.93,4.21-18.92,5.21-10.42,9.34-20.59,13.13-32.28l6.1,22c3.52,12.68,4.86,25.51,4.27,38.72l-1,22.14c-.48,10.55-1.8,20.43-4.9,30.53-2.71,8.86-5.44,17.38-6.9,26.56l-4.98,31.45c-.55,3.45,2.04,6.06,5.1,6.35.2.02.4.03.6.03,2.87,0,5.06-2.04,5.49-5.28,1.66-12.67,2.89-25.11,6.2-37.45l7.41-27.67c12.36,17.93,32.11,30.49,53.72,36.57-1.2-2.09-2.91-3.63-4.78-5.14l-25.5-20.51c-6.04-4.86-11.16-10.45-15.55-16.68-4.42-6.28-5.48-12.97-4.75-20.6,1.85-19.39,1.41-38.46-2.76-57.47l-7.89-29.79c-2.12-8.02-3.34-15.98-3.25-24.32,10.15,10.01,22.24,15.95,36.19,17.14,2.35.2,4.69.3,7.03.3,12.87,0,25.64-2.98,37.76-8.68-1.87-.58-3.72-.77-5.56-.77-2.3,0-4.58.29-6.86.47-4.19.32-8.33.52-12.43.52-7.92,0-15.72-.71-23.6-2.54-15.88-3.68-28.69-13.87-35.29-28.8-3.22-7.29-4.97-14.67-6.03-22.69-.25-1.86-1.74-3.87-3.1-4.4-.68-.26-1.38-.39-2.06-.39-1.31,0-2.59.46-3.64,1.33-13.35,11-28.94,20.99-45.35,25.9l.64-11.36c.74-12.98,1.95-25.7,6.3-37.97,7.04-19.87,19.51-31.55,39.85-37.35,7.99-2.28,15.8-3.85,24.2-4.62.2-.02.41-.03.61-.03,2.74,0,5.56,1.62,7.77,3.07,26.39,17.28,54.67,30.81,85.79,30.81,5.27,0,10.62-.39,16.05-1.21,23.24-3.52,42.83-16.54,55.33-36.34,18.65,5.64,35,5.05,51.62,14.43,16.2,9.15,23.77,22.95,27.94,40.89,2.39,10.28,2.95,20.43,3.65,30.98l.59,8.75c-9.68-3.11-18.51-7.44-27.04-12.75l-18.77-13.58c-.82-.59-2.2-.92-3.44-.92-.71,0-1.38.11-1.88.33-1.05.48-2.63,2.15-2.81,3.59-1.2,9.52-3.43,18.42-7.94,26.83-11.81,22.04-33.25,28.05-56.99,28.05-1.04,0-2.08-.01-3.13-.03-5.48-.12-10.72-.76-16.28-.76-1.87,0-3.78.07-5.75.26,11.77,6.19,24.83,8.96,37.89,8.96,2.07,0,4.14-.07,6.2-.21,14.43-.96,26.88-7.31,36.86-17.2.35,9.62-1.61,18.05-3.86,26.78l-7.96,30.9c-3.35,17.11-3.85,34.12-2.16,51.53.84,8.61.05,16.36-3.37,24.28-3.82,8.81-8.86,16.95-16.27,23.18l-17.23,14.49c-10.5,8.83-19.85,18.41-27.8,29.57-1.85,2.6-.88,5.78,1.64,7.05.77.38,1.49.56,2.19.56,1.75,0,3.26-1.12,4.52-2.85,8.27-11.38,17.74-21.13,28.87-29.69l16.17-13.76c6.33-6.13,11.04-13.01,15.04-21.32l6.6,23.25c3.59,12.64,4.7,25.49,6.38,38.54.44,3.44,2.43,5.79,5.61,5.79.18,0,.37,0,.57-.02,3.4-.28,5.66-3.3,5.11-6.92l-3.59-23.34c-1.7-11.07-4.32-21.63-7.75-32.26-3.79-11.73-4.91-23.05-5.52-35.34-.74-14.99-1.72-29.34.73-44.24,2.04-12.42,5.22-24.16,8.76-36.06,3.52,11.55,7.64,21.87,12.93,32.27,3.1,6.09,4.52,12.46,4.46,19.36-.15,18.79,3.97,36.61,10.64,54.06l11.1,29.02c4.14,12.45,6.14,25.12,8.03,38.06.48,3.28,2.68,5.33,5.59,5.33.34,0,.7-.03,1.06-.09,3.36-.54,5.33-3.85,4.39-7.39l-6.74-34.56c1.17-14.71,5.17-28.06,10.98-41.33l10.72-20.42c4.57-8.71,8.39-17.3,10.83-27.04.03-.56.13-.86.27-.86.13,0,.3.27.48.83,4.08,15.23,5.67,30.52,4.7,46.23l-2.3,37.08c-.91,14.7-.77,28.93,1.34,43.43.41,2.8,3.04,4.19,5.41,4.19.46,0,.91-.05,1.32-.16,3.06-.76,4.58-3.54,4.14-6.73-1.69-12.29-2.14-24.29-1.35-36.67l2.23-35.16c.98-15.43.33-30.32-2.56-45.47-2.11-11.02-5.87-21.05-10.66-31.12-4.9-10.3-7.49-20.82-8.31-32.28-.92-12.83-3.6-24.68-8.44-36.5-2.37-5.79-3.3-11.68-3.42-17.89-.41-20.89-4.68-44.74-17.01-61.62-7.37-10.09-17.45-17.14-29.05-21.76-17.07-6.8-33.38-6.73-48.25-12.2-7.56-2.78-14.35-6.81-21.02-11.23-3.52-2.34-5.95-5.73-6.73-10.23-.94-5.4-2.41-12.96-.17-18.35,3.24-7.76,6.97-14.59,8.59-23.01,2.41-12.57,4.47-24.87,4.17-37.79-.26-11.45-1.48-22.44-5.49-33.02-5.27-13.91-15.29-24.5-29.08-30.21-8.47-3.51-17.46-5.23-26.47-5.23h0ZM256.28,155.73c-7.15,0-14.31-2.29-19.62-6.9-10.21-8.87-18.15-19.47-23.83-31.86-5.2-17.18-7.56-34.7-6.49-52.68,1.24-20.81,8.94-39.03,29.14-46.52,6.66-2.47,13.66-3.69,20.67-3.69s13.7,1.17,20.25,3.5c11.38,4.04,20,12.24,24.51,23.38,3,7.39,4.74,14.94,5.09,23.12.75,17.82-.61,35.98-6.79,52.93-4.47,12.27-13.23,22.4-22.45,31.11-5.36,5.06-12.91,7.62-20.48,7.62h0ZM261.69,211.72c-28.59,0-55.82-12.74-79.49-28.7,10.74-4.5,20.15-9.31,28.72-16.27,5.19-5.15,7.76-12.01,8.37-19.54,10.79,11.63,20.36,19.47,36.5,19.47.88,0,1.79-.02,2.71-.07,9.05-.27,17.01-3.51,24.03-9.01l10.42-10.24c.62,5.41,2.29,10.57,4.95,15.33-6.94,8.4-15.83,14.15-25.99,17.82-9.42,3.32-18.93,4.47-28.95,4.89l-24.69-1.36c10.49,5.25,22.19,7.73,34.01,7.73,5.22,0,10.46-.48,15.63-1.42,14.2-3.22,26.94-10.2,36.24-21.36,6.07,4.25,12.39,7.77,19.24,11.12-10.85,16.44-27.47,26.88-46.59,30.38-5.07.83-10.1,1.22-15.1,1.22h0ZM94.03,332.37c2.25-13.12,5.29-25.61,12.11-37.15,2.85-4.82,5.62-10.88,10.39-14.05,8.18-5.44,16.94-9.71,24.54-16.06l4.56,16.62c2.31,8.4,2.29,16.68.99,25.36-2.58,17.15-8.24,33.19-15.76,48.73l-4.71,10.71c-14.78-4.33-27.7-13.88-35.89-26.94-2.5-3.99-4.92-8.65-5.11-13.69-.5-12.87,2.57-24.53,7.16-36.13l9.31-2.57c-6.14,13.12-11.2,29.9-7.59,45.17h0ZM386.4,366.64l-7.57-16.58c-6.46-14.15-10.99-28.76-13.24-44.16-1.38-9.47-.52-18.22,2.06-27.31l3.76-13.26c8.14,6.13,16.18,11.14,24.87,15.78,5.35,5.7,9,12.22,12.59,19.19,4.8,9.99,7.24,20.28,9.45,31.67,3.49-14.26-1.19-31.2-7.65-44.71l9.28,2.52c4.53,11.29,7.8,23.26,7.35,35.56-.23,6.16-3.39,11.9-6.89,16.88-8.18,11.65-20.25,19.94-34.02,24.41h0ZM103.85,459.08c-2.78-17.75-8.76-34.1-16.93-49.72l-10.07-21.9c-1.47-7.25-5.45-15.03-3.62-22.49,1.92-7.82,6.76-14.45,8.36-22.75,9.45,16.25,24.06,28.52,42.41,33.71l-.18,6.53c.27,16.97-3.16,32.89-9.22,48.67l-10.75,27.96h0ZM405.09,449.9l-8.07-20.6c-5.2-13.27-7.98-26.96-8.39-41.22l-.35-12.19c18.23-5.03,33.13-17.42,42.3-33.66l6.94,18.08c.2,10.28-2.46,19.8-6.15,29.27l-10.21,20.38c-6.5,12.97-12.71,25.39-16.08,39.94h0Z"/>
  </g>
  <g>
    <polygon class="cls-1" points="332.97 337.76 334.58 335.82 327.84 366.51 298.21 386 332.97 337.76"/>
    <path class="cls-2" d="M332.67,339.88l-5.71,26.01-24.76,16.29,30.48-42.3M336.44,332.02l-4.29,5.15-37.93,52.65,34.51-22.7,7.71-35.1h0Z"/>
  </g>
  <g>
    <path class="cls-1" d="M185.39,410.95c1.67-25.33-.64-49.37-7.04-73.15,17.24,26.18,14.16,53.1,7.04,73.15Z"/>
    <path class="cls-2" d="M180.99,344.18c5.1,9.43,8.06,19.55,8.82,30.21.67,9.35-.35,18.99-3.04,28.81.69-20.26-1.23-39.76-5.79-59.02M175.8,332.47c8.32,28.06,10.79,55.75,8.05,85.18,12.04-28.45,11.86-58.91-8.05-85.18h0Z"/>
  </g>
  <g>
    <path class="cls-1" d="M304.75,298.02c16.3-8.88,30.73-20.37,43.94-34.98-1.34,7.93-5.04,15.35-11.24,22.58-9.61,10.08-23.95,12.16-32.7,12.4Z"/>
    <path class="cls-2" d="M346.93,266.43c-1.71,6.42-5.08,12.52-10.2,18.5-7.96,8.32-19.23,11.05-27.71,11.84,13.85-8.03,26.35-18.04,37.91-30.34M350.1,259.95c-14.25,16.29-30.05,29.15-49.36,39.06.73.02,1.46.03,2.2.03,12.66,0,26.37-3.44,35.27-12.77,6.3-7.35,10.96-16.02,11.88-26.32h0Z"/>
  </g>
  <g>
    <path class="cls-1" d="M401.19,244.06c-10.28-17.19-23.88-31.22-40.5-41.81,6.19,1.03,12.36,3.19,19.08,6.67,5.89,3.36,10.32,7.57,13.9,13.22,4.29,7.44,6.73,14.51,7.52,21.91Z"/>
    <path class="cls-2" d="M365.66,204.36c4.39,1.19,8.86,2.98,13.62,5.43,5.75,3.29,10.05,7.37,13.53,12.86,3.28,5.69,5.46,11.15,6.63,16.7-9.04-13.92-20.35-25.64-33.78-34.99M356.24,200.7c19.7,11.58,35.06,27.5,46.22,47.56-.23-9.85-3.19-18.4-7.95-26.65-3.75-5.92-8.42-10.23-14.28-13.58-7.44-3.85-15.11-6.64-23.99-7.33h0Z"/>
  </g>
  <g>
    <path class="cls-1" d="M111.19,244.19c.68-6.11,2.64-12.41,5.96-19.11,3.47-7.01,9.17-12.72,16.93-16.96,6.27-3.07,12.05-5,17.85-5.94-7.57,5.04-15.24,10.43-22.14,17.45-7.86,7.99-13.79,16.7-18.59,24.56Z"/>
    <path class="cls-2" d="M147.13,204.22c-6.13,4.23-12.43,8.99-18.06,14.71-6.54,6.64-11.74,13.77-16.08,20.5.99-4.47,2.66-9.08,5.05-13.91,3.42-6.91,8.81-12.31,16.47-16.51,4.4-2.16,8.54-3.74,12.62-4.8M156,200.68c-8.26.67-15.44,3.15-22.4,6.56-7.48,4.09-13.54,9.7-17.34,17.4-3.65,7.39-6.18,15.29-6.32,23.6,6.2-10.49,12.4-19.61,20.56-27.9,7.66-7.78,16.27-13.56,25.51-19.65h0Z"/>
  </g>
  <g>
    <path class="cls-1" d="M309.17,450.86c5.87-13.56,11.18-27.4,17.25-44.99.71,4.19,1.06,8.49,1.09,13.05.05,10.88-6.74,22.61-18.34,31.95Z"/>
    <path class="cls-2" d="M326.01,410.11c.32,2.85.49,5.78.5,8.81.05,9.53-5.35,19.76-14.73,28.38,4.79-11.32,9.28-23.05,14.22-37.19M326.69,402.01c-6.21,18.18-12.29,34.58-19.98,51.98,11.49-8.25,21.87-21.14,21.8-35.07-.03-5.76-.6-11.37-1.82-16.9h0Z"/>
  </g>
</svg>