<?xml version="1.0" encoding="UTF-8"?>
<svg id="katman_1" data-name="katman 1" xmlns="http://www.w3.org/2000/svg" viewBox="0 0 506.39 506.69">
  <defs>
    <style>
      .cls-1 {
        fill: #ffce00;
      }
    </style>
  </defs>
  <g>
    <path class="cls-1" d="M366.73,258.93c1-1.08,1.58-2.45,2.11-3.83l22.65-.56,11.95-.83-5.53-2.11-12.91-.22-15.93-.38c-.72-2.42-2.16-4.22-3.51-5.68-9.68-10.47-18.45-18.52-27.45-25.19l30.09-13.71c.33-.15,1.32-.62,1.17-1.6-.15-.98-1.21-1.11-1.55-1.16l-.29-.04-14.5,5.98-18.65,7.62c-9.52-6.65-18.03-11.64-26.6-15.6l8.73-8.93,31.43-32.32,7.48-8.24-1.58-1.55-13.26,12.6-13.97,13.54-17.87,17.56-5.4,5.44c-8.16-3.32-15.31-5.61-22.93-7.32l18.88-46.2c1.13-2.76,2.19-5.36,3.12-8.92l-2.09-.73-24.13,54.91c-6.83-1.23-13.78-1.93-20.67-2.11l-.79-67.86-.26-5.42-.19-9.57-2.52-1.91-.24,17.8-.66,46.9-.09,20.04c-6.75.2-13.64.91-20.49,2.12l-24.77-55.3-2.04.87,22.28,55.35c-7.56,1.79-14.86,4.13-22.81,7.32l-13.86-13.72-28.79-27.87-10.18-9.51-1.57,1.56,10.31,11.13,13.78,14.19,23.67,24.12,2.24,2.08c-9.07,4.37-17.76,9.49-26.51,15.61l-36.59-14.86-.9,2.02,16.66,8.06,16.97,7.69c-8.95,6.8-17.73,14.9-27.52,25.37-1.38,1.48-2.72,3.16-3.27,5.43l-19.34.43-17.68.46,7.81,2.02c1.07.28,2.4.62,3.31.64l25.98.53c.66,2.09,1.74,3.59,3.13,5.14,8.77,9.75,17.87,18.14,27.78,25.61l-34.81,15.75,1.7,2.2,23.02-9.39,14.03-5.74c7.67,5.85,15.97,10.8,25.97,15.49l-12.28,12.49-8.93,9.25-12.01,12.4-14.27,15.08,1.57,1.56,23.38-22.41,27.04-26.39c6.67,2.97,13.59,5.26,22.78,7.52l-5.99,14.61-15.38,38.37,1.96,1c1.8-2.85,3.03-5.67,4.46-8.95l19.32-44.1c7.4,1.41,14.03,2.14,20.69,2.27l.89,68.25.26,16.11,2.49-1.97.23-12.61,1.04-69.81c7.24-.16,14.12-.86,20.99-2.15l22.27,51.25c.19.49.65,1.63,1.7,1.56.45-.03,1.05-.29,1.3-1.35l.08-.34-15.66-39.09-5.37-13.01c7.13-1.66,14.36-3.98,22.59-7.25l49.13,47.97,2.56-1.37-8.96-9.47-38.19-39.29c8.5-3.99,16.85-8.95,26.09-15.48l36.52,14.53.87-2.04-33.48-15.44,6.69-5.42c8.24-6.68,15.44-14.29,22.1-21.51ZM345.17,252.89c-17.16,17.16-35.85,29.88-54.11,36.81h0c-12.18,4.77-24.8,7.15-37.5,7.15-12.18,0-24.43-2.19-36.42-6.58-19.39-7.14-37.28-19.06-56.22-37.5,9.77-9.46,19.94-17.51,31.08-24.6,10.79-6.87,22.05-11.84,34.44-15.2,20.4-5.53,41.92-4.6,62.23,2.69,19.7,7.08,37.68,18.92,56.52,37.22Z"/>
    <path d="M251.73,104.62l2.52,1.91.19,9.57.26,5.42.79,67.86c6.9.17,13.84.88,20.67,2.11l24.13-54.91,2.09.73c-.93,3.56-1.99,6.16-3.12,8.92l-18.88,46.2c7.62,1.71,14.78,4,22.93,7.32l5.4-5.44,17.87-17.56,13.97-13.54,13.26-12.6,1.58,1.55-7.48,8.24-31.43,32.32-8.73,8.93c8.57,3.96,17.07,8.95,26.6,15.6l18.65-7.62,14.5-5.98.29.04c.35.05,1.4.18,1.55,1.16.15.98-.84,1.45-1.17,1.6l-30.09,13.71c9,6.67,17.77,14.72,27.45,25.19,1.35,1.46,2.79,3.25,3.51,5.68l15.93.38,12.91.22,5.53,2.11-11.95.83-22.65.56c-.53,1.38-1.12,2.75-2.11,3.83-6.66,7.22-13.85,14.83-22.1,21.51l-6.69,5.42,33.48,15.44-.87,2.04-36.52-14.53c-9.25,6.54-17.59,11.49-26.09,15.48l38.19,39.29,8.96,9.47-2.56,1.37-49.13-47.97c-8.24,3.27-15.47,5.59-22.59,7.25l5.37,13.01,15.66,39.09-.08.34c-.25,1.06-.85,1.32-1.3,1.35-.03,0-.06,0-.1,0-.98,0-1.42-1.09-1.6-1.56l-22.27-51.25c-6.87,1.29-13.75,1.99-20.99,2.15l-1.04,69.81-.23,12.61-2.49,1.97-.26-16.11-.89-68.25c-6.66-.13-13.28-.86-20.69-2.27l-19.32,44.1c-1.43,3.27-2.66,6.1-4.46,8.95l-1.96-1,15.38-38.37,5.99-14.61c-9.19-2.26-16.11-4.54-22.78-7.52l-27.04,26.39-23.38,22.41-1.57-1.56,14.27-15.08,12.01-12.4,8.93-9.25,12.28-12.49c-9.99-4.69-18.3-9.65-25.97-15.49l-14.03,5.74-23.02,9.39-1.7-2.2,34.81-15.75c-9.91-7.46-19.01-15.85-27.78-25.61-1.39-1.55-2.47-3.05-3.13-5.14l-25.98-.53c-.91-.02-2.24-.36-3.31-.64l-7.81-2.02,17.68-.46,19.34-.43c.55-2.28,1.89-3.95,3.27-5.43,9.78-10.47,18.57-18.57,27.52-25.37l-16.97-7.69-16.66-8.06.9-2.02,36.59,14.86c8.75-6.12,17.44-11.24,26.51-15.61l-2.24-2.08-23.67-24.12-13.78-14.19-10.31-11.13,1.57-1.56,10.18,9.51,28.79,27.87,13.86,13.72c7.94-3.19,15.24-5.53,22.81-7.32l-22.28-55.35,2.04-.87,24.77,55.3c6.85-1.21,13.73-1.92,20.49-2.12l.09-20.04.66-46.9.24-17.8M253.56,296.85c12.69,0,25.31-2.38,37.49-7.15h0c18.26-6.94,36.95-19.66,54.11-36.81-18.84-18.3-36.82-30.14-56.52-37.22-11.59-4.16-23.58-6.26-35.52-6.26-8.99,0-17.95,1.18-26.71,3.56-12.39,3.36-23.66,8.34-34.44,15.2-11.13,7.09-21.31,15.14-31.08,24.6,18.94,18.43,36.83,30.36,56.22,37.5,11.99,4.39,24.24,6.58,36.42,6.58h0M251.72,102.62c-.3,0-.6.07-.88.2-.68.33-1.11,1.02-1.12,1.77l-.24,17.8-.66,46.9-.08,18.14c-5.72.25-11.52.86-17.3,1.82l-24.13-53.88c-.33-.74-1.06-1.18-1.83-1.18-.26,0-.53.05-.78.16l-2.04.87c-1,.43-1.48,1.58-1.07,2.59l21.42,53.21c-6.49,1.64-12.81,3.69-19.61,6.37l-12.93-12.8-28.81-27.89-10.2-9.54c-.38-.36-.88-.54-1.37-.54-.51,0-1.02.19-1.41.58l-1.57,1.56c-.76.76-.79,1.99-.06,2.78l10.31,11.13,13.81,14.23,23.68,24.13s.04.04.07.06l.11.1c-7.92,3.97-15.57,8.53-23.27,13.86l-35.59-14.45c-.25-.1-.5-.15-.75-.15-.77,0-1.5.44-1.83,1.19l-.9,2.02c-.44.99-.01,2.14.96,2.61l16.66,8.06s.03.01.05.02l13.95,6.32c-8.14,6.44-16.2,13.99-25.13,23.55-1.2,1.28-2.47,2.83-3.27,4.83l-17.92.4-17.69.46c-1,.03-1.82.78-1.94,1.77-.11.99.52,1.91,1.49,2.16l7.81,2.02c1.17.3,2.62.68,3.77.71l24.62.5c.82,1.88,1.93,3.28,3.04,4.51,8.08,8.98,16.41,16.8,25.4,23.82l-31.77,14.37c-.56.25-.97.74-1.12,1.34-.15.59-.02,1.22.36,1.71l1.7,2.2c.39.5.98.78,1.58.78.25,0,.51-.05.75-.15l23.02-9.39,12.98-5.31c6.89,5.15,14.24,9.59,22.88,13.81l-10.31,10.5-8.95,9.26-12,12.4-14.28,15.09c-.75.79-.73,2.03.04,2.79l1.57,1.56c.39.39.9.58,1.41.58s1-.18,1.38-.56l23.38-22.41,26.09-25.46c5.82,2.51,11.99,4.56,19.62,6.52l-5.12,12.47-15.38,38.39c-.38.96.03,2.05.95,2.52l1.96,1c.29.15.6.22.91.22.67,0,1.31-.33,1.69-.93,1.88-2.98,3.15-5.87,4.6-9.21l18.68-42.64c6.2,1.12,11.85,1.75,17.52,1.96l.87,66.33.26,16.11c.01.76.45,1.45,1.14,1.77.27.13.57.19.86.19.44,0,.88-.15,1.24-.43l2.49-1.97c.47-.37.75-.93.76-1.53l.23-12.61,1.01-67.9c6.11-.21,11.97-.82,17.82-1.84l21.63,49.76c.91,2.31,2.38,2.79,3.45,2.79.08,0,.15,0,.23,0,1.54-.11,2.7-1.18,3.11-2.88l.08-.34c.1-.4.07-.82-.09-1.21l-15.66-39.09-4.49-10.87c6.14-1.54,12.39-3.58,19.38-6.31l48.2,47.06c.38.37.89.57,1.4.57.32,0,.65-.08.94-.24l2.56-1.37c.55-.29.93-.83,1.03-1.44.1-.62-.09-1.24-.52-1.69l-8.96-9.47-36.27-37.32c7.48-3.69,14.87-8.14,22.99-13.82l35.52,14.13c.24.1.49.14.74.14.78,0,1.51-.46,1.84-1.21l.87-2.04c.43-1-.02-2.15-1-2.6l-30.57-14.09,4.2-3.4c8.35-6.76,15.6-14.43,22.31-21.71.91-.98,1.52-2.12,2-3.22l21.34-.53s.06,0,.09,0l11.95-.83c.94-.06,1.7-.77,1.84-1.7.14-.93-.39-1.83-1.27-2.16l-5.53-2.11c-.22-.08-.45-.13-.68-.13l-12.91-.22-14.55-.35c-.92-2.16-2.29-3.81-3.45-5.07-8.83-9.56-16.86-17.07-25.04-23.4l27.04-12.32c2.44-1.15,2.43-2.99,2.31-3.73-.12-.74-.66-2.49-3.27-2.83l-.29-.04c-.09-.01-.17-.02-.26-.02-.26,0-.52.05-.76.15l-14.5,5.98-17.64,7.2c-8.36-5.78-15.9-10.27-23.46-13.95l6.77-6.93,31.43-32.33s.03-.03.05-.05l7.48-8.24c.72-.8.69-2.02-.08-2.77l-1.58-1.55c-.39-.38-.89-.57-1.4-.57s-.99.18-1.38.55l-13.26,12.6-13.99,13.55-17.88,17.57-4.49,4.51c-6.98-2.79-13.19-4.8-19.71-6.39l17.99-44.03c1.15-2.82,2.24-5.48,3.2-9.17.26-1.01-.29-2.05-1.28-2.39l-2.09-.73c-.22-.08-.44-.11-.66-.11-.77,0-1.5.45-1.83,1.2l-23.5,53.48c-5.79-.97-11.66-1.58-17.49-1.81l-.77-65.94s0-.05,0-.07l-.26-5.39-.19-9.54c-.01-.61-.3-1.18-.79-1.55l-2.52-1.91c-.35-.27-.78-.41-1.21-.41h0ZM163.79,252.77c9.21-8.75,18.81-16.26,29.27-22.92,10.61-6.76,21.7-11.65,33.89-14.96,8.54-2.32,17.35-3.49,26.19-3.49,11.78,0,23.51,2.07,34.84,6.14,18.93,6.8,36.23,18.06,54.33,35.36-16.56,16.23-34.49,28.29-51.96,34.92-11.92,4.66-24.29,7.02-36.79,7.02v2s0-2,0-2c-12,0-24.02-2.17-35.74-6.46-18.63-6.86-35.84-18.2-54.02-35.61h0Z"/>
  </g>
  <g>
    <path class="cls-1" d="M243.02,488.44c-.44-1.81-1.99-2.93-4.24-3.06-30.04-1.74-58.69-9.12-85.14-21.95-11.67-5.66-21.2-11.14-30-17.23-9.72-6.74-17.52-12.82-24.53-19.13-.94-.85-2.1-1.29-3.19-1.23-.86.05-1.6.42-2.15,1.05-1.5,1.73-1.26,3.86.62,5.55,32.02,28.77,71.19,48.23,113.27,56.27,9.42,1.8,19.28,2.96,31.97,3.77.05,0,.1,0,.15,0,.84,0,1.7-.45,2.37-1.25.59-.7,1.12-1.8.88-2.79Z"/>
    <path d="M96.13,425.83c1.03,0,2.1.44,2.98,1.23,7.01,6.31,14.81,12.39,24.53,19.13,8.79,6.1,18.32,11.58,30,17.23,26.45,12.82,55.1,20.21,85.14,21.95,2.25.13,3.8,1.24,4.24,3.06.24.99-.3,2.09-.88,2.79-.67.8-1.52,1.25-2.37,1.25-.05,0-.1,0-.15,0-12.69-.81-22.55-1.97-31.97-3.77-42.09-8.05-81.26-27.5-113.27-56.27-1.88-1.69-2.12-3.82-.62-5.55.55-.63,1.29-.99,2.15-1.05.07,0,.14,0,.21,0M96.13,423.83c-.11,0-.22,0-.33,0-1.39.09-2.65.7-3.54,1.73-2.23,2.57-1.91,5.92.79,8.34,32.29,29.01,71.79,48.63,114.23,56.75,9.5,1.82,19.44,2.99,32.22,3.8.1,0,.19,0,.28,0,1.43,0,2.86-.72,3.9-1.96,1.16-1.39,1.65-3.09,1.29-4.55-.66-2.69-2.93-4.4-6.07-4.58-29.78-1.72-58.17-9.04-84.38-21.75-11.58-5.61-21.02-11.04-29.73-17.08-9.65-6.69-17.38-12.72-24.33-18.98-1.25-1.13-2.78-1.75-4.32-1.75h0Z"/>
  </g>
  <g>
    <path class="cls-1" d="M266.46,21.1c39.05,1.79,76.38,13.7,110.95,35.41,11.55,7.25,21.45,15.43,30.42,23.19.53.46,1.22.7,1.97.7.15,0,.3,0,.46-.03,1.06-.13,2.11-.71,2.61-1.43.99-1.42.66-3.54-.75-4.84-30.45-27.89-69.87-47.73-111-55.86-12.31-2.43-23.28-3.71-34.51-4.02-.03,0-.06,0-.09,0-1.91,0-3.31,1.73-3.37,3.33-.06,1.64,1.25,3.46,3.3,3.56Z"/>
    <path d="M266.53,14.22s.06,0,.09,0c11.23.31,22.19,1.59,34.51,4.02,41.13,8.13,80.56,27.97,111,55.86,1.41,1.29,1.74,3.42.75,4.84-.5.72-1.55,1.29-2.61,1.43-.15.02-.31.03-.46.03-.76,0-1.44-.24-1.97-.7-8.98-7.76-18.87-15.93-30.42-23.19-34.57-21.71-71.9-33.62-110.95-35.41-2.05-.09-3.37-1.91-3.3-3.56.06-1.59,1.46-3.33,3.37-3.33M266.53,12.22c-3.09,0-5.27,2.71-5.37,5.25-.1,2.6,1.97,5.48,5.21,5.63,38.7,1.77,75.71,13.58,109.98,35.1,11.44,7.18,21.26,15.3,30.18,23,.89.77,2.05,1.19,3.28,1.19.23,0,.47-.02.71-.04,1.64-.2,3.17-1.07,4-2.27,1.55-2.22,1.1-5.5-1.04-7.46-30.71-28.14-70.48-48.15-111.97-56.35-12.42-2.45-23.49-3.74-34.84-4.06h-.14Z"/>
  </g>
  <g>
    <path class="cls-1" d="M76.96,413.13c.86,0,1.69-.27,2.26-.76.67-.56,1.1-1.47,1.17-2.43.08-1.04-.27-2.04-.97-2.84h0c-35.42-40.11-54.95-87.22-58.05-140.03-.06-1.1-.49-2.02-1.22-2.66-.7-.6-1.63-.89-2.63-.8-1.58.14-3.21,1.63-3.1,3.82,2.76,54.12,23.42,104.1,59.76,144.51.73.82,1.77,1.18,2.77,1.18Z"/>
    <path d="M17.88,263.6c.87,0,1.67.28,2.28.82.73.63,1.15,1.55,1.22,2.66,3.1,52.8,22.63,99.92,58.05,140.03h0c.7.79,1.04,1.8.97,2.84-.07.96-.51,1.87-1.17,2.43-.58.49-1.41.76-2.26.76-1,0-2.03-.37-2.77-1.18-36.33-40.42-57-90.39-59.76-144.51-.11-2.18,1.52-3.68,3.1-3.82.12,0,.23-.01.34-.01M17.88,261.6c-.17,0-.34,0-.51.02-2.5.21-5.1,2.53-4.93,5.91,2.78,54.59,23.62,104.99,60.27,145.75,1.05,1.17,2.6,1.84,4.25,1.84,1.35,0,2.62-.44,3.56-1.23,1.08-.92,1.77-2.31,1.88-3.81.12-1.58-.4-3.11-1.46-4.3-35.12-39.77-54.48-86.47-57.55-138.82-.1-1.66-.76-3.06-1.91-4.05-.97-.84-2.25-1.3-3.59-1.3h0Z"/>
  </g>
  <g>
    <path class="cls-1" d="M95.82,80.39c.15.02.3.03.44.03.84,0,1.63-.3,2.26-.87,39.45-35.26,89.8-56.03,141.74-58.47,1.8-.08,2.74-2.33,2.73-3.51,0-.76-.44-1.97-1.23-2.73-.5-.47-1.08-.72-1.68-.69-46.76,1.97-91.63,18.09-129.77,46.64l-15.91,13.02c-1.83,1.49-2.28,3.43-1.19,5.06.54.8,1.56,1.4,2.6,1.53Z"/>
    <path d="M240.19,14.14c.56,0,1.11.24,1.58.69.8.76,1.23,1.97,1.23,2.73,0,1.18-.93,3.43-2.73,3.51-51.95,2.44-102.29,23.21-141.74,58.47-.64.57-1.43.87-2.26.87-.15,0-.29,0-.44-.03-1.04-.13-2.07-.73-2.6-1.53-1.09-1.63-.64-3.57,1.19-5.06l15.91-13.02c38.14-28.54,83.02-44.67,129.77-46.64.03,0,.07,0,.1,0M240.19,12.14c-.07,0-.13,0-.2,0-47.15,1.98-92.41,18.25-130.87,47.03-.02.02-.05.03-.07.05l-15.91,13.02c-2.61,2.14-3.25,5.24-1.58,7.72.86,1.28,2.4,2.2,4.02,2.4.23.03.46.04.69.04,1.32,0,2.6-.49,3.6-1.38,39.11-34.96,89.01-55.55,140.51-57.96,3-.14,4.65-3.35,4.64-5.52,0-1.2-.58-2.95-1.85-4.17-.84-.8-1.89-1.24-2.96-1.24h0Z"/>
  </g>
  <g>
    <path class="cls-1" d="M429.11,93.26c-1.19.18-2.32.92-2.75,1.78-.79,1.61-.55,3.2.69,4.58,35,38.83,55.56,88.56,57.88,140.02.05.99.44,1.85,1.14,2.48.67.6,1.56.93,2.47.93.08,0,.16,0,.24,0,.93-.06,1.73-.45,2.31-1.12.67-.78,1-1.88.9-3.11-.8-10.47-1.77-21.65-4.05-33.08-2.24-11.22-4.8-20.84-8.06-30.25-7.04-20.34-16.61-39.36-28.42-56.54-6.75-9.81-13.12-17.77-20.05-25.03-.55-.58-1.37-.82-2.31-.67Z"/>
    <path d="M429.63,93.21c.72,0,1.34.25,1.79.72,6.93,7.27,13.3,15.22,20.05,25.03,11.81,17.18,21.37,36.2,28.42,56.54,3.26,9.41,5.82,19.02,8.06,30.25,2.28,11.43,3.25,22.61,4.05,33.08.09,1.23-.23,2.33-.9,3.11-.58.67-1.38,1.06-2.31,1.12-.08,0-.16,0-.24,0-.91,0-1.8-.33-2.47-.93-.7-.63-1.1-1.49-1.14-2.48-2.32-51.46-22.88-101.19-57.88-140.02-1.24-1.38-1.48-2.96-.69-4.58.43-.87,1.56-1.6,2.75-1.78.18-.03.35-.04.52-.04M429.63,91.21c-.27,0-.55.02-.83.06-1.85.28-3.51,1.41-4.24,2.88-1.15,2.34-.79,4.82,1,6.8,34.7,38.49,55.07,87.78,57.37,138.78.07,1.52.71,2.9,1.81,3.88,1.04.93,2.39,1.44,3.81,1.44.12,0,.24,0,.36-.01,1.46-.09,2.77-.73,3.7-1.8,1.03-1.18,1.52-2.81,1.39-4.57-.81-10.53-1.78-21.78-4.09-33.32-2.26-11.32-4.84-21.01-8.13-30.51-7.1-20.5-16.75-39.69-28.66-57.01-6.81-9.9-13.24-17.93-20.25-25.28-.82-.86-1.97-1.34-3.24-1.34h0Z"/>
  </g>
  <g>
    <path class="cls-1" d="M411.77,426.29c-1.67-.9-3.44-.57-4.65.83-39.13,35.26-88.93,55.96-140.25,58.28-2,.09-3.55,1.44-3.68,3.21-.13,1.77,1.13,3.32,3.07,3.76l.14.03h.15c37.87-1.5,74.46-12.58,108.76-32.94l19.63-13.3c5.96-4.04,11.62-8.76,17.82-14.86.57-.56.8-1.38.67-2.32-.16-1.15-.85-2.26-1.67-2.69Z"/>
    <path d="M409.88,425.78c.62,0,1.26.16,1.89.5.82.44,1.5,1.55,1.67,2.69.14.94-.1,1.76-.67,2.32-6.2,6.1-11.86,10.82-17.82,14.86l-19.63,13.3c-34.3,20.36-70.9,31.45-108.76,32.94h-.15s-.14-.03-.14-.03c-1.94-.44-3.21-1.99-3.07-3.76.13-1.77,1.68-3.12,3.68-3.21,51.32-2.32,101.12-23.02,140.25-58.28.75-.88,1.73-1.33,2.76-1.33M409.88,423.78c-1.59,0-3.07.68-4.18,1.93-38.77,34.91-88.1,55.39-138.91,57.69-3.03.14-5.38,2.27-5.59,5.06-.21,2.78,1.69,5.19,4.63,5.86l.14.03c.15.03.29.05.44.05.03,0,.05,0,.08,0h.15c38.21-1.51,75.12-12.69,109.71-33.22.03-.02.07-.04.1-.06l19.63-13.3c6.06-4.11,11.81-8.9,18.1-15.09,1.02-1,1.47-2.47,1.25-4.03-.26-1.79-1.32-3.43-2.7-4.17-.91-.49-1.87-.74-2.83-.74h0Z"/>
  </g>
  <g>
    <path class="cls-1" d="M17.56,243.05c.1,0,.19.01.29.01.8,0,1.56-.28,2.16-.79.51-.44,1.14-1.25,1.25-2.64,1.04-14.19,2.36-24.54,4.41-34.58,8.05-39.39,26.76-76.14,54.11-106.29.62-.68.78-1.66.47-2.76-.29-1.03-1.08-2.27-2.11-2.57-1.61-.46-3.25.09-4.52,1.53-7.03,7.98-13.29,15.99-19.14,24.51-24.37,35.42-38.2,76.68-40.01,119.32-.11,2.65.93,4.09,3.1,4.27Z"/>
    <path d="M77.02,93.28c.37,0,.74.05,1.11.16,1.04.3,1.82,1.54,2.11,2.57.31,1.1.14,2.08-.47,2.76-27.35,30.15-46.06,66.91-54.11,106.29-2.05,10.05-3.37,20.39-4.41,34.58-.1,1.39-.73,2.2-1.25,2.64-.6.52-1.36.79-2.16.79-.1,0-.19,0-.29-.01-2.17-.18-3.21-1.62-3.1-4.27,1.81-42.64,15.64-83.9,40.01-119.32,5.86-8.51,12.12-16.53,19.14-24.51.97-1.1,2.17-1.69,3.4-1.69M77.02,91.28c-1.82,0-3.56.84-4.9,2.37-7.08,8.04-13.39,16.12-19.29,24.7-24.58,35.73-38.54,77.35-40.36,120.36-.16,3.7,1.68,6.07,4.93,6.34.15.01.3.02.46.02,1.27,0,2.5-.45,3.46-1.27.8-.68,1.79-1.94,1.94-4.01,1.03-14.1,2.34-24.37,4.38-34.33,7.98-39.04,26.52-75.47,53.63-105.35,1.08-1.19,1.41-2.89.91-4.65-.42-1.48-1.58-3.4-3.48-3.94-.55-.16-1.11-.24-1.67-.24h0Z"/>
  </g>
  <g>
    <path class="cls-1" d="M488.27,263.61c-1.92.08-3.29,1.59-3.41,3.77-1.94,37.2-13.07,73.49-32.19,104.93-7.28,11.97-15.7,23.28-25.76,34.6-1.59,1.78-1.62,3.91-.09,5.29.61.55,1.4.84,2.24.84.09,0,.18,0,.27,0,1.11-.08,2.19-.66,2.96-1.59l11.18-13.49c14.52-18.62,26.04-39.25,34.25-61.3,8.25-22.16,12.99-45.31,14.07-68.8.07-1.42-.3-2.58-1.06-3.34-.63-.63-1.47-.94-2.46-.9Z"/>
    <path d="M488.43,263.61c.92,0,1.7.31,2.3.91.76.77,1.13,1.92,1.06,3.34-1.09,23.49-5.82,46.64-14.07,68.8-8.21,22.05-19.73,42.67-34.25,61.3l-11.18,13.49c-.77.93-1.85,1.51-2.96,1.59-.09,0-.18,0-.27,0-.85,0-1.63-.29-2.24-.84-1.53-1.38-1.49-3.5.09-5.29,10.06-11.31,18.49-22.63,25.76-34.6,19.12-31.44,30.25-67.73,32.19-104.93.11-2.18,1.48-3.69,3.41-3.77.05,0,.11,0,.16,0M488.43,261.61c-.08,0-.15,0-.23,0-2.97.12-5.16,2.45-5.33,5.67-1.92,36.87-12.96,72.83-31.91,104-7.21,11.86-15.57,23.08-25.55,34.31-2.3,2.59-2.27,6,.06,8.1.97.88,2.24,1.36,3.58,1.36.14,0,.27,0,.41-.01,1.65-.12,3.24-.96,4.36-2.31l11.18-13.49s.03-.03.04-.05c14.64-18.78,26.26-39.59,34.55-61.83,8.32-22.35,13.1-45.71,14.2-69.41.09-2-.48-3.67-1.64-4.85-.97-.98-2.26-1.5-3.72-1.5h0Z"/>
  </g>
  <g>
    <path class="cls-1" d="M75.84,79.57l10.25,10.47c-1.57,1.42-2.27,2.78-2.07,4.04.1.66.68,1.19,1.62,1.49.56.18,1.6.38,2.23-.26l1.2-1.23c-2,3.79-1.27,8.35,2.04,11.8.58.61,1.35.95,2.11.95h.01c.66,0,1.28-.27,1.73-.75,1.27-1.35.16-2.86-.66-3.96-1.1-1.49-2.24-3.03-1.16-5.29l4.27,4.11c.8.77,2.08.31,2.46.16,1.18-.49,1.37-1.23,1.37-1.62.01-.74-.4-1.78-.92-2.32l-3.68-3.79c2.27-.94,3.71.14,5.1,1.18,1,.75,2.03,1.52,3.24,1.16.91-.27,1.35-1.38,1.47-1.72.31-.91.1-1.48-.13-1.8-2.81-3.84-8.25-4.96-12.52-2.74l1.23-1.18c.54-.52.56-1.34.52-1.79-.04-.46-.21-1.3-.86-1.73-.89-.59-2.52-.25-3.18.28l-1.83,1.46-10.22-10.49c2.59-4.11,1.83-9.19-2.03-12.91-.64-.62-1.69-.78-2.39-.73-.7.05-1.25.31-1.59.75-1.07,1.38.03,2.83.91,3.99,1.16,1.54,2.36,3.13,1.31,5.36l-4.4-4.4c-.73-.73-2.06-.46-2.31-.39-.94.22-1.29.72-1.41,1.1-.23.69-.13,2.19.54,2.88l4.11,4.25c-2.17.73-4.25-.25-5.51-1.75-.57-.68-1.67-.86-2.51-.73-.99.16-1.36.71-1.48,1.02-.34.85-.05,2.22.44,2.83,3.15,4.01,8.27,4.89,12.71,2.29Z"/>
    <path d="M75.3,62.35c.68,0,1.57.19,2.13.74,3.86,3.71,4.62,8.79,2.03,12.91l10.22,10.49,1.83-1.46c.41-.33,1.21-.59,1.97-.59.45,0,.88.09,1.21.31.65.43.81,1.27.86,1.73.04.44.02,1.26-.52,1.79l-1.23,1.18c1.46-.76,3.06-1.13,4.65-1.13,3.04,0,6.02,1.35,7.87,3.87.23.31.44.88.13,1.8-.11.34-.55,1.45-1.47,1.72-.21.06-.41.09-.61.09-.95,0-1.8-.63-2.62-1.25-1.02-.76-2.06-1.54-3.43-1.54-.51,0-1.06.11-1.67.36l3.68,3.79c.52.53.93,1.57.92,2.32,0,.4-.19,1.13-1.37,1.62-.21.09-.73.28-1.28.28-.41,0-.84-.1-1.18-.43l-4.27-4.11c-1.08,2.26.06,3.8,1.16,5.29.81,1.1,1.93,2.61.66,3.96-.45.48-1.07.75-1.73.75h-.01c-.76,0-1.53-.35-2.11-.95-3.3-3.45-4.03-8.01-2.04-11.8l-1.2,1.23c-.33.33-.76.44-1.19.44-.39,0-.78-.09-1.05-.18-.94-.3-1.51-.83-1.62-1.49-.2-1.27.49-2.62,2.07-4.04l-10.25-10.47c-1.69.99-3.47,1.47-5.21,1.47-2.83,0-5.54-1.28-7.49-3.77-.48-.61-.78-1.98-.44-2.83.13-.32.49-.87,1.48-1.02.17-.03.35-.04.53-.04.73,0,1.52.22,1.98.77.97,1.16,2.42,2,4.02,2,.49,0,.99-.08,1.49-.25l-4.11-4.25c-.67-.69-.77-2.19-.54-2.88.12-.38.47-.87,1.41-1.1.12-.03.46-.1.87-.1.48,0,1.05.1,1.45.49l4.4,4.4c1.05-2.23-.15-3.82-1.31-5.36-.88-1.16-1.97-2.61-.91-3.99.34-.44.89-.7,1.59-.75.08,0,.17,0,.26,0M75.3,60.35c-.14,0-.28,0-.4.01-1.26.09-2.34.63-3.02,1.52-1.05,1.37-1.01,2.73-.59,3.9-.44-.15-.93-.22-1.46-.22-.6,0-1.1.1-1.34.16-1.93.46-2.61,1.71-2.84,2.42-.26.79-.32,2.12.09,3.33-.33-.06-.67-.09-1.01-.09-.29,0-.57.02-.84.07-1.44.23-2.54,1.05-3.03,2.25-.65,1.61-.15,3.72.72,4.82,2.3,2.92,5.52,4.53,9.06,4.53,1.62,0,3.26-.35,4.81-1.03l7.89,8.06c-1.08,1.42-1.51,2.87-1.28,4.32.23,1.42,1.32,2.55,2.99,3.08.33.1.66.18.97.22-.23,3.37,1.03,6.82,3.66,9.56.95,1,2.25,1.57,3.55,1.57,1.23,0,2.36-.49,3.19-1.38,1.38-1.47,1.28-3.04.78-4.32.43.16.9.25,1.4.25.88,0,1.66-.27,2.04-.43,1.61-.67,2.58-1.96,2.6-3.44,0-.63-.14-1.33-.39-1.98.47.17.97.28,1.52.28.4,0,.8-.06,1.18-.17,1.79-.53,2.55-2.27,2.79-3,.61-1.82,0-3.05-.41-3.62-2.15-2.94-5.7-4.69-9.48-4.69-.3,0-.61.01-.91.03,0-.02,0-.03,0-.05-.13-1.42-.75-2.56-1.74-3.22-.64-.42-1.44-.65-2.32-.65-1.19,0-2.42.39-3.21,1.02l-.42.33-7.93-8.15c2.17-4.68,1.03-10.03-3.1-14.01-1.21-1.17-2.87-1.3-3.52-1.3h0Z"/>
  </g>
  <g>
    <path class="cls-1" d="M430.23,426.84l-10.3-10.61,1.51-1.36c.62-.56.8-1.6.71-2.4-.11-.92-.54-1.34-.89-1.53-.72-.4-2.44-.42-3.2.3l-.67.63c1.74-3.86.88-8.05-2.37-11.36-.57-.57-1.57-.79-2.31-.75-.69.04-1.23.28-1.56.71-.74.94-.35,2.95.48,3.65,1.17,1,1.91,2.5,1.95,3.91.01.5-.06,1.14-.4,1.78l-3.93-4.19c-.51-.55-1.32-.62-1.91-.58-.52.03-1.45.19-1.93.85-.67.92-.31,2.68.43,3.42l3.68,3.66c-1.87.7-4.13.53-5.69-1.85l-.27-.42-.49-.07c-.4-.06-2.51-.11-3.06,1.12-.37.84-.01,1.95.48,2.62,2.7,3.71,7.27,4.77,11.44,2.87-.28.26-1.25,1.2-1.45,2.1-.15.71.23,1.39.48,1.74.26.36.8.98,1.55,1.07.74.09,2.06-.41,2.57-.97l1.26-1.35,10.52,10.61c-1.7,2.65-1.96,5.97-.66,9.08,1.06,2.53,2.93,4.29,4.75,4.47.05,0,.1,0,.15,0,.64,0,1.17-.42,1.44-.68.25-.24.82-.89.77-1.66-.07-.93-.72-1.71-1.42-2.53-1.19-1.4-2.41-2.83-1.45-5.21l4.04,4.09c.53.54,1.45.86,2.29.8.62-.05,1.14-.31,1.45-.75.73-1.02.44-2.66-.32-3.45l-3.99-4.16c2.24-.95,3.73.21,5.19,1.33,1.11.86,2.49,1.94,3.85.83.48-.39.77-1.01.83-1.76.06-.77-.14-1.48-.56-1.95-3.37-3.75-8.38-4.52-12.97-2.06Z"/>
    <path d="M412.89,399.76c.72,0,1.61.22,2.13.75,3.25,3.3,4.11,7.5,2.37,11.36l.67-.63c.43-.41,1.16-.57,1.85-.57.53,0,1.04.1,1.35.27.35.19.78.61.89,1.53.09.79-.09,1.84-.71,2.4l-1.51,1.36,10.3,10.61c1.78-.95,3.61-1.42,5.4-1.42,2.83,0,5.51,1.18,7.57,3.48.42.47.62,1.18.56,1.95-.06.75-.35,1.38-.83,1.76-.41.34-.83.47-1.24.47-.94,0-1.84-.7-2.61-1.3-1.07-.83-2.17-1.69-3.58-1.69-.49,0-1.02.1-1.61.35l3.99,4.16c.75.79,1.05,2.43.32,3.45-.31.43-.83.7-1.45.75-.07,0-.15,0-.22,0-.77,0-1.58-.31-2.06-.8l-4.04-4.09c-.96,2.38.26,3.81,1.45,5.21.7.82,1.35,1.59,1.42,2.53.06.77-.52,1.42-.77,1.66-.27.26-.8.68-1.44.68-.05,0-.1,0-.15,0-1.82-.18-3.69-1.94-4.75-4.47-1.3-3.11-1.05-6.44.66-9.08l-10.52-10.61-1.26,1.35c-.48.51-1.63.98-2.39.98-.07,0-.13,0-.19-.01-.75-.09-1.29-.71-1.55-1.07-.24-.34-.63-1.03-.48-1.74.2-.91,1.17-1.85,1.45-2.1-1.36.62-2.76.93-4.13.93-2.82,0-5.49-1.3-7.3-3.8-.49-.67-.85-1.78-.48-2.62.43-.97,1.85-1.14,2.61-1.14.2,0,.36.01.44.02l.49.07.27.42c1.05,1.61,2.43,2.21,3.8,2.21.65,0,1.29-.13,1.89-.36l-3.68-3.66c-.74-.74-1.1-2.5-.43-3.42.48-.66,1.41-.81,1.93-.85.08,0,.17,0,.26,0,.55,0,1.21.12,1.65.59l3.93,4.19c.34-.64.41-1.28.4-1.78-.04-1.42-.78-2.92-1.95-3.91-.83-.71-1.21-2.71-.48-3.65.33-.43.87-.67,1.56-.71.06,0,.12,0,.18,0M412.89,397.76h0c-.1,0-.2,0-.29,0-1.26.07-2.34.59-3.03,1.47-.84,1.08-.98,2.61-.64,3.97-.39-.11-.83-.17-1.34-.17-.13,0-.26,0-.38.01-1.5.09-2.72.69-3.43,1.67-.79,1.1-.89,2.6-.52,3.91-.22-.03-.46-.03-.63-.03-2.17,0-3.79.85-4.44,2.33-.74,1.68-.09,3.53.69,4.61,2.13,2.94,5.39,4.62,8.92,4.62.23,0,.45,0,.68-.02.09.71.38,1.42.85,2.09.77,1.09,1.82,1.76,2.94,1.9.13.02.27.03.43.03,1.23,0,2.8-.63,3.68-1.45l8.01,8.08c-1.34,2.93-1.37,6.32-.04,9.5,1.36,3.25,3.81,5.43,6.39,5.69.11.01.23.02.35.02,1,0,2.01-.44,2.84-1.25.95-.92,1.45-2.1,1.37-3.24-.02-.31-.08-.61-.16-.89.45.13.93.2,1.41.2.13,0,.26,0,.38-.02,1.21-.09,2.25-.65,2.91-1.57.95-1.33.99-3.01.49-4.37.43.15.88.24,1.37.24.9,0,1.76-.32,2.5-.92.9-.74,1.46-1.86,1.56-3.16.1-1.31-.28-2.57-1.07-3.44-2.4-2.67-5.62-4.15-9.06-4.15-1.67,0-3.34.34-4.96,1l-7.86-8.1c1.2-1.1,1.47-2.83,1.33-4.09-.22-1.86-1.29-2.71-1.91-3.05-.67-.37-1.44-.48-1.98-.51.24-3.4-1.06-6.79-3.79-9.56-.83-.85-2.16-1.35-3.56-1.35h0Z"/>
  </g>
  <g>
    <path class="cls-1" d="M412.49,84.25c-.48.07-1.16.36-1.68,1.32-.85,1.57.5,2.87,1.39,3.74.04.03.07.07.11.11-2.76-1.49-6.1-1.46-9.12.11-1.55.81-3.38,2.29-3.41,3.78-.01.68.44,1.36.84,1.75.52.51,1.01.6,1.33.58.84-.04,1.59-.57,2.44-1.18,1.52-1.09,3.08-2.21,5.26-.97l-4,4.05c-.58.59-.58,1.54-.55,1.92.04.49.2,1.15.73,1.53.69.5,2.46.49,3.15-.17l3.96-3.87c1.19,2.3.06,3.81-1.04,5.27-.71.94-1.38,1.84-1.12,2.88.19.78,1.2,1.67,2.14,1.67.06,0,.12,0,.17-.01,1.54-.19,3.12-1.76,4.13-4.09,1.15-2.67,1.22-5.51.24-7.95.61.54,1.54,1.04,2.2,1.16.9.16,1.62-.63,1.96-1.12.58-.83.71-1.61.37-2.19-.45-.78-1.26-1.66-2.09-2.5l10.46-10.52c1.77,1.15,3.86,1.65,5.97,1.42,2.69-.29,5.24-1.74,7-3.96.63-.79.61-2.53-.26-3.23-1.36-1.1-2.75-.03-3.76.75-1.35,1.04-2.85,2.19-5.26,1.29l4.19-4.19c.81-.81.82-2.66.03-3.48-.81-.83-2.75-.54-3.42.1l-4.4,4.22c-.94-2.23.15-4.36,1.85-5.63.82-.61.87-1.8.86-2.15,0-.51-.12-1.43-.83-1.92-1.12-.78-2.97-.17-3.71.58-3.65,3.7-4.29,8.6-1.76,12.96l-10.35,9.98c-.09.09-.17.16-.23.22-.17-.15-.35-.32-.53-.5-.93-.9-2-1.92-3.26-1.73Z"/>
    <path d="M431.07,62.37c.46,0,.91.11,1.28.36.71.49.82,1.42.83,1.92,0,.35-.04,1.55-.86,2.15-1.7,1.26-2.79,3.4-1.85,5.63l4.4-4.22c.38-.36,1.16-.61,1.92-.61.58,0,1.15.15,1.51.51.8.82.78,2.67-.03,3.48l-4.19,4.19c.61.23,1.17.33,1.68.33,1.49,0,2.58-.84,3.59-1.61.7-.54,1.58-1.22,2.51-1.22.41,0,.83.13,1.25.47.87.7.89,2.44.26,3.23-1.76,2.22-4.32,3.66-7,3.96-.34.04-.67.05-1,.05-1.76,0-3.48-.51-4.96-1.47l-10.46,10.52c.83.84,1.64,1.72,2.09,2.5.34.59.21,1.36-.37,2.19-.31.44-.93,1.14-1.72,1.14-.08,0-.16,0-.24-.02-.67-.12-1.59-.62-2.2-1.16.97,2.45.91,5.29-.24,7.95-1.01,2.33-2.59,3.9-4.13,4.09-.06,0-.12.01-.17.01-.93,0-1.95-.89-2.14-1.67-.25-1.04.41-1.94,1.12-2.88,1.1-1.46,2.23-2.97,1.04-5.27l-3.96,3.87c-.37.36-1.06.53-1.72.53-.57,0-1.11-.12-1.43-.35-.53-.39-.69-1.05-.73-1.53-.03-.38-.04-1.33.55-1.92l4-4.05c-.68-.39-1.3-.54-1.87-.54-1.27,0-2.34.77-3.39,1.52-.86.62-1.6,1.15-2.44,1.18-.02,0-.04,0-.06,0-.32,0-.78-.11-1.27-.58-.39-.38-.85-1.07-.84-1.75.03-1.49,1.85-2.97,3.41-3.78,1.54-.81,3.17-1.21,4.76-1.21,1.52,0,3.01.37,4.36,1.09-.04-.04-.08-.08-.11-.11-.89-.86-2.25-2.17-1.39-3.74.52-.96,1.2-1.24,1.68-1.32.11-.02.21-.02.32-.02,1.13,0,2.09.93,2.95,1.75.18.17.36.35.53.5.07-.06.14-.13.23-.22l10.35-9.98c-2.53-4.36-1.89-9.26,1.76-12.96.49-.5,1.49-.94,2.43-.94M431.07,60.37s0,0,0,0c-1.4,0-2.95.62-3.86,1.54-3.88,3.93-4.89,9.16-2.79,13.95l-8.16,7.87c-.9-.77-2.03-1.5-3.46-1.5-.21,0-.42.02-.62.05-1.31.2-2.42,1.03-3.13,2.34-.33.6-.48,1.18-.52,1.73-.19,0-.39-.01-.58-.01-1.93,0-3.89.5-5.69,1.43-1.04.54-4.42,2.54-4.48,5.52-.03,1.65,1.09,2.88,1.44,3.22.98.95,1.99,1.15,2.67,1.15.05,0,.1,0,.14,0,.51-.02.97-.13,1.4-.3-.37.91-.36,1.82-.32,2.27.1,1.28.65,2.34,1.54,2.99.88.64,2.01.74,2.61.74.44,0,1.11-.05,1.79-.29-.3.74-.44,1.58-.21,2.52.42,1.73,2.29,3.2,4.08,3.2.14,0,.28,0,.42-.03,2.27-.28,4.41-2.26,5.72-5.28.79-1.82,1.15-3.72,1.08-5.57,1.18-.08,2.28-.78,3.13-1.99,1.04-1.48,1.21-3.06.47-4.34-.28-.49-.65-.98-1.05-1.45l8.05-8.1c1.44.66,3,1,4.6,1,.41,0,.82-.02,1.22-.07,3.22-.35,6.26-2.07,8.36-4.7,1.22-1.54,1.24-4.58-.58-6.04-.74-.6-1.61-.91-2.5-.91-.44,0-.85.07-1.24.19.54-1.6.25-3.58-.89-4.75-.7-.72-1.74-1.12-2.94-1.12-.51,0-1.13.08-1.72.27.11-.51.13-.96.12-1.25-.02-1.53-.62-2.79-1.68-3.53-.68-.47-1.51-.72-2.42-.72h0Z"/>
  </g>
  <g>
    <path class="cls-1" d="M93.75,422.1c.93-.13,1.34-.58,1.53-.92.4-.75.43-2.48-.35-3.25l-.83-.82c5.09,2.28,9.69-.12,11.46-2.25.99-1.2,1.2-2.42.54-3.25-1.42-1.8-3.09-.56-4.09.18-1.33.99-2.82,2.1-5.39,1.09.68-.74,1.47-1.41,2.19-2.02,1.63-1.38,3.67-3.11,2.08-4.99-.49-.58-1.31-.7-1.75-.73-.32-.01-1.43-.02-2.1.64l-3.81,3.73c-1.04-2.13,0-3.47,1.07-4.88.81-1.05,1.64-2.14,1.22-3.44-.23-.72-1.07-1.36-1.75-1.57-.72-.22-1.19.05-1.41.22l-1.36,1.09-.09.08c-3.09,3.11-3.76,7.49-1.85,11.17l-1.78-1.45c-.77-.63-1.89-.14-2.33.1-1.06.57-1.23,1.25-1.18,1.71,0,.01.17,1.45.78,2.1l1.7,1.77-10.49,10.43c-4.29-2.52-9.07-1.79-12.64,2.01-.81.87-.8,2.76.04,3.68,1.16,1.28,2.62.1,3.59-.67,1.49-1.19,3.15-2.53,5.44-1.37l-4.05,4.1c-.71.72-.79,2.11-.57,2.8.12.39.48.9,1.5,1.15.46.11,1.62.31,2.28-.36l4.43-4.45c.33.59.47,1.25.43,1.97-.09,1.51-1.05,3.2-2.38,4.2-.85.64-.82,2.11-.61,2.76.25.76.83,1.04,1.29,1.04l1.94.03.3-.23c4.41-3.28,5.44-8.63,2.67-13.27l10.32-10.4,1.68,1.7c.57.58,1.61.66,2.32.56Z"/>
    <path d="M93.25,399.55c.16,0,.33.02.52.08.68.21,1.52.85,1.75,1.57.42,1.31-.42,2.39-1.22,3.44-1.08,1.41-2.11,2.75-1.07,4.88l3.81-3.73c.59-.58,1.52-.65,1.95-.65.06,0,.11,0,.15,0,.44.02,1.26.14,1.75.73,1.58,1.89-.45,3.61-2.08,4.99-.72.61-1.51,1.28-2.19,2.02.72.28,1.35.4,1.93.4,1.46,0,2.5-.77,3.46-1.49.62-.46,1.49-1.11,2.41-1.11.56,0,1.14.24,1.68.93.66.83.45,2.04-.54,3.25-1.26,1.52-3.96,3.18-7.25,3.18-1.33,0-2.75-.27-4.21-.92l.83.82c.78.77.75,2.5.35,3.25-.19.35-.6.79-1.53.92-.16.02-.35.04-.54.04-.63,0-1.34-.15-1.78-.6l-1.68-1.7-10.32,10.4c2.77,4.64,1.73,9.99-2.67,13.27l-.3.23-1.94-.03c-.46,0-1.04-.29-1.29-1.04-.21-.65-.25-2.12.61-2.76,1.33-1,2.29-2.69,2.38-4.2.05-.72-.1-1.38-.43-1.97l-4.43,4.45c-.37.37-.9.48-1.37.48-.37,0-.71-.07-.92-.12-1.02-.25-1.38-.76-1.5-1.15-.22-.69-.14-2.08.57-2.8l4.05-4.1c-.62-.31-1.2-.45-1.74-.45-1.45,0-2.62.94-3.7,1.82-.66.53-1.55,1.24-2.41,1.24-.41,0-.81-.16-1.18-.57-.83-.92-.85-2.81-.04-3.68,2.18-2.31,4.79-3.49,7.48-3.49,1.73,0,3.48.49,5.16,1.48l10.49-10.43-1.7-1.77c-.62-.64-.78-2.08-.78-2.1-.05-.46.12-1.13,1.18-1.71.28-.15.84-.41,1.41-.41.32,0,.64.08.92.31l1.78,1.45c-1.91-3.68-1.25-8.06,1.85-11.17l.09-.08,1.36-1.09c.16-.13.46-.3.89-.3M93.25,397.55h0c-.78,0-1.54.26-2.14.75l-1.36,1.1s-.05.05-.08.07l-.09.08s-.05.05-.08.08c-2.46,2.47-3.66,5.65-3.49,8.84-.81.07-1.52.38-2,.63-2.22,1.2-2.29,2.97-2.22,3.68.02.19.22,2.12,1.33,3.27l.34.35-8.06,8.02c-1.55-.69-3.15-1.03-4.78-1.03-3.31,0-6.4,1.42-8.94,4.12-1.54,1.64-1.53,4.68.01,6.39.73.8,1.65,1.23,2.66,1.23.5,0,.96-.1,1.39-.26-.36,1.08-.35,2.27-.07,3.14.23.72.91,2,2.93,2.5.32.08.83.17,1.39.17.48,0,.9-.07,1.27-.17-.25,1.03-.15,2.1.07,2.79.47,1.45,1.71,2.4,3.16,2.43l1.94.03s.02,0,.03,0c.43,0,.85-.14,1.19-.4l.3-.23c4.74-3.53,6.24-9.32,3.93-14.5l7.87-7.93.26.26c.76.77,1.9,1.19,3.21,1.19.28,0,.56-.02.82-.06,1.85-.27,2.67-1.34,3-1.96.28-.53.47-1.29.5-2.11.25.02.51.02.77.02,4.11,0,7.3-2.1,8.79-3.9,1.61-1.95,1.83-4.16.57-5.76-1.1-1.39-2.37-1.69-3.24-1.69-.47,0-.91.08-1.32.21.58-1.28.62-2.76-.68-4.32-.72-.86-1.85-1.37-3.18-1.44-.08,0-.16,0-.25,0-.57,0-1.11.08-1.61.22.28-.82.38-1.74.05-2.77-.47-1.48-1.93-2.53-3.08-2.88-.37-.11-.74-.17-1.1-.17h0Z"/>
  </g>
  <g>
    <path class="cls-1" d="M250.7,15.37l.04,22.2.15.26c.41.71,1.49,1.67,2.47,1.67.03,0,.05,0,.07,0,1.18-.06,2.15-1.63,2.15-2.63l.02-21.54c4.94-1.42,8.02-5.96,7.56-11.33l-.05-.56-.48-.29c-.82-.5-1.88-1.02-2.84-.56-1.03.49-1.19,1.66-1.36,2.9-.25,1.82-.52,3.85-2.91,4.86v-5.85c0-.76-.54-1.38-.86-1.68-.27-.25-.98-.84-1.78-.8-1.01.05-2.23,1.39-2.22,2.42l.06,5.73c-2.36-1.07-2.63-3.12-2.88-4.95-.16-1.17-.29-2.19-1.08-2.75-.29-.21-.79-.43-1.52-.29-1.13.22-2.06,1.59-2.1,2.63-.22,5.26,2.72,9.32,7.55,10.58Z"/>
    <path d="M252.97,2c.76,0,1.43.56,1.69.8.32.3.85.92.86,1.68v5.85c2.39-1.01,2.67-3.04,2.92-4.86.17-1.24.33-2.41,1.36-2.9.26-.12.53-.18.8-.18.72,0,1.45.37,2.04.74l.48.29.05.56c.45,5.37-2.62,9.91-7.56,11.33l-.02,21.54c0,.99-.96,2.57-2.15,2.63-.02,0-.05,0-.07,0h0c-.98,0-2.06-.95-2.47-1.67l-.15-.26-.04-22.2c-4.84-1.27-7.78-5.33-7.55-10.58.04-1.04.97-2.41,2.1-2.63.16-.03.3-.04.44-.04.49,0,.85.17,1.08.34.79.57.93,1.58,1.08,2.75.24,1.84.52,3.88,2.88,4.95l-.06-5.73c-.01-1.03,1.21-2.37,2.22-2.42.03,0,.06,0,.09,0M252.97,0h0c-.07,0-.13,0-.2,0-1.38.07-2.78,1.11-3.54,2.43-.27-.6-.67-1.16-1.3-1.61-.65-.47-1.43-.71-2.25-.71-.27,0-.54.03-.81.08-2.14.41-3.65,2.66-3.73,4.51-.24,5.6,2.69,10.2,7.56,12.12l.04,20.75c0,.35.09.69.27,1l.15.26c.62,1.07,2.25,2.66,4.2,2.66.06,0,.11,0,.16,0,2.29-.11,4.06-2.58,4.06-4.62l.02-20.13c5.05-2.11,8.04-7.12,7.56-12.91l-.05-.56c-.05-.63-.41-1.21-.95-1.54l-.48-.29c-.79-.48-1.85-1.03-3.08-1.03-.58,0-1.14.12-1.66.37-.95.45-1.52,1.16-1.87,1.93-.25-.48-.59-.94-1.03-1.35-.53-.5-1.64-1.35-3.06-1.35h0Z"/>
  </g>
  <g>
    <path class="cls-1" d="M37.51,255.9c1.08,0,1.79-1.14,2.04-1.81.43-1.15-.07-1.75-.31-1.96-.44-.38-1.28-.82-1.88-1.07l-.21-.09-22.1.09c-.5-2.37-1.73-4.4-3.54-5.78-2.11-1.61-4.85-2.27-7.72-1.85l-.46.07-.27.38c-.22.31-.95,1.39-.89,2.36.08,1.41,1.54,1.62,2.83,1.81,2.31.33,4.18.79,4.92,3.02l-6.06.14c-.38,0-1.09.19-1.53,1.32-.14.36-.55,1.6.2,2.33.21.2,1.23,1.01,2.1,1.01l5.29.02c-.91,2.43-3.16,2.85-5.03,3.2-1.24.23-2.32.43-2.75,1.36-.25.54-.19,1.13.17,1.78.53.94,1.66,1.44,3.16,1.44.42,0,.86-.04,1.32-.12,3.37-.58,7.1-3.15,8.26-7.62h22.45Z"/>
    <path d="M5.49,243.32c2.25,0,4.35.68,6.04,1.97,1.8,1.38,3.04,3.41,3.54,5.78l22.1-.09.21.09c.6.25,1.44.69,1.88,1.07.24.21.74.81.31,1.96-.25.67-.96,1.81-2.04,1.81H15.06c-1.16,4.48-4.9,7.05-8.26,7.64-.46.08-.91.12-1.32.12-1.49,0-2.63-.51-3.16-1.44-.36-.64-.42-1.24-.17-1.78.43-.93,1.51-1.13,2.75-1.36,1.86-.35,4.12-.77,5.03-3.2l-5.29-.02c-.87,0-1.89-.81-2.1-1.01-.75-.72-.34-1.96-.2-2.33.44-1.13,1.15-1.31,1.53-1.32l6.06-.14c-.75-2.22-2.61-2.68-4.92-3.02-1.29-.19-2.75-.4-2.83-1.81-.06-.97.67-2.05.89-2.36l.27-.38.46-.07c.57-.08,1.13-.12,1.68-.12M5.49,241.32h0c-.65,0-1.31.05-1.97.15l-.46.07c-.53.08-1.01.37-1.33.8l-.27.38c-.51.71-1.36,2.12-1.27,3.65.11,1.78,1.2,2.67,2.35,3.14-.89.4-1.62,1.2-2.05,2.3-.68,1.75-.43,3.43.68,4.49.04.04.77.74,1.8,1.19-1.03.33-2.05.9-2.61,2.11-.52,1.12-.44,2.4.24,3.61.88,1.57,2.67,2.46,4.9,2.46.53,0,1.09-.05,1.67-.15,3.29-.57,7.51-2.9,9.37-7.6h21c2.03-.01,3.38-1.69,3.92-3.12.71-1.9.01-3.4-.87-4.17-.84-.73-2.17-1.3-2.42-1.41l-.21-.09c-.24-.1-.5-.15-.77-.15,0,0,0,0,0,0l-20.58.09c-.76-2.16-2.09-4.03-3.83-5.36-2.04-1.56-4.55-2.38-7.25-2.38h0Z"/>
  </g>
  <g>
    <path class="cls-1" d="M501.12,258.87c-1.85-.36-3.91-.76-4.78-3.04l5.52-.09c.74-.01,1.46-.5,1.89-.96.44-.46.66-.97.64-1.45-.05-1.13-1.5-2.29-2.52-2.29h-5.52c1-2.47,2.99-2.73,4.78-2.96,1.29-.17,3.05-.4,3.11-2.16.03-1.04-1.14-2.4-2.17-2.5-5.18-.5-9.74,2.8-10.82,7.65l-21.86.02c-.71,0-1.46.39-2,1.04-.48.58-.69,1.22-.58,1.82.19,1.06,1.59,1.96,2.6,1.96h0l21.98-.02c1.01,4.75,4.85,7.77,10.03,7.76h.02c1.12,0,2.58-.93,2.78-2.12.33-2-1.74-2.4-3.11-2.67Z"/>
    <path d="M501.05,243.37c.34,0,.69.02,1.03.05,1.02.1,2.2,1.45,2.17,2.5-.06,1.76-1.82,1.99-3.11,2.16-1.79.24-3.78.5-4.78,2.96h5.52c1.01,0,2.47,1.15,2.52,2.28.02.49-.2.99-.64,1.45-.43.46-1.15.95-1.89.96l-5.52.09c.87,2.28,2.93,2.68,4.78,3.04,1.37.27,3.44.67,3.11,2.67-.2,1.19-1.66,2.12-2.78,2.12h-.02c-5.18,0-9.02-3.01-10.03-7.76l-21.98.02h0c-1.01,0-2.41-.9-2.6-1.96-.11-.6.1-1.25.58-1.82.54-.65,1.29-1.04,2-1.04l21.86-.02c1.01-4.52,5.04-7.7,9.78-7.7M501.05,241.37h0c-5.13,0-9.56,3.1-11.28,7.7l-20.37.02c-1.31,0-2.6.64-3.53,1.76-.87,1.04-1.23,2.27-1.02,3.46.38,2.13,2.71,3.61,4.57,3.61h20.47c1.68,4.75,6.05,7.75,11.54,7.75,2.01,0,4.39-1.53,4.77-3.79.35-2.09-.61-3.58-2.84-4.44.67-.27,1.31-.71,1.84-1.27.82-.86,1.23-1.87,1.19-2.91-.06-1.63-1.28-3.03-2.68-3.73,1.26-.51,2.47-1.5,2.54-3.54.07-2.1-1.9-4.35-3.97-4.55-.41-.04-.82-.06-1.23-.06h0Z"/>
  </g>
  <g>
    <path class="cls-1" d="M255.62,491.44l-.02-22.04c0-.76-.59-1.38-.94-1.68-.37-.32-1.11-.82-1.89-.7-1.14.19-2.06,1.66-2.06,2.76l.02,21.77c-5.14,1.32-8.11,5.48-7.63,10.83l.03.31.18.25c.43.58,1.58,1.43,2.55,1.44h.02c1.48,0,1.69-1.59,1.85-2.75.24-1.81.53-4,2.92-5.13l.17,5.68c.03.91.93,2.14,1.78,2.43.12.04.28.07.45.07.31,0,.71-.1,1.16-.42.2-.14,1.22-.91,1.24-1.94l.1-5.84c2.42,1.06,2.72,3.07,3,4.87.2,1.27.5,3.2,2.39,3.08,1.09-.07,2.38-1.47,2.38-2.59,0-5.19-3.05-9.26-7.69-10.41Z"/>
    <path d="M253.01,467c.69,0,1.31.44,1.64.72.35.3.94.91.94,1.68l.02,22.04c4.64,1.15,7.69,5.22,7.69,10.41,0,1.12-1.29,2.52-2.38,2.59-.06,0-.12,0-.17,0-1.73,0-2.02-1.85-2.21-3.08-.28-1.8-.59-3.82-3-4.87l-.1,5.84c-.02,1.03-1.04,1.8-1.24,1.94-.46.32-.85.42-1.16.42-.18,0-.33-.03-.45-.07-.85-.29-1.75-1.52-1.78-2.43l-.17-5.68c-2.38,1.13-2.68,3.32-2.92,5.13-.15,1.16-.37,2.75-1.85,2.75h-.02c-.97-.01-2.12-.86-2.55-1.44l-.18-.25-.03-.31c-.48-5.35,2.49-9.52,7.63-10.83l-.02-21.77c0-1.1.92-2.58,2.06-2.76.08-.01.17-.02.25-.02M253.01,465c-.19,0-.38.01-.56.04-2.21.36-3.75,2.79-3.75,4.74l.02,20.31c-5.18,1.97-8.14,6.71-7.62,12.47l.03.31c.03.36.16.71.38,1l.18.25c.63.87,2.31,2.24,4.14,2.27,1.99,0,2.94-1.25,3.41-2.48.55,1.18,1.58,2.21,2.7,2.6.36.12.73.18,1.1.18.79,0,1.57-.26,2.31-.78.35-.24,1.27-.97,1.76-2.08.53,1.3,1.55,2.62,3.65,2.62.1,0,.2,0,.31-.01,2.14-.13,4.25-2.4,4.25-4.59,0-5.55-2.97-10.05-7.69-11.88l-.02-20.58c0-1.16-.59-2.3-1.65-3.2-.64-.54-1.67-1.19-2.94-1.19h0Z"/>
  </g>
  <g>
    <path class="cls-1" d="M285.14,232.52l-18.81,7.7,6.54-19.59-.77-.46c-7.58-4.51-16.48-6.08-25.74-4.53-12.55,2.11-23.74,11.26-28.52,23.32-5.32,13.42-2.9,28.07,6.47,39.2,7.37,8.76,17.98,13.46,28.79,13.46,5.56,0,11.18-1.25,16.43-3.82,9.76-4.8,17.1-13.51,20.14-23.92,3.04-10.43,1.61-21.28-4.04-30.55l-.49-.81Z"/>
    <path d="M253.25,215.07c6.76,0,13.18,1.73,18.86,5.11l.77.46-6.54,19.59,18.81-7.7.49.81c5.64,9.27,7.08,20.12,4.04,30.55-3.03,10.4-10.37,19.12-20.14,23.92-5.25,2.58-10.87,3.82-16.43,3.82-10.81,0-21.41-4.7-28.79-13.46-9.37-11.13-11.79-25.78-6.47-39.2,4.78-12.06,15.97-21.21,28.52-23.32,2.32-.39,4.62-.58,6.88-.58M253.25,213.07c-2.37,0-4.8.21-7.22.61-13.22,2.22-25.02,11.86-30.05,24.55-5.59,14.11-3.05,29.53,6.8,41.23,7.58,9,18.63,14.17,30.32,14.17,6.04,0,11.87-1.36,17.31-4.03,10.27-5.04,17.99-14.21,21.18-25.15,3.2-10.97,1.69-22.39-4.25-32.15l-.49-.81c-.37-.61-1.03-.96-1.71-.96-.25,0-.51.05-.76.15l-14.77,6.05,5.16-15.46c.3-.89-.07-1.87-.87-2.35l-.77-.46c-6.01-3.58-12.69-5.39-19.88-5.39h0Z"/>
  </g>
</svg>