<?xml version="1.0" encoding="UTF-8"?>
<svg id="katman_1" data-name="katman 1" xmlns="http://www.w3.org/2000/svg" viewBox="0 0 506.39 510.58">
  <defs>
    <style>
      .cls-1 {
        fill: #ad0000;
      }
    </style>
  </defs>
  <g>
    <path class="cls-1" d="M175.18,423.41l-73.13-79.98.06-151.96,45.66,49.39,105.39,113.77,116.06-125.18,35.16-38.05.08,151.69-57.67,63.25-93.53,102.76-78.08-85.68ZM186.75,404.01l66.48,72.73,67.42-73.81,62.93-69.05-.1-88.23-20.67,21.9-109.62,118.19-49.64-53.24-80.58-86.95-.12,88.29,63.9,70.16Z"/>
    <path d="M403.37,193.95l.08,148.75-57.41,62.96-92.79,101.95-77.34-84.87-72.87-79.69.06-149.02,43.93,47.51,106.13,114.56,116.79-125.97,33.42-36.18M253.22,478.22l68.16-74.62,63.19-69.34-.1-91.13-22.39,23.73-108.9,117.41-48.9-52.45-82.31-88.82-.12,91.23,64.16,70.45,67.22,73.54M405.37,188.84l-3.47,3.75-33.42,36.18-115.32,124.38-104.66-112.98-43.93-47.51-3.47-3.75v5.11s-.06,149.02-.06,149.02v.78s.52.57.52.57l72.87,79.69,77.33,84.87,1.48,1.62,1.48-1.62,92.79-101.95,57.41-62.96.52-.57v-.78s-.08-148.75-.08-148.75v-5.11h0ZM123.85,333.46l.12-85.36,78.85,85.08,48.91,52.45,1.47,1.57,1.46-1.58,108.89-117.41,18.93-20.06.1,85.33-62.67,68.76-66.68,73-65.74-71.92-63.63-69.87h0Z"/>
  </g>
  <g>
    <path class="cls-1" d="M102.04,144.5l.04-141.91,151.09,155.49L404.39,2.46l.06,141.98-65.96,70.05-85.32,90.9L102.04,144.5ZM203.01,220.75l50.18,53.08,44.76-47.3,85.6-91.27-.16-80.48-130.26,134.14L122.94,54.79v80.59s80.07,85.37,80.07,85.37Z"/>
    <path d="M403.39,4.93l.06,139.12-65.69,69.76-84.6,90.13L103.04,144.11l.04-139.05,150.09,154.46L403.39,4.93M253.14,187.49L121.94,52.33v83.45s80.34,85.66,80.34,85.66l50.91,53.85,45.49-48.07,85.87-91.56-.17-83.34-131.26,135.17M405.39,0l-3.43,3.53-148.79,153.11L104.51,3.66l-3.43-3.53v4.93s-.04,139.05-.04,139.05v.79s.54.58.54.58l150.14,159.83,1.46,1.55,1.46-1.55,84.6-90.13,65.69-69.76.54-.58v-.79s-.06-139.12-.06-139.12V0h0ZM253.13,190.36l1.44-1.48,127.84-131.64.15,77.63-85.33,90.98-44.03,46.53-49.46-52.32-79.81-85.07V57.26s127.77,131.62,127.77,131.62l1.43,1.48h0Z"/>
  </g>
  <g>
    <path class="cls-1" d="M178.33,454.38c-.42,0-.84-.08-1.24-.25-18.03-7.43-33.83-16.36-48.29-27.3-41.89-31.66-71.87-76.65-84.41-126.67-10.42-41.54-9.31-86.18,3.2-129.11,5.79-19.87,14.44-39.02,26.45-58.52.86-1.4,2.37-2.24,4.02-2.24.91,0,1.8.27,2.49.76,1.97,1.4,2.26,3.8.75,6.25-25.68,41.72-37.61,90.24-34.49,140.31,5.17,83.16,57.39,157.14,133.02,188.48,1.94.8,2.68,3.27,2.48,4.74-.23,1.67-1.92,3.53-3.97,3.53Z"/>
    <path d="M78.07,111.3c.7,0,1.38.2,1.91.57,1.48,1.06,1.74,2.86.48,4.91-26.01,42.25-37.73,91.22-34.64,140.89,5.19,83.35,56.59,157.42,133.63,189.35,1.44.6,2.02,2.61,1.87,3.68-.17,1.23-1.51,2.67-2.98,2.67-.28,0-.57-.05-.86-.17-17.2-7.09-33.24-15.96-48.07-27.17-41.48-31.35-71.36-75.55-84.04-126.11-10.64-42.43-9.03-86.64,3.19-128.58,6.03-20.71,14.99-39.84,26.34-58.28.74-1.2,1.99-1.76,3.17-1.76M78.07,109.3h0c-2.01,0-3.83,1.01-4.88,2.71-12.06,19.59-20.74,38.81-26.56,58.77-12.56,43.09-13.67,87.92-3.21,129.63,6.33,25.26,16.93,49.11,31.5,70.89,14.42,21.56,32.35,40.52,53.28,56.34,14.53,10.99,30.4,19.96,48.52,27.42.52.21,1.06.32,1.62.32,2.6,0,4.67-2.27,4.96-4.4.24-1.73-.58-4.76-3.09-5.8-75.28-31.2-127.25-104.85-132.4-187.62-3.1-49.86,8.77-98.18,34.35-139.72,1.79-2.9,1.39-5.88-1.02-7.59-.86-.61-1.94-.94-3.06-.94h0Z"/>
  </g>
  <g>
    <path class="cls-1" d="M328.14,454.41c-1.93,0-3.95-1.68-4.16-3.46-.25-2.15,1.01-4.2,3.14-5.09,67.04-28.13,115.17-88.04,128.77-160.27,10.99-58.41-.22-118.37-31.56-168.86-.87-1.41-.81-2.67-.61-3.49.27-1.07.98-2.03,1.89-2.55.56-.32,1.24-.49,1.98-.49,1.63,0,3.17.82,4,2.15,18.45,29.38,30.63,63.15,35.22,97.65,4.62,34.76,1.57,70.55-8.83,103.5-14.92,47.25-45.78,89.15-86.91,117.98-12.41,8.7-26.04,16.11-41.69,22.67-.38.16-.8.24-1.23.24Z"/>
    <path d="M427.58,111.21c1.14,0,2.43.53,3.15,1.68,37.29,59.39,47.48,133.18,26.28,200.32-15.08,47.75-45.67,88.82-86.53,117.46-13.13,9.21-26.74,16.38-41.5,22.57-.27.11-.55.16-.84.16-1.48,0-3.02-1.38-3.16-2.58-.18-1.56.68-3.28,2.53-4.05,67.26-28.22,115.87-89.32,129.36-161,11.01-58.51-.29-118.99-31.7-169.57-1.24-2-.3-3.94.93-4.64.41-.23.93-.36,1.48-.36M427.58,109.21c-.91,0-1.76.21-2.47.62-1.16.66-2.02,1.82-2.36,3.17-.36,1.42-.1,2.93.73,4.26,31.22,50.27,42.38,109.98,31.43,168.14-13.53,71.89-61.45,131.53-128.17,159.53-2.54,1.07-4.05,3.53-3.74,6.13.27,2.28,2.72,4.35,5.15,4.35.56,0,1.11-.11,1.61-.32,15.71-6.58,29.41-14.03,41.88-22.77,20.6-14.44,38.56-31.94,53.4-52.02,14.95-20.24,26.36-42.61,33.9-66.48,10.45-33.09,13.51-69.03,8.87-103.94-4.61-34.64-16.84-68.55-35.36-98.05-1.02-1.62-2.87-2.62-4.85-2.62h0Z"/>
  </g>
  <g>
    <path class="cls-1" d="M433.56,423.48c-1.03,0-1.95-.28-2.51-.76-.81-.69-1.34-1.84-1.42-3.07-.08-1.21.28-2.34,1.02-3.16,49.22-54.82,71.74-127.99,61.78-200.76-6.5-47.49-26.23-92.36-57.06-129.76-1.78-2.16-1.24-4.88.27-6.16.72-.61,1.66-.95,2.64-.95,1.36,0,2.68.64,3.6,1.76,26.82,32.41,45.8,71.06,54.88,111.77,9.03,40.5,8.33,82.81-2.04,122.37-10.34,39.46-30.41,76.63-58.03,107.49-.7.78-1.84,1.22-3.13,1.22Z"/>
    <path d="M438.29,79.87c.99,0,2.04.44,2.83,1.4,26.66,32.21,45.53,70.34,54.67,111.35,18.36,82.34-3.84,166.4-59.84,228.98-.56.63-1.51.89-2.39.89-.76,0-1.48-.2-1.86-.52-1.18-1.01-1.55-3.41-.31-4.8,49.08-54.66,72.02-128.55,62.03-201.56-6.56-47.93-26.47-92.89-57.28-130.26-1.47-1.79-.92-3.86.15-4.77.54-.46,1.25-.71,1.99-.71M438.29,77.87h0c-1.22,0-2.38.42-3.28,1.18-1.88,1.59-2.56,4.94-.4,7.56,30.71,37.26,50.36,81.95,56.84,129.26,9.92,72.47-12.51,145.35-61.54,199.95-.92,1.02-1.37,2.41-1.27,3.89.1,1.49.76,2.89,1.77,3.76.75.64,1.9,1.01,3.16,1.01,1.58,0,2.99-.57,3.88-1.56,27.73-30.98,47.87-68.3,58.26-107.91,10.41-39.71,11.12-82.19,2.05-122.84-9.11-40.86-28.16-79.66-55.09-112.19-1.12-1.35-2.71-2.12-4.37-2.12h0Z"/>
  </g>
  <g>
    <path class="cls-1" d="M72.85,423.48c-1.42,0-2.75-.54-3.55-1.43-33.04-37.07-54.67-82.05-62.56-130.09-12.35-75.19,8.64-152.19,57.59-211.26.93-1.12,2.2-1.73,3.59-1.73,1,0,2,.34,2.74.92.66.53,1.11,1.47,1.23,2.6.14,1.31-.21,2.57-.94,3.45C29.71,135.67,8.75,198.31,11.93,262.33c2.81,56.47,25.44,111.26,63.72,154.28,1.64,1.85,1.21,4.73-.27,6.07-.57.51-1.49.81-2.53.81Z"/>
    <path d="M67.91,79.96c.81,0,1.57.27,2.12.71.97.77,1.3,3.23.14,4.63C29.17,134.75,7.73,197.98,10.93,262.38c2.86,57.56,25.81,112.01,63.98,154.9,1.23,1.39.94,3.64-.19,4.66-.39.35-1.09.55-1.86.55-1.01,0-2.12-.34-2.81-1.1-32.45-36.41-54.38-81.29-62.32-129.59-12.34-75.1,8.86-151.92,57.37-210.46.81-.98,1.85-1.37,2.82-1.37M67.91,77.96h0c-1.69,0-3.24.74-4.35,2.09C14.42,139.35-6.65,216.64,5.75,292.12c7.92,48.23,29.64,93.38,62.8,130.59,1,1.13,2.57,1.77,4.3,1.77,1.3,0,2.44-.38,3.2-1.06,1.84-1.66,2.43-5.14.35-7.47-38.14-42.85-60.68-97.43-63.47-153.67-3.17-63.76,17.71-126.16,58.78-175.7.9-1.09,1.33-2.62,1.16-4.2-.14-1.39-.73-2.58-1.6-3.27-.92-.73-2.12-1.14-3.36-1.14h0Z"/>
  </g>
  <g>
    <path class="cls-1" d="M253.21,101.81c-15.86,0-28.76-12.9-28.76-28.76s12.9-28.76,28.76-28.76,28.76,12.9,28.76,28.76-12.9,28.76-28.76,28.76ZM253.24,64.95c-4.36,0-7.9,3.54-7.9,7.9s3.54,7.9,7.9,7.9,7.9-3.54,7.9-7.9-3.54-7.9-7.9-7.9Z"/>
    <path d="M253.21,45.3c15.33,0,27.76,12.43,27.76,27.76s-12.43,27.76-27.76,27.76-27.76-12.43-27.76-27.76,12.43-27.76,27.76-27.76M253.24,81.75c4.92,0,8.9-3.99,8.9-8.9s-3.99-8.9-8.9-8.9-8.9,3.99-8.9,8.9,3.99,8.9,8.9,8.9M253.21,43.3c-16.41,0-29.76,13.35-29.76,29.76s13.35,29.76,29.76,29.76,29.76-13.35,29.76-29.76-13.35-29.76-29.76-29.76h0ZM253.24,79.75c-3.81,0-6.9-3.1-6.9-6.9s3.1-6.9,6.9-6.9,6.9,3.1,6.9,6.9-3.1,6.9-6.9,6.9h0Z"/>
  </g>
</svg>