<?xml version="1.0" encoding="UTF-8"?>
<svg id="katman_1" data-name="katman 1" xmlns="http://www.w3.org/2000/svg" viewBox="0 0 510.03 510.61">
  <defs>
    <style>
      .cls-1 {
        fill: #94e8ff;
      }

      .cls-2 {
        fill: #002a35;
      }

      .cls-3 {
        fill: #00c9ff;
        stroke: #000;
        stroke-miterlimit: 10;
        stroke-width: 2px;
      }
    </style>
  </defs>
  <path class="cls-3" d="M280.19,110.02l-26.07-14.17h-14.75l-73.72,29.76-46.37,47.91-26.18,49.89-1.7,61.1,33.95,36.69,37.77,13.47-.85,12.11s-51.87-10.5-51.87-9.11,38.77,50.14,38.77,50.14l75.75,35.43,68.6-1.7,85.04-50.46,7.09-12.45-37.53-5.38-11.86-2.87v-10.91l68.1-34.3,11.91-36.71-10.7-57.54-28.7-55.56-24.58-25.23-72.08-20.13Z"/>
  <g>
    <path class="cls-2" d="M253.76,435.22c-25.43,0-51.09-5.56-74.21-16.07-32.46-14.76-58.06-39.17-74.01-70.59l-9.6-21.77,38.1,7.63,18.93,3.22-33.95-17.15c-9.02-4.55-17.45-9.96-28.18-18.07l-.29-.22-.08-.35c-5.57-23.87-6.32-46.88-2.24-68.4,5.12-26.96,15.73-51.52,31.56-73,26.7-36.25,70.76-60.16,117.87-63.95l1.02-.08.87,15.07-1.46-.59c-2.86-1.16-5.33-1.82-8.24-2.2l1.81,12.13c4.99,6.43,11.1,12.74,18.67,19.27l.37.32-.45,9.09c-.11,2.21.3,3.95,1.25,5.28l.55-14.03,14.86,14.04,1.33-6.52-10.59-7.59c-2.85-2.04-5.22-4.78-7.47-8.61-2.68-5.64-6.57-9.78-11.59-14.28l-1-.9,1.15-.7c8.3-5.07,13.57-11.1,16.6-18.96l.25-.66.71.02c35.74,1.08,71.88,14.04,101.77,36.48l2.05,1.54-20.06,1.99c-4.54,4.44-8.9,4.96-11.8,4.96-1.4,0-2.71-.13-3.98-.26-1.09-.11-2.12-.21-3.07-.21-1.86,0-3.09.41-4.1,1.39-1.31,1.26-2.72,1.88-4.29,1.88-1.38,0-2.74-.46-4.36-1.16-2.66-1.14-5.98-2.79-8.08-5.44l-.42-.52.71-1.27c1.45-2.61,2.59-4.65,3.62-7.21-7.19,3.21-13.08,6.95-18.86,11.95-.33.28-.63.61-.91.98l1.71-.05c.51-.02,1.02-.02,1.53-.02,7.51,0,15.03,1.71,21.75,4.95,1.07.52,2,.75,3.02.75.94,0,1.89-.2,3-.43.5-.1,1.02-.21,1.58-.31l18.93-3.36c2.16-.38,4.36-1.22,6.49-2.03,1.6-.61,3.25-1.23,4.89-1.68l13.99-3.77.4.33c24.37,20.12,42.16,47.73,51.45,79.85,8.15,28.17,8.8,58.96,1.88,89.05l-.08.37-.3.22c-18.4,13.3-37.88,24.02-59.56,32.77-4.64,1.88-9.08,3.67-13.66,6.07,10.74-1.3,20.85-4.57,30.37-7.87l22.59-9.51,13.49,12.71-49.72,14.27c14.88-.87,28.95-4.4,42.05-8.18l2.16-.62-.98,2.02c-9.46,19.42-22.89,36.32-39.92,50.25-29.77,24.36-68.05,37.77-107.77,37.78ZM296.79,398.79l-4.95,6.64c1.06-1.1,2.1-2.23,3.15-3.39.78-.85,1.56-1.71,2.38-2.58l-.98-5.31,7.82-10.3,10.39-15.18c.56-.82.97-3.39.73-4.41l-17.84-25.45c-3.16,1.15-6.25,2.56-9.55,4.36,2.93-.84,5.68-1.93,8.61-3.22l.88-.39,7.49,15.36,4.81,8.52-.17.44c-3.84,9.86-8.49,18.45-14.72,29.05l1.95,5.86ZM192.25,394.36c2.49,1.49,4.97,3.92,7.16,6.06.39.38.78.76,1.16,1.13l1.23,1.18-5.67-10.76c-2.14-.79-4.36-1.18-6.78-1.18-.9,0-1.82.05-2.77.16l5.68,3.4ZM272.15,399.52l6.62-1.73c1.32-.34,2.43-1.16,3.05-2.22.32-.55.5-1.14.53-1.76l-10.21,5.71ZM192.69,368.05c4.98,5.88,8.4,12.06,12.02,18.61l1.17,2.12c1.63,2.93,4.25,5.53,6.79,8.04-1.01-2.65-2.25-5.25-3.77-7.94l-13.39-23.64,1.84-.03c4.37,0,6.79,2.97,9.34,6.11.57.71,1.17,1.43,1.8,2.16l-2.88-4.79-9.12-14.5c-.96-1.53-1.25-4.48-.19-6.14l8.8-13.88,6.23,4.4-.94-9.8,1.74,1.14c5.62,3.69,9.96,6.28,15.51,8.57,2.59,1.07,5.77,2.55,7.35,4.49l.86,1.06-1.52-2.92c-.96-1.84-3.21-2.8-6.07-4.01-2.64-1.12-5.64-2.39-8.57-4.75l-9.46-7.6.3-.7c2.29-5.4,1.38-11.21.35-16.23l-.1-.51,1.81-1.93c4.15-4.4,8.45-8.96,11.35-14.33,3.67-6.81,9.63-10.38,17.71-10.61l10.78-4.33.42.81c3.02,5.81,5.81,10.08,10.44,13.38,3.71,2.65,5.92,5.83,8.27,9.2.7,1.01,1.42,2.04,2.2,3.09l10.35,13.9c-.65-.95-1.29-1.93-1.91-2.93-1.01-1.65-1.99-3.37-2.94-5.03-3.06-5.35-6.23-10.88-10.69-15.08-1.11-1.04-2.48-2.15-3.94-3.33-5.4-4.38-11.52-9.33-10.04-15.02l2.78-10.66.64-.1c8.45-1.37,16.83-5.08,24.92-11.01l.62-.45.6.47c1.84,1.46,3.8,2.85,5.69,4.2,2.99,2.13,6.08,4.33,8.83,6.87,2.05,1.89,3.75,4.09,5.4,6.22,1.34,1.73,2.73,3.52,4.27,5.1,4.61,4.71,3.46,7.61,2.63,9.72-.35.88-.55,1.44-.4,1.93l7.09,22.15-10.73,11.72c-.99,1.07-1.91,2.08-2.66,3.19l2.9-2.55c1.5-1.32,2.95-1.95,4.46-1.95,3.46,0,6.33,3.45,9.66,7.44.87,1.04,1.77,2.12,2.73,3.21l.29.33-1.08,9.93c-.29,2.68-1.16,5.13-2,7.49-1.49,4.2-3.03,8.55-1.52,14.63l4.97,1.98,9.11,7.2.1.23c.51,1.15.21,4.01-.57,5.36l-5.61,9.78,7.67-7.1c.08-.08.18-.18.29-.28.8-.8,1.47-1.42,2.27-1.42.22,0,.43.05.62.14l.81.41c-1.37-5.28-4.7-8.23-7.93-11.08-4.93-4.36-9.58-8.49-5.1-19.61l5.35-13.27-6.06-11.78c-4.87-3.3-6.59-7.22-5.39-12.3l-2.28-5.82.07-.3c1-4.51-.97-8.13-2.56-11.05-1.27-2.34-2.37-4.36-1.57-6.22l3.45-8.05c-7.23-1.89-10.9-7.16-15.12-13.22-2.92-4.19-6.23-8.94-11.24-13.06-2.53-2.08-6.07-3.28-9.71-3.28-1.36,0-2.69.16-3.96.49-4.53,1.16-8.07,3.92-11.82,6.84l-1.34,1.04c-.87.67-1.93,1.02-3.07,1.02-2.83,0-5.95-2.2-6.8-4.81l-.22-.67,17.19-13.4,3.84-10.14-4.6-5.98-6.39-8.39c-1.2-1.57-1.51-5.5-.88-7.29l3.89-10.95c.16-.44.25-.88.28-1.31l-3.42,8.57c-.5,1.25-1.24,2.42-1.96,3.56-.92,1.45-1.79,2.82-2.15,4.29l2.01,6.65-5.61,13.39-3.36,8.85-.99-2.21c-1.22-2.72-2.02-3.51-3.6-3.51-.08,0-.17,0-.25,0l-4.03.2,4.96,10.46-1.4,3.85c3.24,8.01,2.17,16.25-3.21,24.5l-.61.94-.86-.71c-.64-.53-1.28-1.14-1.9-1.73-1.53-1.47-3.12-2.99-4.56-2.99-.34,0-.67.08-1.01.25-2.2,1.1-3.86,3.88-5.62,6.83-1.99,3.34-4.25,7.13-7.84,9.36l-.83.52-.53-.82c-1.26-1.94-2.38-2.96-3.31-3.04-.08,0-.16,0-.23,0-1.21,0-2.25.73-3.27,2.29l-7.45,11.45c-1.31,2.01-2.23,4.49-3.13,6.88-.52,1.4-1.06,2.84-1.67,4.18-.99,2.17-1.24,3.59.16,5.28,3.25,3.94,3.68,13.14-.46,18.27l-8.1,10.03c-1.65,2.04-2.28,4.94-2.88,7.75-.29,1.32-.58,2.69-.99,3.96l-.04.13-2.72,4.13,6.13,9.79ZM217.56,379.87c3.18,1.22,6.79,2.61,9.17,4.75l2.63,2.37-2.79-4.44-9.96-3.05c.05.02.95.37.95.37ZM356.75,372.32c-2.58,2.19-4.17,4.36-5.46,7.28l2.38-3.32,3.08-3.96ZM154.46,372.86l-1.64-2.45c-.8-1.19-2.39-2.07-4.02-2.52l5.65,4.97ZM163.74,365.39c1.98,0,3.35,1.06,4.81,2.33,1.76,1.54,3.53,2.93,5.34,4.2l-2.82-2.67-9.47-12.39.29,2.22.59,6.44c.44-.09.85-.13,1.26-.13h0ZM170.92,344.37c1.77-2.25,3.38-4.02,6.13-5.72,1.85-1.14,1.91-2.39,2.02-4.66.11-2.19.25-4.91,2.06-8.51l16.44-32.61-17.06,8.52c-1.39.69-3.24,1-5.2,1.33-.39.06-.78.13-1.17.2l-.85.15-4.94-15.08-3.31-15.98-4.18-7.63,2.06.37c5.5,1,9.27,3.1,12.23,6.82l10.94,13.77s.05,0,.08,0c.37,0,.77-.09.98-.17.03-.23.02-.6-.04-.77l-7.52-7.4-.04-.05c-3.31-4.16-4.44-8.08-3.65-12.72l.05-.3.21-.22c4.04-4.29,8.35-7.79,13.58-11.03,2.07-1.28,2.34-3.4,2.71-6.34.33-2.61.71-5.58,2.47-8.77,1.11-2.02,3.92-3.82,5.98-5.14.21-.13.41-.26.59-.38-1.74-1.79-4.46-4.43-6.68-4.82l-15.47-2.74c-1.2-.21-2.39-.43-3.58-.62l1.9.64,14.58,4.97.42,4.65c.28,3.17.33,6.7-1.45,8.81-6,7.09-11.72,13.16-18,19.08l-.24.23-.33.04c-1.31.15-2.66.23-4.11.23-3.14,0-6.25-.36-9.26-.71l-1.7-.19c-4.39-.49-9.04-1.22-13.34-4.26l-8.8-6.2c-.84-.06-1.69-.11-2.54-.15-4.67-.27-9.5-.54-13.91-2.38l-.29-.12-9.63-15.03c-1.18.41-2.03,1.25-2.92,2.13-1.13,1.12-2.3,2.28-4.16,2.57l-1.02.16-1.81-14.15c-.19,4.2.38,8.36.94,12.42.1.75.35,2.64.35,2.64l-.22.32c-.49.72-.93,1.37-1.32,2,1.4-1.25,4.25-2.78,6.26-3.33l.52-.14,5.93,5.11c2.94,2.53,3.73,6.4,2.29,11.2-1.95,6.48-2.92,11.97-2.96,17.01l.76-4.52c.48-2.88,1.99-5.77,3.44-8.56.56-1.08,1.09-2.1,1.54-3.07l.26-.56,9.45-.34c.55-.02,1.42-.26,2.34-.52,1.24-.35,2.64-.74,3.86-.74.52,0,.97.07,1.37.21,3.28,1.16,5.94,2.95,8.51,4.69,1.43.97,2.91,1.97,4.48,2.85,1.54.87,3.61,1.27,5.61,1.65,1.77.34,3.6.7,5.17,1.38l.18.08.14.14c3.91,4.06,5.73,9.26,6.88,13.35l2.61,9.24-.05.24c-1.37,6.39-4.02,12.49-6.18,17.08l-.24.52-5.73.55-9.72,9.28,4.11,7.71,4.54-12.41.39-.17c.8-.35,1.61-.73,2.43-1.12,3.94-1.83,8.01-3.73,12.22-4.01.48-.03.95-.05,1.42-.05,2.76,0,5.46.5,8.07.99,1.61.3,3.27.61,4.92.8l.81.09.07.81c.4,4.27-.88,7.62-2.22,11.17l-.4,1.05c-2.43,6.51-5.18,13.87-11.27,19.72l.21,5.43ZM287.67,321.52c.83,1.22,1.64,2.41,2.5,3.55-.83-1.23-1.68-2.42-2.53-3.59.01.02.02.03.03.05ZM352.67,322.51c.21.69.4,1.47.58,2.28.15-.55.23-1.05.2-1.43-.05-.19-.4-.52-.78-.85ZM310.5,258.79c-.61,1.14-.76,4.03-.17,4.57l9.3,8.45c2.09,1.9,3.29,4.53,4.44,7.07.54,1.19,1.05,2.31,1.65,3.36l3.9,6.86c1.04,1.83.88,4.15.72,6.4-.12,1.7-.24,3.31.17,4.53,1.15,3.45,4.25,6,7.25,8.45.78.63,1.54,1.26,2.25,1.88l6.52,5.73-5.41-6.21c-3.21-3.68-3.48-10.11-3.48-11.99v-.54s.45-.3.45-.3c1.15-.75,2.76-1.17,4.55-1.17,1.21,0,2.4.2,3.36.56l7.94,2.98c2.54.95,4.88,1.43,6.97,1.43.05,0,.11,0,.16,0l-14.97-12.37-.09-.18c-.44-.87-.85-1.74-1.23-2.62.35,2.07.24,3.89-.32,5.61l-.25.77-9.35-1.05c-1.31-.15-3.29-1.08-4.12-1.78-.76-.64-.91-1.9-1.05-3.12-.05-.47-.12-1.01-.2-1.25l-7.39-20.95c-.37-1.06-.78-3.58.34-4.62.6-.56,2.1-1.18,3.28-1.18.45,0,.84.09,1.16.27l10.12,5.57,19.46-17.93-4.25-9.13,7.94,1.39c-6.24-7.12-10.66-14.12-14.51-22.92l-15.08-17.09c-2.77-3.67-4.7-7.46-6.74-11.48-.2-.38-.39-.77-.59-1.16l1.21,10.16c4.15.67,6.6,3.8,8.46,6.83,1.11,1.81,2.61,3.21,4.19,4.69,2.48,2.32,5.28,4.95,7.05,9.66l5.86,15.66c.23.62.46,1.22.69,1.82,1.34,3.49,2.6,6.79,3.09,10.7l.07.52-15.74,14.23-.36.02c-.14,0-.27,0-.41,0-2.63,0-4.8-1.14-6.89-2.24-2.11-1.11-4.1-2.16-6.57-2.16-.8,0-1.6.11-2.43.33l-10.94,2.93ZM126.65,308.47c.43,1.42,1.34,2.63,2.64,3.54l-2.64-3.54ZM239.93,308.06l-1.31-3.53-.57,1.63,1.88,1.9ZM242.94,290.32c0,1.07-.04,2.02-.32,2.82l-3.36,9.58,5.3-8.58-1.62-3.82ZM394.97,276.66c1.37,2.38,3.04,4.49,4.76,6.68.66.83,1.32,1.67,1.98,2.54l.11.14,1.63,5.29,1.03-8.65-9.51-6ZM222.65,260.9c-.55,2.68-2.43,5.14-4.92,6.44l-8.88,4.63c-.94.49-1.86.91-2.76,1.31-3.49,1.58-6.4,2.89-7.94,7.41l2.38-2.87c.86-1.04,3.05-1.96,6.36-3.36,6.23-2.63,15.64-6.59,20.84-13.77l6.23-14.27-12.89-11.11-9.51-1.67c-1.51-.27-3.29-.54-5.01-.54-.94,0-1.79.08-2.6.24l-.12.24-2.9,8.48c.68.54,1.31,1.13,1,2.02.09-.07.17-.14.22-.19l.1-.11.13-.07c.39-.22.96-.48,1.46-.48.53,0,.86.28,1.03.58l.76-.87,3.96,2.56,4.71-3.04-2.45,3.46,2.12-1.47-.84,2.75c-.11.37-.28.76-.48,1.17l1.42-.79,1.93,1.5,4.06-2.39-3.4,4.54c1,0,1.76,1.24,1.94,1.67.17.41.19.74.13.99.53.23.98.74,1.12,1.05l.13.28,4.82-3.78-3.05,5.23,4-2.44-2.82,4.13.25-.2-.56,2.74ZM367.09,242.21c.21,0,.42.04.61.11l22.1,8.09,9.76,13.14c-.24-.64-.62-1.32-1.1-2.08l-9.56-14.95c-1.05-.05-3.25-.22-4.36-.89l-9.71-5.87,7.29-4.84c1.33-.88,2.38-2.32,2.88-3.85l-18.94,8.05c-1.16,1.01-1.95,3.17-2.17,5.06,1.05-1.1,2.21-1.97,3.21-1.97ZM305.62,247.82c.76.84,3.79,1.26,5.41,1.49.45.06.86.12,1.21.18l7.28,1.21c-1.23-1.59-2.63-2.97-4.44-4.38l-16.61-12.94c-2.88-2.24-5.16-4.73-6.98-7.6l-2.4-3.78,4.1,2.61-2.53-3.56,5.04,2.74-.34-1.86.33-.44c.37-.44,1.04-.56,1.38-.56.64,0,.94.34,1.07.54l.7,1.12c.11.11.7.38,1.05.4l.99-.75-4.74-6.33,4.75,2.98-2.74-4.44,6.34,4.34-.82-5.38,1.28,1.07,2.36-5.48.64,1.29-.31-1.85,2.15,1.93,1.82-1.2-.4-3.64,2.25.23-2.72-2.09,1.57-.67c2.04-.87,3.21-1.24,4.85-1.59l-1.85-1.73,2.44-.84-.62-2.11-8.08-3.71c-4.1.83-7.66,2.49-11.77,5.49-.39,2.16-.25,3.9-.12,5.44.21,2.53.39,4.71-1.98,6.95-.79.75-2.51,1.4-3.7,1.4-.45,0-.83-.09-1.15-.27-.93-.53-2.07-2-2.44-2.68l-.38-.69.59-.53c.27-.25.61-.53.96-.82.62-.52,1.75-1.46,1.97-1.9l.39-6.41.13-.21c1.73-2.87,4.12-4.85,6.43-6.78,2.67-2.22,5.2-4.32,6.17-7.51-1.47-1.23-3.67-2.54-6.42-3.82l-.24-.11-.15-.22c-.57-.82-.74-3.22-.3-4.29l3.6-8.73,15.12,4.36c2.48.71,4.29,3.02,5.78,5.47l6.79-13.34.34-.14c2.17-.89,5.18-1.26,7.26-1.31l16.14-.36,4.98,5.56-3.52-5.75.35-.53c.94-1.43,2.45-3.16,4.04-4.63l2.58-2.38-15.66,4.75c-.64.19-1.31.29-2.01.29-2.43,0-4.81-1.13-7.12-2.22-1.1-.52-2.14-1.01-3.13-1.36-3.65,2-7.15,4.97-10.53,7.84-.86.73-1.71,1.45-2.56,2.15l-.41.34-.51-.15c-3.8-1.1-6.77-1.59-9.61-1.59-1.8,0-3.5.2-5.18.62-.82.2-1.65.3-2.46.3-2.62,0-4.71-1.04-6.4-1.88-1.08-.54-2.02-1-2.72-1-.25,0-.46.06-.66.19-.73.47-.82,1.66-.92,3.72-.13,2.84-.31,6.66-3.08,10.84,2.62,2.23,3.64,5.08,2.87,8.11l-.19.74-6.66.13,2.14-3.76c-.38-2.49-1.43-5.55-3.21-9.33l-.26-.56.38-.48c2.2-2.82,2.71-4.75,1.64-6.46l-9.02,2.67c-2.89,2.92-6.08,6.46-8.23,10.69-.53,2.13,1.17,5.83,3.06,8.26l13.13,16.86-2.81,5.96,5.71,16.75c.98,2.85.52,3.7.01,4.13l-2.16,1.81c-1.34,1.12-2.69,3.14-2.7,4.82,0,.76.27,1.37.84,1.85.84.71,2.88,1.23,4.84,1.23,1.2,0,2.23-.2,2.75-.53.35-.22.69-.44,1.03-.67,1.46-.95,2.83-1.85,4.31-2.33l.61-.2,9.96,10.99ZM123.65,241.66l2.92-1.78c-.08,0-.16,0-.25,0-1.1,0-2.09.12-3.43.35l.76,1.44ZM238.91,227.03c1.21,1.18,3.72,1.63,5.73,1.82l-13.43-19.26.32-.55c2.52-4.37,3.28-7.63,2.51-10.9-.76-3.23-.39-6.39,1.08-9.39l5.32-10.84,7.22-11.86c-.4-.85-1.27-1.37-2.26-1.95-1.7-1.01-4.04-2.39-3.2-6.15.51-2.3-.31-4.11-2.44-5.36-5.02-2.94-9.11-6.63-12.87-10.15-3.53-3.3-5.36-6.29-6.51-10.64-.74-2.81-2.59-5.59-4.37-8.29-.42-.63-.84-1.27-1.24-1.9l-.25-.39,1.39-4.62-5.86,4.52c-1.43,1.1-1.11,2.12-.75,2.8l5.73,10.64c.69,1.28,1.37,3.92.79,5.33l-.21.5-5.53,1.06c-3.85,3.55-7.3,6.95-9.93,11.46l9.44-4.56.48.33c5.33,3.68,10.56,3.94,16.61,4.23,1.49.07,3.03.15,4.61.28l.37.03.26.26c2.71,2.75,5.54,6.56,7.55,10.2l.29.53-14.23,21.52,2.65,4.16c.86,1.34.47,4.04-.13,5.47-2.45,5.76-4.01,10.41-5.22,15.53-.58,2.45-3.05,3.87-4.09,4.37l-13.71,6.59-.34-.08c-2.57-.59-5.36-1.83-8.32-3.2,1.13,3.17,5.89,6.48,10.33,7.73,7.48-4.61,14.29-7.55,21.4-9.24l.54-.13,10.31,10.08ZM393.02,218.52c.17.46.39.87.68,1.13l.13.12-.82-1.25ZM166.96,207.93c1.8,0,3.77,2.05,6.26,4.65,1.66,1.73,3.54,3.69,5.48,5.11,2.25,1.65,5.66,1.82,8.8,1.88l-7.88-9.88-11.26-4.64-.16-.37c-2.18-5.04-3-9.88-3.86-15l-.18-1.04c-1-5.9,1.13-8.87,3.83-12.62,2.07-2.88,4.41-6.15,6.18-11.73.98-3.1,3.7-4.33,6.32-5.52,1.94-.88,3.92-1.78,5.38-3.45-4.78.86-8.74,2.58-13.23,4.54l-.87.38-11.94-7,3-12.91c-.91,1.73-1.45,3.48-1.98,5.2-1.09,3.54-2.22,7.21-6.6,9.93-3.97,2.48-8.05,5.02-10.34,9.05l9.95-6.69c1.67-1.12,3.25-1.67,4.82-1.67,1.99,0,3.95.9,5.98,2.75l5.56,5.06c.89.81,1.39,2.04,1.41,3.47.03,1.75-.67,3.57-1.78,4.65l-15.31,14.91-4.44,4.53c2.52-1.35,4.93-2.62,7.79-3.75.28-.11.57-.17.87-.17,2.41,0,4.28,3.51,4.59,4.85l2.78,12.2-6.37,9.85c.89-.92,1.71-1.87,2.46-2.73,1.43-1.65,2.56-2.96,3.66-3.55.33-.18.69-.27,1.07-.27ZM284.43,141.75c-1.59,2.1-2.49,5.3-3.17,7.74l-1.64,5.79,4.45-2.34c1.39-.73,3.21-2.99,3.32-4.1.13-1.44-.65-3.66-1.99-5.66l-.96-1.44ZM193.94,137l-6.01,2.48c2.17-.21,4.18-.64,6.27-1.08.72-.15,1.43-.3,2.16-.45-.06-.45-.11-.89-.17-1.32-.24-1.88-.45-3.61-.83-5.35l-1.42,5.71Z"/>
    <path class="cls-1" d="M237.71,97.49l.72,12.47c-2.93-1.19-5.81-2.02-9.8-2.41l2.04,13.68c5.53,7.17,12.11,13.71,18.97,19.62l-.43,8.61c-.15,2.93.54,5.77,3.16,7.6l.55-14.07,14.57,13.77,1.81-8.92-11.12-7.97c-3.07-2.2-5.28-5.05-7.18-8.3-2.71-5.71-6.6-9.88-11.79-14.52,7.85-4.8,13.72-10.91,17.01-19.46,36.38,1.1,72.34,14.61,101.2,36.28l-17.86,1.77c-4.03,4.06-7.87,4.92-11.34,4.92-2.57,0-4.94-.47-7.04-.47-1.82,0-3.43.35-4.79,1.66-1.21,1.17-2.39,1.6-3.6,1.6s-2.56-.47-3.96-1.08c-2.99-1.29-5.86-2.84-7.69-5.15,2.02-3.64,3.51-6.2,4.89-10.23-8.23,3.44-14.89,7.53-21.26,13.04-2.64,2.28-3.75,6.83-4.64,9.96l-2.08,7.34,6.51-3.42c1.59-.84,3.71-3.34,3.85-4.89.18-1.94-.92-4.46-2.16-6.3.5-.02,1-.02,1.5-.02,7.4,0,14.67,1.65,21.31,4.85,1.3.63,2.39.85,3.46.85,1.48,0,2.9-.42,4.75-.75l18.93-3.36c3.89-.69,7.68-2.71,11.47-3.73l13.49-3.64c25.06,20.69,42.13,48.24,51.13,79.36,8.36,28.89,8.61,59.2,1.86,88.55-18.57,13.43-38.26,24.14-59.35,32.66-6.18,2.5-11.82,4.79-17.86,8.43,12.34-.78,23.68-4.34,35.27-8.35l22.05-9.29,11.74,11.06-55.56,15.94c.31,0,.62,0,.92,0,17.09,0,32.93-3.73,49.22-8.42-9.59,19.68-23,36.29-39.65,49.92-30.66,25.09-68.75,37.55-107.14,37.55-25.14,0-50.4-5.34-73.8-15.98-31.94-14.52-57.73-39-73.54-70.13l-8.8-19.96,36.21,7.25,25.5,4.35-39.88-20.14c-10.07-5.09-18.81-11.01-28.03-17.98-5.21-22.32-6.56-45.19-2.23-67.99,5-26.36,15.49-51.02,31.38-72.6,27.36-37.16,71.4-59.86,117.14-63.55M197.83,155.14l11.64-5.62c6.94,4.79,13.83,4.03,21.7,4.68,2.7,2.74,5.44,6.45,7.39,9.98l-14.25,21.56,3,4.71c.6.94.33,3.28-.21,4.54-2.25,5.31-3.95,10.09-5.28,15.69-.4,1.67-2.03,2.97-3.55,3.7l-13.4,6.44c-2.93-.67-6.22-2.25-9.78-3.9-.34,4.57,6.45,9.14,11.72,10.49,6.91-4.3,13.86-7.54,21.47-9.35l9.91,9.69c1.83,1.79,5.72,2.11,8.44,2.25l-14.26-20.45c2.24-3.88,3.57-7.56,2.62-11.63-.71-3.01-.37-5.93,1-8.72l5.32-10.84,7.42-12.19c-.97-3.55-6.75-2.77-5.59-8,.63-2.83-.5-5.02-2.92-6.44-4.75-2.79-8.73-6.31-12.69-10.02-3.22-3.01-5.08-5.82-6.23-10.16-.96-3.64-3.57-7.07-5.74-10.47l2.16-7.16-8.33,6.42c-1.41,1.09-1.86,2.51-1.02,4.07l5.73,10.64c.63,1.17,1.16,3.46.74,4.48l-5.28,1.01c-4.64,4.27-8.88,8.44-11.75,14.61M185.06,140.62c4.63,0,8.33-1.11,12.41-1.86-.58-4.26-.78-7.47-2.19-11.33l-2.2,8.83-10.32,4.27c.79.06,1.55.09,2.29.09M141.71,167.18l12.73-8.55c1.51-1.01,2.9-1.5,4.26-1.5,1.79,0,3.51.86,5.3,2.49l5.56,5.06c1.74,1.59,1.22,5.1-.39,6.67l-15.31,14.91-8.83,9.02c4.83-2.34,8.46-4.7,13.25-6.6.16-.07.33-.1.5-.1,1.61,0,3.31,2.76,3.61,4.07l2.69,11.79-9.37,14.5c4.9-2.5,8.34-8.6,10.67-9.86.18-.1.38-.15.59-.15,2.41,0,6.48,6.13,11.15,9.57,3.05,2.25,7.86,2.02,11.5,2.1l-9.36-11.74-11.12-4.59c-2.28-5.26-3.04-10.34-3.96-15.82-1.65-9.76,5.84-10.79,9.98-23.89,1.71-5.42,9.71-4.28,12.82-10.59-6.09.71-10.63,2.73-16.11,5.11l-10.87-6.37,3.94-16.94c-6.62,6.71-3.63,14.09-11.18,18.81-5.28,3.29-10.26,6.51-12.02,12.59M342.82,158.32c-3.45,0-7.11-2.67-10.34-3.66-4.81,2.55-9.27,6.7-13.63,10.31-3.24-.94-6.52-1.63-9.89-1.63-1.78,0-3.58.19-5.42.65-.78.19-1.52.28-2.22.28-4.13,0-6.9-2.88-9.11-2.88-.42,0-.82.1-1.2.35-2.85,1.82.6,8.23-4.82,15.61,2.51,1.81,4.09,4.4,3.27,7.66l-4.14.08,1.44-2.53c-.42-3.22-1.9-6.9-3.34-9.96,1.99-2.55,3.55-5.45,1.25-8.24l-9.94,2.95c-3.35,3.38-6.49,6.93-8.63,11.22-.78,2.76,1.51,7.04,3.21,9.23l12.75,16.37-2.72,5.77,5.84,17.13c.23.67.83,2.61.32,3.04l-2.16,1.81c-2.34,1.96-4.46,5.99-1.86,8.2,1.1.94,3.42,1.47,5.49,1.47,1.32,0,2.55-.22,3.28-.68,1.78-1.13,3.43-2.34,5.11-2.88l9.52,10.51c1.22,1.34,5.28,1.66,7.2,1.98l9.62,1.6c-1.69-2.69-3.57-4.65-6-6.55l-16.61-12.94c-2.77-2.16-4.99-4.57-6.75-7.35l4.62,2.94-2.98-4.21,4.97,2.7-2.28-3.2-.24-1.28c-.03-.15.37-.28.64-.28.1,0,.19.02.22.07l.7,1.12c.25.4,1.28.87,1.95.87.18,0,.33-.03.43-.11l1.91-1.44-2.12-2.83,3.84,2.41-2.52-4.08,4.34,2.97-.77-5.05,4.23,3.53c-.29-2.42-1.48-3.68-3.14-5.18l1.22-2.84,1.26,2.52s.05.06.08.06c.23,0,.74-.75.69-1.03l-.3-1.82,4.16,3.74.43-.59-3.09-3.21,2.07-1.36-.33-3.02,4.51.45-4.15-3.19c2.62-1.12,3.72-1.38,6.58-1.89l-2.07-1.94,1.77-.61-1.02-3.46-8.78-4.03c-4.98.95-8.87,3.04-12.8,5.95-1.26,6.05,1.53,9-1.88,12.24-.56.53-2.02,1.12-3.01,1.12-.26,0-.49-.04-.65-.14-.69-.39-1.72-1.68-2.06-2.3,1.05-.96,3-2.35,3.24-3.25l.39-6.31c3.81-6.3,11.27-8.39,12.87-15.14-1.85-1.72-4.7-3.26-7.13-4.39-.34-.49-.52-2.55-.19-3.33l3.26-7.9,14.26,4.11c2.78.8,4.79,4.23,6.12,6.59l7.45-14.64c1.89-.77,4.68-1.18,6.91-1.23l15.68-.35,11.99,13.39-8.91-14.57c.97-1.47,2.47-3.14,3.88-4.44l5.81-5.34-19.85,6.02c-.57.17-1.14.25-1.73.25M337.33,258.93c-4.87,0-8.15-4.4-13.46-4.4-.84,0-1.74.11-2.69.37l-11.3,3.03c-.94,1.16-1.39,5.11-.22,6.18l9.3,8.45c2.86,2.6,3.98,6.81,5.89,10.18l3.9,6.86c1.63,2.87-.23,7.64.81,10.75,1.55,4.66,6.28,7.68,9.79,10.77l11.91,10.47c.73,1.56,1.16,4.18,1.66,6.59.74-1.32,1.64-3.52,1.53-4.89-.09-1.09-2.37-2.34-3.16-3.25l-9.42-10.81c-2.36-2.71-3.23-7.58-3.24-11.33,1.05-.69,2.55-1,4-1,1.09,0,2.16.17,3.01.49l7.94,2.98c2.39.9,4.88,1.5,7.32,1.5.89,0,1.77-.08,2.63-.25l-16.64-13.76c-3.59-7.03-4.74-14.73-9.1-21.11l5.34,16.5c.85,2.63,1.2,5.21.37,7.73l-8.54-.96c-1.05-.12-2.86-.94-3.59-1.55-.72-.61-.62-3-.95-3.94l-7.39-20.95c-.38-1.09-.53-2.99.08-3.55.41-.38,1.67-.91,2.6-.91.26,0,.5.04.68.14l10.75,5.92,20.52-18.91-3.75-8.06,8.91,1.56c-7.52-8.13-12.32-15.72-16.34-24.95l-15.19-17.2c-3.96-5.24-6.22-10.94-9.71-17.22l1.95,16.3c3.98.31,6.4,3.03,8.5,6.45,2.99,4.86,8.37,6.74,11.15,14.18l5.86,15.66c1.54,4.12,3.17,7.84,3.73,12.29l-15.09,13.64c-.12,0-.24,0-.36,0M250.59,201.07l-7.95-9.89c.67,4.52,3.41,8.5,7.95,9.89M252.86,239.4c-1.25-2.8-2.29-4.1-4.51-4.1-.1,0-.2,0-.3,0l-5.53.27,5.42,11.44-1.39,3.83c3.5,8.29,1.92,16.42-2.97,23.93-2.31-1.89-4.58-4.95-7.1-4.95-.48,0-.96.11-1.45.36-5.1,2.55-7,12.17-13.54,16.23-1.26-1.94-2.6-3.38-4.08-3.49-.11,0-.21-.01-.31-.01-1.83,0-3.13,1.25-4.11,2.75l-7.45,11.45c-2.15,3.3-3.23,7.59-4.87,11.2-1.08,2.36-1.44,4.22.3,6.33,3,3.62,3.39,12.23-.47,17.01l-8.1,10.03c-2.61,3.23-2.8,8.11-4.05,12.04l-3,4.55,6.51,10.39c5.47,6.44,9.03,13.26,13.13,20.62,2.36,4.25,6.55,7.66,9.99,11.36-1.29-4.4-3.01-8.31-5.23-12.23l-12.56-22.17s.09,0,.14,0c7.68,0,8.51,10.18,19.07,14.27,3.17,1.23,7.22,2.67,9.66,4.87l7.98,7.18-6.82-10.84-15.49-4.74-5.28-8.78-9.13-14.51c-.79-1.25-1.01-3.78-.2-5.07l8.24-12.99,7.15,5.05-.95-9.89c5.38,3.53,9.89,6.27,15.68,8.66,2.27.94,5.48,2.39,6.95,4.2l7.1,8.75-6.11-11.71c-2.09-4.01-8.79-4.17-14.9-9.07l-8.87-7.13c2.31-5.45,1.56-11.24.41-16.82,4.54-4.85,9.65-9.95,12.96-16.09,3.57-6.61,9.4-9.92,17.03-10.09l10.11-4.06c3.11,5.98,5.97,10.32,10.75,13.73,4.66,3.33,6.9,7.59,10.25,12.08l11.69,15.69c3.11,4.18,5.47,8.87,10.1,12-3.21-6.75-7.94-11.7-11.69-17.84-4.26-7-7.83-14.7-13.8-20.31-5.07-4.76-15.39-10.85-13.69-17.37l2.62-10.03c8.89-1.44,17.34-5.32,25.35-11.19,4.74,3.76,10.02,6.92,14.47,11.02,3.65,3.36,6.15,7.73,9.63,11.28,6.12,6.25,1.14,8.59,1.99,11.26l6.92,21.6-9.95,10.88c-2.2,2.4-4.18,4.4-4.92,7.92l6.18-5.43c1.35-1.19,2.6-1.71,3.8-1.71,3.8,0,7.08,5.17,11.64,10.31l-1.03,9.49c-.8,7.37-6.12,12.8-3.36,22.98l5.31,2.12,8.8,6.96c.34.76.15,3.29-.53,4.46l-8.87,15.46,12.48-11.55c.46-.42,1.32-1.43,1.88-1.43.06,0,.12.01.17.04l2.65,1.32c-2.43-16.12-20.87-13.81-13.49-32.13l5.52-13.7-6.39-12.42c-4.29-2.84-6.5-6.3-5.11-11.68l-2.28-5.83c1.86-8.37-5.64-13.69-4.18-17.09l3.93-9.15c-12.92-2.58-14.62-16.06-27.12-26.35-2.84-2.33-6.62-3.51-10.34-3.51-1.43,0-2.85.17-4.21.52-5.29,1.36-9.28,4.79-13.52,8.05-.74.57-1.59.81-2.46.81-2.49,0-5.15-1.98-5.85-4.12l16.86-13.14,4.14-10.93-4.94-6.42-6.39-8.38c-.95-1.24-1.28-4.8-.73-6.35l3.89-10.95c.57-1.59.46-3.35-.48-4.8l-4.53,11.36c-1.12,2.8-3.61,5.28-4.21,8.26l1.98,6.56-5.47,13.06-2.51,6.62M398.99,225.85l-7.04-10.8c-.56,1.49-.16,4.2,1.07,5.33l5.96,5.47M95.37,246.32l4.1-3.91c1.24-1.18,4.1-2.71,5.98-3.23l5.52,4.76c3.11,2.68,3.05,6.59,1.98,10.15-2.5,8.31-3.93,16.66-2.29,25.06l2.03-12.12c.64-3.83,3.32-7.93,4.9-11.38l8.83-.32c1.49-.05,4.21-1.26,6.16-1.26.38,0,.73.05,1.04.15,4.95,1.74,8.37,4.97,12.83,7.47,3.09,1.73,7.64,1.66,10.86,3.08,3.49,3.63,5.31,8.21,6.64,12.93l2.54,9c-1.23,5.74-3.51,11.34-6.1,16.87l-5.51.53-10.52,10.04,5.52,10.35,5.17-14.11c4.47-1.99,9.4-4.72,14.32-5.04.45-.03.9-.04,1.35-.04,4.33,0,8.49,1.28,12.88,1.78.41,4.45-1.13,7.94-2.56,11.78-2.74,7.34-5.41,14.11-11.35,19.66l.34,8.63c2.6-3.38,4.14-5.56,7.54-7.67,4.32-2.68.79-6.32,4.45-13.57l17.79-35.3-19.76,9.86c-1.52.76-3.86,1.04-6.09,1.43l-4.65-14.2-3.33-16.07-3.25-5.92c4.58.83,8.5,2.53,11.62,6.45l11.09,13.96c.11.13.38.19.72.19.68,0,1.6-.23,1.82-.53.24-.33.28-1.68-.11-2.06l-7.53-7.41c-2.95-3.7-4.23-7.33-3.44-11.93,4.03-4.28,8.32-7.73,13.38-10.86,4.53-2.8,1.84-8.78,5.53-15.47,1.19-2.15,4.84-4.23,6.67-5.45l.49-.47c-1.76-1.83-5.08-5.37-7.98-5.89l-14.47-2.56c-4.44-.79-8.54-1.58-13.41-1.69l10.23,3.47,13.96,4.76.36,4c.21,2.3.45,6.1-1.22,8.07-5.77,6.82-11.5,12.94-17.92,19-1.34.16-2.67.22-3.99.22-3.66,0-7.25-.5-10.84-.9-4.67-.52-8.95-1.31-12.88-4.08l-9.03-6.36c-5.57-.39-11.3-.35-16.42-2.48l-9.86-15.37c-3.57.67-4.54,4.38-7.68,4.87l-2.56-20.07c-2.15,7.51-.78,14.74.15,21.88-1.69,2.48-2.84,4.31-4.05,7.33M386.3,229.42l-20.78,8.84c-2.15,1.73-3.14,6.22-2.5,8.5.81-1.08,2.84-3.55,4.07-3.55.09,0,.18.01.27.04l21.82,7.99,11.3,15.22c.85-1.83.04-3.61-1.18-5.52l-9.85-15.4c-1.24-.01-3.5-.22-4.4-.77l-8.36-5.06,5.97-3.96c2.08-1.38,3.53-3.88,3.64-6.33M200.44,245.97c.47,0,1.96-.9,2.44-1.39.4-.22.77-.35.98-.35.27,0,.24.23-.41.75-.72,1.01-1.11,2.24-.71,2.79l3.09-3.53,2.36,1.52-2.79,3.63,5.1-3.29-2.74,3.87,4.44-3.08c-.33,1.08-1.18,2.38-2.4,4.22l4.19-2.35.67.52-2.85,2.57-.11.92,4.58-2.7-3.87,5.16.43.33,3.71-3.32s.07-.03.11-.03c.44,0,1.36,1.26,1.06,1.57l-1.24,1.3c-.26.27-.91,1.04-.6,1.18.18.08.76.52.84.59,0,0,0,0,0,0,0,0,0,0,0,0,0,0,0,0-.01-.01,0-.09.54-.76.66-.95l.74-1.11s.05-.04.09-.04c.26,0,.84.57.76.66l-2.06,3.49,4.41-3.46-2.4,4.12,3.42-2.08-3.43,5.02.41.09,2.35-1.91c-.48,2.36-2.14,4.57-4.4,5.75l-8.88,4.63c-5.47,2.85-10.78,3.35-12.1,13.44l5.01-6.07c2.19-2.65,19.41-6.26,27.31-17.27l6.57-15.05-13.66-11.78-9.78-1.72c-1.81-.32-3.52-.55-5.18-.55-1.12,0-2.21.11-3.28.37l-.37.73-3.16,9.21c.86.69,1.35.99,1.23,1.36l-.68,2.01c-.05.14,0,.2.13.2M123.26,243.07l6.45-3.94c-1.41-.17-2.45-.25-3.39-.25-1.51,0-2.77.21-4.95.6l1.89,3.59M403.89,296.12l1.67-13.96-13.05-8.23c2.03,4.94,5.28,8.43,8.41,12.56l2.97,9.63M306.32,284.51c.26-1.25-.54-3.5-1.38-3.98l-5.3-3.01,6.69,6.98M242.48,312.05l-2.93-7.89,6.13-9.92-3.54-8.35c-.48,2.6.08,5.36-.47,6.93l-4.77,13.61,5.58,5.62M132.31,314.37l-6.87-9.19c-.65,4.74,2.32,8.11,6.87,9.19M246.28,344.29c1.08-1.78,1.14-4.41-.35-6.36l-2.48-3.25,2.83,9.62M282.11,345.44c5.43-.8,9.81-2.35,14.85-4.58l7.07,14.49,4.61,8.16c-4.09,10.48-9.18,19.63-14.88,29.3l1.92,5.8-10.22,13.71c5.22-3.62,8.66-7.96,13-12.54l-.99-5.37,7.56-9.95,10.42-15.22c.74-1.08,1.23-4.17.82-5.41l-18.38-26.22c-5.7,2-10.68,4.65-15.77,7.83M139.78,358.64c-.78-5.61-3.79-8.55-6.76-11.85,1.77,4.65,4.19,8.63,6.76,11.85M161.6,366.81c.81-.29,1.51-.42,2.14-.42,1.62,0,2.77.87,4.15,2.09,3.96,3.47,8.08,6.31,13.07,8.76l-9.15-8.66-11.7-15.31.79,5.94.69,7.6M159.55,378.66l-5.89-8.81c-1.4-2.09-4.74-3.33-7.29-3.33-.2,0-.4,0-.59.02l13.77,12.11M361.68,367.61c-8.7,5.42-10.88,8.86-13.56,18.14l6.37-8.89,7.2-9.25M205.59,407.79l-8.76-16.61c-2.41-.94-4.88-1.38-7.49-1.38-1.81,0-3.69.21-5.64.61l8.03,4.81c2.82,1.69,5.67,4.68,8.13,7.05l5.72,5.52M264.85,402.46l14.17-3.7c2.92-.76,4.99-3.45,4.15-6.56l-18.33,10.26M239.59,95.33l-2.04.16c-23.03,1.85-45.93,8.58-66.25,19.45-20.81,11.14-38.91,26.67-52.34,44.9-15.91,21.61-26.59,46.31-31.73,73.41-4.11,21.66-3.36,44.81,2.24,68.81l.16.7.58.44c10.79,8.15,19.26,13.59,28.33,18.17l28.02,14.15-12.38-2.11-36.18-7.24-3.78-.76,1.55,3.52,8.8,19.96.02.05.02.05c7.96,15.67,18.43,29.74,31.12,41.84,12.65,12.05,27.24,21.88,43.37,29.21,23.25,10.57,49.05,16.16,74.63,16.16,39.96,0,78.45-13.5,108.41-38,17.14-14.02,30.66-31.04,40.18-50.59l1.97-4.04-4.32,1.24c-9.74,2.8-20,5.47-30.72,7.01l37.25-10.69,3.38-.97-2.56-2.41-11.74-11.06-.95-.89-1.2.51-21.99,9.26c-7.41,2.56-15.19,5.11-23.33,6.71,2.44-1.07,4.88-2.06,7.38-3.07,21.75-8.79,41.31-19.54,59.77-32.89l.61-.44.17-.73c6.96-30.25,6.31-61.22-1.89-89.55-9.33-32.27-27.2-60.01-51.66-80.25l.21-.02-4.1-3.08c-30.05-22.57-66.39-35.6-102.34-36.68l-1.42-.04-.51,1.32c-2.95,7.65-8.09,13.52-16.19,18.47l-2.29,1.4,2,1.79c5.08,4.55,8.74,8.46,11.32,13.89l.04.08.04.07c2.31,3.95,4.78,6.79,7.75,8.92l10.07,7.22-.84,4.12-11.95-11.3-3.2-3.02-.04.92-.11-.1c-7.44-6.41-13.45-12.61-18.37-18.92l-1.57-10.54c2.28.38,4.34.99,6.68,1.94l2.93,1.18-.18-3.15-.72-12.47-.12-2.04h0ZM210.52,142.39l4.72-.9,1.06-.2.41-1c.74-1.8-.06-4.75-.83-6.19l-5.73-10.64c-.21-.39-.44-.82.48-1.53l3.39-2.61-.36,1.19-.27.88.5.78c.41.63.83,1.27,1.25,1.91,1.74,2.63,3.54,5.34,4.24,7.99,1.19,4.49,3.16,7.71,6.79,11.11,3.81,3.56,7.95,7.29,13.05,10.28,1.76,1.04,2.39,2.39,1.97,4.28-.99,4.47,1.93,6.19,3.67,7.23.71.42,1.25.75,1.59,1.12l-6.84,11.24-.05.08-.04.08-5.32,10.84c-1.58,3.22-1.97,6.6-1.15,10.06.71,3.04.02,5.99-2.4,10.17l-.64,1.1.73,1.04,11.75,16.84c-1.18-.25-2.28-.62-2.88-1.21l-9.91-9.69-.79-.77-1.07.25c-7.1,1.69-13.89,4.59-21.31,9.13-2.72-.85-5.57-2.49-7.42-4.31,1.85.79,3.63,1.45,5.33,1.84l.68.16.63-.3,13.4-6.44c1.17-.56,3.95-2.17,4.63-5.04,1.2-5.06,2.75-9.66,5.17-15.37.54-1.27,1.26-4.5.05-6.39l-2.3-3.61,13.53-20.48.67-1.01-.59-1.06c-2.06-3.71-4.95-7.61-7.72-10.41l-.52-.53-.74-.06c-1.59-.13-3.14-.21-4.64-.28-5.9-.29-10.99-.54-16.09-4.06l-.96-.66-1.05.51-5.65,2.73c2.18-2.94,4.76-5.46,7.57-8.06h0ZM287.05,140.61c4.72-3.96,9.57-7.1,15.2-9.82-.73,1.52-1.55,2.98-2.5,4.68l-.39.7-.65,1.17.83,1.05c2.24,2.82,5.7,4.55,8.47,5.74,1.73.74,3.2,1.24,4.75,1.24,1.85,0,3.48-.71,4.99-2.16.82-.79,1.8-1.11,3.41-1.11.9,0,1.9.1,2.97.21,1.23.12,2.63.26,4.08.26,3.02,0,7.53-.53,12.24-5l16.2-1.61-9.54,2.57c-1.69.46-3.36,1.09-4.98,1.71-2.18.83-4.25,1.61-6.31,1.98l-18.93,3.36c-.57.1-1.1.21-1.61.32-1.1.23-1.96.41-2.79.41s-1.66-.2-2.59-.65c-6.85-3.3-14.52-5.05-22.18-5.05-.23,0-.45,0-.68,0h0ZM194.92,137.23l.12-.48.11-.44c.02.15.04.3.06.45.02.13.03.27.05.4-.11.02-.23.05-.34.07h0ZM281.22,153.31l.81-2.86.2-.7c.53-1.91,1.21-4.32,2.22-6.19l.12.17c1.2,1.79,1.94,3.81,1.83,5.01-.07.68-1.57,2.67-2.79,3.3l-2.39,1.25h0ZM155.63,155.73c1.47-1.05,2.55-2.2,3.38-3.41l-.32,1.38,1.27.74,10.87,6.37.88.51.93-.4.4-.18c2.33-1.01,4.44-1.93,6.55-2.7-2.56,1.17-5.32,2.6-6.37,5.91-.24.75-.48,1.45-.74,2.11-.25-1.15-.79-2.15-1.59-2.88l-5.56-5.06c-2.23-2.03-4.4-3.01-6.65-3.01-1.02,0-2.03.2-3.06.6h0ZM342.82,160.32c.8,0,1.58-.11,2.31-.33l11.49-3.49c-1.43,1.39-2.72,2.9-3.59,4.24l-.32.49-.21-.24-.92.02-15.68.35c-2.18.05-5.32.44-7.62,1.38l-.69.28-.34.66-5.83,11.46c-1.42-2.03-3.14-3.78-5.4-4.43l-14.26-4.11-1.33-.38c.29.02.59.04.9.04.89,0,1.8-.11,2.7-.33,1.6-.4,3.22-.59,4.94-.59,2.74,0,5.62.48,9.33,1.55l1.02.29.81-.67c.85-.71,1.71-1.43,2.57-2.16,3.22-2.73,6.55-5.55,9.97-7.5.82.31,1.7.73,2.61,1.16,2.29,1.09,4.89,2.32,7.55,2.32h0ZM288.84,176.96c2.49-4.15,2.66-7.98,2.79-10.62.05-1.14.13-2.71.46-2.92.04-.03.06-.03.13-.03.46,0,1.38.46,2.27.9,1.49.74,3.29,1.64,5.52,1.9l-.65,1.58-3.26,7.9c-.52,1.26-.41,4.08.41,5.24l.31.44.49.23c2.35,1.09,4.28,2.2,5.66,3.25-1.01,2.55-3.17,4.36-5.63,6.4-2.26,1.88-4.83,4.02-6.65,7.03l-.25.42-.03.49-.36,5.88c-.33.39-1.16,1.09-1.63,1.48-.36.3-.7.59-.98.84l-1.17,1.07.77,1.38c.41.75,1.67,2.41,2.82,3.07.46.26,1.02.4,1.64.4.42,0,.87-.06,1.34-.17l5.24,7c-.3-.13-.63-.2-.98-.2-.23,0-1.42.04-2.15.92-.27.32-.43.71-.48,1.12l-7.08-3.85,2.06,2.91-3.57-2.27,4.79,7.56c1.88,2.97,4.24,5.54,7.21,7.86l16.61,12.94c.91.71,1.72,1.42,2.45,2.14l-4.51-.75c-.35-.06-.77-.12-1.23-.18-1.15-.16-4.21-.59-4.82-1.17l-9.52-10.5-.87-.96-1.23.39c-1.61.52-3.11,1.49-4.56,2.44-.34.22-.67.44-1.02.66-.22.14-.93.37-2.21.37-1.89,0-3.62-.5-4.19-.99-.34-.29-.49-.62-.49-1.09,0-1.2,1.01-2.94,2.34-4.05l2.16-1.81c1.11-.93,1.2-2.54.29-5.22l-5.58-16.36,2.37-5.03.52-1.11-.76-.97-12.75-16.37c-1.71-2.19-3.26-5.54-2.91-7.3,2.03-3.98,5.05-7.35,7.81-10.15l7.94-2.36c.29,1.04-.13,2.39-1.89,4.64l-.76.97.52,1.11c1.66,3.52,2.67,6.38,3.07,8.72l-1.1,1.92-1.74,3.06,3.52-.07,4.14-.08,1.53-.03.37-1.48c.8-3.17-.1-6.14-2.55-8.53h0ZM155.07,187.87l.21-.22,10.49-10.21c-2.04,3.05-3.45,6.18-2.58,11.34l.18,1.04c0,.06.02.12.03.18-.97-1.66-2.6-3.42-4.62-3.42-.43,0-.84.08-1.24.24-.86.34-1.67.69-2.47,1.05h0ZM325.35,194.95l-.47-3.91c.85,1.61,1.74,3.18,2.71,4.72-.69-.34-1.44-.62-2.25-.81h0ZM298.19,199.06c3.74-2.68,7.02-4.21,10.73-5.01l7.37,3.38.22.75-3.1,1.07,1.71,1.6c-.95.28-1.92.64-3.22,1.19l-3.14,1.34,1.31,1.01.27,2.44.2,1.81-.66.44-2.54-2.28-.11-.22-.04.09-1.02-.92.4,2.37-1.04,2.43-.97,2.26-2.28-1.9.8,5.22.08.49-.54-.37-6.78-4.64s.02-.02.02-.02c2.72-2.58,2.5-5.21,2.29-7.76-.12-1.45-.24-2.94.04-4.79h0ZM165.68,207.19l1.08-1.66.44-.69c.03.07.06.15.1.22l.32.74.75.31,10.64,4.39,6.37,7.99c-2.31-.13-4.55-.49-6.08-1.61-1.87-1.38-3.72-3.3-5.35-5-2.76-2.88-4.76-4.96-6.98-4.96-.45,0-.88.09-1.29.26h0ZM260.94,213.11c.21-.73.57-1.46,1-2.2-.07,2.1.39,4.63,1.4,5.95l6.39,8.38,4.26,5.55-3.54,9.36-16.41,12.8-1.11.87.44,1.34c1,3.03,4.48,5.5,7.75,5.5,1.37,0,2.64-.42,3.68-1.23.45-.35.9-.69,1.34-1.04,3.67-2.85,7.13-5.55,11.45-6.66,1.18-.3,2.43-.46,3.71-.46,3.41,0,6.72,1.11,9.07,3.05,3.25,2.67,5.72,5.55,7.9,8.44-2.51-2.18-5.23-4.12-7.87-5.99-1.89-1.34-3.84-2.73-5.65-4.17l-1.2-.95-1.23.9c-7.96,5.84-16.2,9.48-24.49,10.83l-1.29.21-.33,1.26-2.62,10.03c-.09.35-.16.69-.2,1.03l-.53-1.03-1.68.68-9.77,3.93c-8.26.29-14.61,4.13-18.38,11.13-2.83,5.26-7.08,9.76-11.19,14.11-.49.52-.98,1.04-1.46,1.56l-.71.76.21,1.01c1.24,6.05,1.67,11.02-.29,15.64l-.59,1.39,1.18.95,8.63,6.93c-1.95-1.15-3.94-2.42-6.14-3.86l-3.49-2.29.4,4.15.53,5.56-3.6-2.54-1.72-1.21-1.12,1.77-8.24,12.99c-1.28,2.03-.93,5.43.19,7.21l6.97,11.07c-1.46-.96-3.16-1.59-5.26-1.59h-.17s-3.37.05-3.37.05l1.66,2.93,12.56,22.17c.51.9.98,1.78,1.43,2.66-1.04-1.2-1.97-2.43-2.7-3.74-.39-.71-.78-1.41-1.17-2.11-3.63-6.57-7.07-12.79-12.08-18.72l-5.75-9.18,2.29-3.48.15-.23.08-.26c.42-1.31.72-2.71,1.01-4.05.61-2.81,1.19-5.47,2.69-7.33l8.1-10.03c4.54-5.63,3.97-15.29.46-19.54-.93-1.12-1.07-1.93-.02-4.23.63-1.37,1.17-2.84,1.7-4.25.88-2.34,1.78-4.77,3.03-6.69l7.45-11.45c1.07-1.65,1.9-1.84,2.43-1.84.05,0,.11,0,.16,0,.22.02,1.04.25,2.55,2.58l1.07,1.64,1.67-1.03c3.8-2.36,6.12-6.25,8.18-9.69,1.68-2.82,3.27-5.48,5.2-6.44.2-.1.38-.15.56-.15,1.04,0,2.54,1.44,3.87,2.71.63.6,1.28,1.23,1.96,1.78l1.73,1.42,1.22-1.87c5.48-8.41,6.64-16.84,3.44-25.06l1.13-3.11.28-.78-.36-.75-4.14-8.73,2.53-.12c.07,0,.14,0,.2,0,.88,0,1.44.14,2.69,2.92l1.98,4.42,1.72-4.53,2.5-6.59,5.46-13.03.28-.66-.21-.69-1.82-6.04h0ZM293.36,212.96c.77-.24,1.51-.6,2.08-1.01l2.34,3.78-4.42-2.77h0ZM352.3,235.89c-.22-.6-.45-1.19-.68-1.79-.23-.6-.46-1.2-.69-1.81l-5.86-15.66c-.08-.22-.17-.44-.25-.65,3.49,7.92,7.44,14.41,12.77,20.84l-3.32-.58-1.97-.35h0ZM193.8,237.57c.03-1.18-.04-2.37-.14-3.53l-.36-4-.12-1.3-1.23-.42-3.59-1.22,6.28,1.11c1.6.28,3.69,2.11,5.28,3.66-2.09,1.35-4.71,3.12-5.87,5.21-.09.16-.17.32-.25.48h0ZM366.6,239.97l16.04-6.82c-.33.36-.69.67-1.08.93l-5.97,3.96-2.63,1.75,2.7,1.63,8.36,5.06c1.13.68,3.06.93,4.31,1.01l1.1,1.71-21.38-7.83c-.3-.11-.62-.17-.95-.17-.26,0-.76,0-1.51.37.28-.65.63-1.22,1.02-1.61h0ZM204.67,234.22c.59-.09,1.21-.13,1.88-.13,1.64,0,3.37.26,4.84.52l9.24,1.62,12.12,10.45-5.89,13.5c-1.51,2.06-3.39,3.85-5.44,5.41,1.09-1.31,1.87-2.87,2.21-4.5l.57-2.78,5.02-7.36-4.59,2.79,3.69-6.33-8.07,6.33c-.14-.15-.31-.3-.48-.43-.03-.25-.1-.53-.23-.82-.2-.47-.65-1.19-1.3-1.7l5.63-7.51-7.77,4.58-.2-.16-.67-.52-.83-.65,1.32-4.33,2.42-3.41-8.52,5.5-.34-.22-2.36-1.52-1.45-.94-.69.79c-.28-.12-.59-.19-.92-.19-.36,0-.75.08-1.17.24-.16-.27-.37-.51-.59-.72l2.58-7.52h0ZM106.07,237.08c.27-.25.53-.51.78-.76.65-.64,1.2-1.19,1.84-1.57l9,14.03.34.53.58.24c4.57,1.9,9.49,2.18,14.24,2.45.75.04,1.5.09,2.25.13l1.92,1.35c-.86-.42-1.77-.81-2.73-1.15-.51-.18-1.07-.27-1.7-.27-1.35,0-2.83.41-4.13.78-.78.22-1.67.47-2.1.48l-8.83.32-1.23.04-.51,1.12c-.43.95-.96,1.96-1.51,3.03-.19.36-.38.73-.57,1.11.34-1.38.73-2.8,1.18-4.28,1.98-6.57-.32-10.28-2.59-12.24l-5.52-4.76-.69-.59h0ZM168.53,263.52c1.49,0,2.88-.08,4.23-.24l.66-.08.48-.45c6.26-5.9,11.96-11.94,17.92-18.99-.15.87-.25,1.69-.35,2.45-.39,3.09-.65,4.62-2.25,5.61-5.3,3.28-9.68,6.84-13.78,11.19l-.41.44-.1.59c-.34,2.01-.35,3.89,0,5.71-2.95-3.17-6.75-5.09-11.83-6.01l-4.12-.75.87,1.59c-.34-.41-.7-.81-1.08-1.21l-.28-.29-.36-.16c-.31-.14-.63-.26-.95-.37.1.01.2.02.3.03.57.06,1.13.13,1.7.19,3.03.35,6.17.71,9.37.71h0ZM337.33,260.93c.15,0,.3,0,.45-.01l.72-.03.53-.48,15.09-13.64.77-.7-.13-1.03c-.02-.13-.03-.26-.05-.38l.53,1.14-18.39,16.95-9.49-5.23c-.47-.26-1.02-.39-1.64-.39-1.32,0-3.1.65-3.96,1.45-1.61,1.49-.98,4.61-.6,5.68l7.39,20.95s0,0,0,0l-1.96-3.45c-.57-1.01-1.07-2.11-1.6-3.28-1.2-2.63-2.44-5.35-4.68-7.39l-9.21-8.38c-.24-.55-.14-2.17.15-3.07l10.46-2.8c.75-.2,1.46-.3,2.18-.3,2.22,0,4.1.99,6.1,2.04,2.2,1.16,4.48,2.36,7.36,2.36h0ZM317.13,304.64l-5.62-17.54c-.05-.17.2-.82.37-1.25.64-1.62,1.61-4.07-.28-7.48,1.32.85,2.78,1.55,4.41,2.09l-3.01,7.02c-.99,2.31.27,4.64,1.61,7.09,1.55,2.85,3.3,6.06,2.52,10.07h0ZM403.02,286.52l-.19-.62-.1-.34-.21-.28c-.66-.87-1.33-1.72-1.99-2.55-.72-.91-1.42-1.8-2.09-2.7l4.99,3.15-.4,3.35h0ZM344.9,293.14l.51-1.54c.22-.65.37-1.32.47-2l12.04,9.95c-1.15-.23-2.36-.58-3.62-1.05l-7.94-2.98c-1.07-.4-2.39-.62-3.71-.62-1.98,0-3.79.47-5.1,1.33l-.91.59v1.08c0,1.58.19,6.22,2.04,10.03-.09-.08-.18-.15-.28-.23-2.89-2.37-5.89-4.82-6.94-8-.34-1.03-.23-2.62-.12-4.15.11-1.54.23-3.22-.07-4.8,1.05.58,2.42,1.11,3.49,1.23l8.54.96,1.61.18h0ZM161.85,305.17l.35-.75c1.89-4.03,4.16-9.22,5.64-14.76l4.22,12.88.27.82c-.53-.03-1.07-.05-1.61-.05-.5,0-1,.02-1.48.05-2.51.16-5,.89-7.39,1.82h0ZM243.25,294.36l.14-.4.04.1-.19.3h0ZM175.44,303.7s.02,0,.03,0c1.95-.32,3.96-.66,5.48-1.42l14.37-7.17-12.6,25c.07-.18.13-.36.2-.54.13-.35.27-.7.4-1.05,1.33-3.5,2.7-7.11,2.28-11.62l-.15-1.62-1.62-.18c-1.62-.18-3.26-.49-4.85-.79-1.16-.22-2.34-.44-3.54-.61h0ZM155.76,306.03l4.82-.47.37-.04c-1.48.61-2.92,1.28-4.29,1.92-.82.38-1.63.76-2.42,1.11l-.77.34-.29.8-3.63,9.91-2.7-5.07,8.92-8.52h0ZM310.26,319.12l7.74-8.46.67-.73.55,1.4c-1.13,5.24.73,9.47,5.66,12.9l5.74,11.15-5.18,12.85c-3.77,9.34-1.31,14.14,2.34,17.92l-2.35-1.85-.23-.18-.27-.11-4.36-1.74c-1.24-5.52.14-9.43,1.61-13.56.86-2.42,1.74-4.92,2.05-7.72l1.03-9.49.1-.88-.59-.66c-.95-1.07-1.85-2.15-2.71-3.19-3.49-4.18-6.5-7.79-10.43-7.79-.46,0-.92.05-1.37.16h0ZM171.72,339.35c2.92-2.88,5.06-6.08,6.77-9.35-.3,1.52-.37,2.83-.43,3.94-.12,2.38-.21,3.03-1.55,3.86-2,1.24-3.41,2.5-4.7,3.93l-.09-2.38h0ZM305.8,354.42l-3.26-6.68,11.86,16.92c.1.85-.24,2.91-.61,3.45l-10.39,15.18-7.44,9.8v-.04c6.12-10.46,10.72-19.01,14.54-28.81l.34-.88-.47-.83-4.58-8.11h0ZM163.39,364.4l-.37-4.04,3.63,4.75c-.85-.44-1.8-.72-2.91-.72-.12,0-.24,0-.35,0h0ZM331.85,382.37l2.35-4.09c.72-1.26,1.08-3.48.9-5.08,1.09,1.31,2.04,2.78,2.73,4.56-1.22.06-2.13.97-2.86,1.71-.1.1-.19.19-.26.26l-2.86,2.65h0ZM197.99,397.66c-1.66-1.56-3.42-3.08-5.22-4.15l-2.83-1.69c1.94.05,3.74.38,5.48.98l2.57,4.87h0Z"/>
  </g>
  <g>
    <path class="cls-2" d="M28.33,200.91l.29-.88c8.52-26.12,23.87-50.1,46.93-73.29l.19-.2.76-.19c4.13-1.06,8.05-2.06,11.75-3.67-.95-1.72-1.76-2.37-3.53-3.67l-.93-.68.81-.82c2.14-2.18,4.81-4.89,7.87-7.09,23.93-17.23,49.17-28.3,75.03-32.91l6.38-1.14-5.74,3.01c-20.46,10.72-38.82,20.66-56.04,33.5l.51-.15,11,10.33-1.11.69c-29.19,17.99-51.54,42.33-66.44,72.34l-1.46,2.94-2.01-15.25c-3.3,6.89-6.12,14.07-8.79,22.33l-.33,1.03-15.13-6.19Z"/>
    <path class="cls-1" d="M167.67,78.48c-20.34,10.66-39.29,20.86-57.09,34.28l-3.06,2.53,4.83-1.46,9.62,9.04c-28.63,17.64-51.57,42.05-66.81,72.75l-2.02-15.28c-4.38,8.69-7.58,17.03-10.3,25.43l-13.27-5.43c9.25-28.35,25.78-51.87,46.68-72.9,4.72-1.21,9.15-2.31,13.36-4.29-1.24-2.57-2.09-3.33-4.31-4.95,2.28-2.32,4.8-4.86,7.74-6.98,22.22-16,47.53-27.91,74.62-32.74M180.08,74.24l-12.76,2.27c-26,4.63-51.38,15.76-75.44,33.08-3.13,2.25-5.83,5-8,7.2l-1.62,1.65,1.87,1.37c1.3.95,2.01,1.5,2.65,2.39-3.32,1.33-6.84,2.23-10.53,3.18l-.49.13-.53.14-.39.39c-23.17,23.31-38.6,47.42-47.17,73.69l-.58,1.77,1.72.7,13.27,5.43,2,.82.66-2.05c2.26-6.98,4.63-13.19,7.3-19.1l1.13,8.6.86,6.5,2.92-5.88c14.81-29.85,37.04-54.05,66.07-71.94l2.23-1.37-1.91-1.79-9.31-8.74c16.77-12.32,34.68-22,54.56-32.42l11.48-6.01h0Z"/>
  </g>
  <g>
    <path class="cls-2" d="M120.53,327.48c-28.67-3.79-67.34-17.01-89.88-42.73-19.08-21.77-24.41-50.88-15.02-81.95l.37-1.21,1.09.64c4.36,2.54,8.48,4.53,13.77,6.66l11.21,4.5-3.36,22.29-4.38,1.95,4.81,1.44.04.7c1.62,29.44,18.26,46.63,42.75,63.39,10.58,7.24,21.46,13.02,32.99,19.14,2.05,1.09,4.13,2.19,6.23,3.32l4.84,2.59-5.45-.72Z"/>
    <path class="cls-1" d="M16.58,203.09c4.86,2.84,9.11,4.8,13.9,6.72l10.48,4.21-3.16,20.96-6.36,2.82,6.72,2.01c1.67,30.19,19.33,47.83,43.18,64.16,12.51,8.56,25.36,15.05,39.32,22.52-31.26-4.13-68.1-18.25-89.26-42.4-20.1-22.93-23.39-52.62-14.82-81M15.4,200.08l-.73,2.43c-4.52,14.97-5.67,29.59-3.4,43.44,2.43,14.84,8.7,28.12,18.63,39.45,22.73,25.93,61.65,39.25,90.5,43.07l10.89,1.44-9.69-5.19c-2.1-1.12-4.18-2.23-6.23-3.32-11.5-6.11-22.36-11.88-32.9-19.09-24.24-16.59-40.71-33.58-42.31-62.62l-.08-1.4-1.35-.4-1.54-.46,1.41-.63,1-.45.16-1.09,3.16-20.96.24-1.56-1.47-.59-10.48-4.21c-5.24-2.1-9.32-4.08-13.64-6.6l-2.19-1.28h0Z"/>
  </g>
  <g>
    <path class="cls-2" d="M436.68,170.09c-14.82-21.06-32.65-36.92-52.98-47.14-8.19-4.12-16.73-5.68-25.77-7.34-1.27-.23-2.54-.47-3.82-.71l-3.46-.65,23.91-9.2.41.23c2.86,1.63,5.08,2.76,7.75,3.6-.4-.54-.78-1.07-1.16-1.6-1.95-2.69-3.78-5.23-6.24-7.24-7.49-6.12-15.82-10.25-24.64-14.62-3.55-1.76-7.21-3.58-10.81-5.53l-5.48-2.98,6.13,1.11c20.73,3.76,41.13,11.67,62.37,24.16,13.12,7.71,25.43,17.58,38.76,31.04l.47.48-.26.62c-1.45,3.42-3.21,6.25-6.02,9.63l9.26,18.27-7.69,8.91-.74-1.05Z"/>
    <path class="cls-1" d="M340.36,79.02c22.35,4.06,42.81,12.72,62.04,24.03,14.44,8.49,26.71,18.91,38.55,30.88-1.59,3.76-3.57,6.68-6.29,9.89l9.25,18.26-6.42,7.43c-13.74-19.52-31.46-36.45-53.35-47.45-9.48-4.77-19.45-6.17-29.85-8.14l20.19-7.77c3.81,2.18,6.61,3.51,10.83,4.46-3.31-4.12-5.6-8.27-9.36-11.34-10.71-8.75-23.36-13.6-35.61-20.26M328.45,74.83l10.95,5.95c3.61,1.96,7.29,3.78,10.84,5.55,8.77,4.35,17.05,8.45,24.45,14.5,2.01,1.65,3.62,3.71,5.24,5.92-1.41-.64-2.83-1.4-4.46-2.33l-.82-.47-.89.34-20.19,7.77-6.56,2.53,6.91,1.31c1.28.24,2.56.48,3.83.71,8.97,1.64,17.44,3.2,25.5,7.25,20.18,10.15,37.88,25.9,52.61,46.82l1.47,2.09,1.67-1.94,6.42-7.43.88-1.01-.61-1.2-8.66-17.09c2.61-3.22,4.36-6.08,5.75-9.37l.52-1.23-.94-.95c-13.39-13.53-25.77-23.44-38.96-31.2-21.34-12.55-41.85-20.49-62.69-24.28l-12.26-2.23h0Z"/>
  </g>
  <g>
    <path class="cls-2" d="M116.28,390.28c-10.61-3.74-19.39-8.89-28.69-14.34-9.24-5.42-18.17-12.16-27.31-20.6l-6.64-7.23.05,11.25-13.89-15.27c-4.69-5.16-8.41-11.09-12.03-19.22l-1.12-2.51,14.64,7.14c1.67.81,3.27,1.52,5.16,2.15l-6.01-7.02-9.09-10.31-7.85,7.05-9.42-15.61c-5.97-9.9-9.73-21.04-11.5-34.08l-.79-5.85,2.68,5.26c5.4,10.62,12.75,19.5,22.44,27.1l-.22-11.73,1.77,1.87c7.59,8.01,15.17,14.39,23.83,20.09l.32.21.1.37c3.74,14.51,14.38,33.35,24.75,43.84l16.99,17.18,27.25,22.18-5.42-1.91Z"/>
    <path class="cls-1" d="M3.57,271.53c5.74,11.29,13.79,20.77,24.37,28.7l-.21-11.23c7.43,7.83,15.13,14.4,24.01,20.23,3.82,14.8,14.77,33.94,25.01,44.29l17.03,17.22,22.83,18.59c-10.47-3.68-19.28-8.84-28.51-14.26-9.93-5.83-18.73-12.7-27.14-20.48l-8.33-9.07.05,11.23-12.14-13.34c-5.03-5.52-8.64-11.75-11.86-18.95l12.17,5.94c2.78,1.36,5.19,2.32,8.52,3.14l-8.18-9.56-9.76-11.08-7.7,6.91-8.8-14.58c-6.2-10.28-9.72-21.59-11.37-33.7M0,260.1l1.59,11.7c1.79,13.18,5.59,24.45,11.64,34.47l8.79,14.58,1.25,2.07,1.8-1.62h0s1.78,3.98,1.78,3.98c3.67,8.23,7.44,14.24,12.21,19.48l12.14,13.34,3.5,3.85-.02-5.21-.03-6.06,4.83,5.26.06.06.06.06c9.19,8.5,18.19,15.28,27.49,20.73,9.34,5.48,18.16,10.65,28.86,14.42l10.83,3.81-8.91-7.25-22.75-18.52-16.95-17.14c-10.09-10.21-20.85-29.26-24.5-43.39l-.19-.75-.65-.42c-8.6-5.65-16.11-11.99-23.65-19.94l-3.55-3.74.1,5.15.13,7.02c-8.76-7.21-15.49-15.56-20.51-25.44l-5.35-10.52h0ZM25.66,320.76l5.6-5.03,8.43,9.56,3.36,3.93c-.45-.2-.89-.41-1.34-.63l-12.17-5.94-3.89-1.9h0Z"/>
  </g>
  <g>
    <path class="cls-2" d="M388.21,388.86c20.73-14.19,43.78-32.07,57.56-57.15l.12-.23,13.37-8.46,5.17,4.14c1.4-4.09,2.41-8.29,3.15-13.1l.07-.43,17.8-12.23c7.73-5.31,13.42-12.25,18.41-18.96l3.48-4.67-1.72,5.56c-4.49,14.5-11.79,28.2-21.72,40.71l-7.7,9.71,1.02-7.59-10.66,12.78,6.09.59-1.26,1.46c-20.11,23.31-55.59,39.03-69.91,44.71l-20.67,8.2,7.39-5.05Z"/>
    <path class="cls-1" d="M504.68,283.05c-4.59,14.82-11.99,28.34-21.55,40.38l-5.44,6.86,1-7.43-14.09,16.9,6.05.59c-16.65,19.3-45.71,35-69.52,44.44l-12.35,4.9c22.92-15.68,44.48-33.11,57.87-57.5l12.55-7.94,5.71,4.57c1.76-4.82,2.88-9.48,3.67-14.6l17.45-11.98c7.48-5.14,13.18-11.85,18.65-19.18M510.03,272.51l-6.96,9.34c-4.95,6.64-10.57,13.51-18.18,18.73l-17.45,11.98-.71.49-.13.86c-.65,4.21-1.51,7.95-2.66,11.57l-3.49-2.79-1.11-.89-1.21.76-12.55,7.94-.44.28-.25.45c-13.64,24.83-35.58,41.98-57.25,56.81l-14.77,10.11,16.64-6.6,12.35-4.9c14.39-5.71,50.05-21.52,70.3-44.99l2.52-2.92-3.84-.37-2.29-.22,7.22-8.66-.07.55-.97,7.2,4.52-5.69,5.44-6.86c10-12.6,17.37-26.41,21.89-41.03l3.44-11.13h0Z"/>
  </g>
  <g>
    <path class="cls-2" d="M479.19,227.03c-2.84-9.39-6.05-16.93-10.11-23.75l-1.39-2.33c.97,6.54,1.59,12.48,1.65,18.66v.83s-9.41,1.84-9.41,1.84l-.25-.9c-5.31-19.42-11.92-34.7-20.79-48.09l-.64-.96,1.05-.49c2.63-1.24,4.84-2.78,7.63-5.32l.87-.79,6.74,10.29c-2.84-10.38-8.47-19.63-18.13-30.03l-.63-.68.63-.68c2.34-2.53,4.55-4.92,5.68-8.34l.54-1.64,1.15,1.29c24.8,27.71,38.76,61.67,37.37,90.84l-.28,5.79-1.68-5.55Z"/>
    <path class="cls-1" d="M443.04,136.61c21.25,23.75,38.69,57.15,37.11,90.13-2.53-8.37-5.67-16.35-10.21-23.97l-4.04-6.78c1.33,8.13,2.37,15.74,2.43,23.63l-7.69,1.5c-4.61-16.87-10.93-33.3-20.93-48.38,2.81-1.32,5.12-2.98,7.87-5.49l9.12,13.92c-2.62-14.6-9.72-25.26-19.58-35.87,2.43-2.62,4.71-5.11,5.9-8.7M442.22,132.7l-1.08,3.29c-1.06,3.21-3.2,5.52-5.46,7.97l-1.26,1.36,1.26,1.36c7.07,7.61,11.95,14.59,15.14,21.85l-1.54-2.35-1.29-1.96-1.73,1.58c-2.7,2.47-4.84,3.96-7.38,5.15l-2.1.99,1.28,1.93c8.82,13.29,15.38,28.48,20.66,47.8l.49,1.79,1.82-.36,7.69-1.5,1.63-.32v-1.66c-.06-4.64-.41-9.14-.99-13.84,3.49,6.23,6.33,13.14,8.87,21.55l3.36,11.1.56-11.58c.76-15.81-2.66-32.44-10.16-49.43-6.53-14.79-16.02-29.35-27.46-42.13l-2.31-2.58h0Z"/>
  </g>
  <g>
    <path class="cls-2" d="M477.37,285.72l-16.3-11.71,2.48-12.99c.64-7.4-1.7-14.97-6.58-21.31-2.7-3.51-5.93-6.28-9.34-9.2-.79-.68-1.59-1.36-2.39-2.07l-3.17-2.77,4.08,1.05c9.57,2.47,41.16,12.47,45.59,37.48,1.5,8.47-.75,17.28-6.69,26.21l-.6.9-7.07-5.59Z"/>
    <path class="cls-1" d="M445.89,227.69c19.14,4.94,41.33,16.81,44.86,36.68,1.62,9.14-1.45,17.84-6.54,25.48l-6.22-4.91-15.82-11.37,2.37-12.41c.7-7.93-1.93-15.76-6.78-22.06-3.39-4.41-7.52-7.6-11.87-11.41M438.24,223.64l6.34,5.55c.81.71,1.61,1.4,2.41,2.08,3.37,2.89,6.56,5.62,9.2,9.05,4.72,6.13,6.98,13.43,6.38,20.56l-2.35,12.31-.24,1.25,1.04.75,15.78,11.34,6.18,4.89,1.7,1.35,1.2-1.81c6.09-9.14,8.39-18.21,6.84-26.93-4.54-25.59-36.61-35.76-46.33-38.27l-8.15-2.1h0Z"/>
  </g>
  <g>
    <path class="cls-2" d="M435,303.18l1.17-.87c9.58-7.13,16.21-13.96,21.5-22.12l.45-.69.76.3c9.38,3.74,16.41,7.31,23.5,11.96l.87.57-.6.85c-4.4,6.22-8.81,11.12-13.86,15.43-3.65,3.45-7.26,6.16-10.99,8.26l-.52.29-22.29-13.97Z"/>
    <path class="cls-1" d="M458.52,280.73c8.5,3.39,15.79,6.93,23.33,11.86-4.11,5.81-8.4,10.74-13.69,15.25-3.44,3.24-6.95,5.97-10.83,8.14l-20.55-12.88c8.72-6.49,15.91-13.37,21.74-22.38M457.73,278.26l-.89,1.38c-5.22,8.06-11.78,14.81-21.26,21.87l-2.35,1.75,2.48,1.55,20.55,12.88,1.01.63,1.04-.58c3.79-2.13,7.45-4.88,11.19-8.4,5.1-4.36,9.55-9.31,13.99-15.58l1.2-1.69-1.74-1.14c-7.06-4.62-14.37-8.33-23.68-12.05l-1.53-.61h0Z"/>
  </g>
  <g>
    <path class="cls-2" d="M409,338.4c-4.42-4.18-7.95-8.14-10.81-12.11l-.7-.98,1.09-.51c9.95-4.65,19.35-10.06,31.43-18.08l.49-.33,24.96,12.92-1.48.93c-13.32,8.41-28.15,14.6-44.07,18.4l-.53.12-.39-.37Z"/>
    <path class="cls-1" d="M430.57,307.56l22.89,11.84c-13.36,8.44-27.89,14.48-43.77,18.27-4.02-3.8-7.65-7.75-10.68-11.97,11.31-5.29,21.29-11.33,31.56-18.15M430.44,305.25l-.98.65c-12.04,7.99-21.4,13.37-31.3,18l-2.18,1.02,1.41,1.96c2.89,4.02,6.47,8.03,10.93,12.25l.79.74,1.05-.25c16.03-3.82,30.96-10.05,44.37-18.52l2.95-1.86-3.1-1.6-22.89-11.84-1.04-.54h0Z"/>
  </g>
  <g>
    <path class="cls-2" d="M123.17,117.55l1.25-.84c7.78-5.23,16.05-9.94,25.27-14.38,14.26-6.03,31.33-12.48,50.15-14.79l8.23-1.01-7.76,2.94c-25.25,9.56-46.73,20.96-65.67,34.84l-.56.41-10.91-7.16Z"/>
    <path class="cls-1" d="M199.96,88.52c-23.51,8.91-45.33,19.89-65.91,34.96l-9.08-5.95c7.95-5.35,16.25-10.03,25.15-14.31,15.97-6.75,32.05-12.52,49.84-14.7M216.19,84.51l-16.47,2.02c-18.94,2.33-36.09,8.81-50.37,14.84l-.05.02-.04.02c-9.27,4.47-17.58,9.19-25.4,14.45l-2.5,1.68,2.52,1.65,9.08,5.95,1.16.76,1.12-.82c18.87-13.82,40.28-25.18,65.44-34.71l15.52-5.88h0Z"/>
  </g>
  <g>
    <path class="cls-2" d="M121.24,417.31c-4.85-.68-9.85-.99-16.22-.99-3.48,0-7.08.09-10.56.18l-4.78.12,4.34-2.03c8.29-3.88,15.5-7.79,22.68-12.3l.38-.24,31,8.74-26.64,6.54-.19-.03Z"/>
    <path class="cls-1" d="M117.22,403.14l26.92,7.59-22.77,5.59c-5.51-.78-10.9-1-16.36-1-3.48,0-6.99.09-10.59.18,8.17-3.82,15.35-7.68,22.79-12.36M116.91,400.97l-.75.47c-7.16,4.5-14.33,8.39-22.57,12.25l-8.67,4.06,9.57-.25c3.47-.09,7.06-.18,10.54-.18,6.32,0,11.28.3,16.08.98l.38.05.37-.09,22.77-5.59,7.37-1.81-7.3-2.06-26.92-7.59-.85-.24h0Z"/>
  </g>
  <g>
    <path class="cls-2" d="M370.72,413.53l-12.24-2.75,30.94-8.74,26.84,14.31-4.05-.02c-1.51,0-2.98-.02-4.43-.02-7.35,0-13.64.22-20.42,1.3l-.2.03-16.43-4.12Z"/>
    <path class="cls-1" d="M389.3,403.12l22.92,12.22c-1.51,0-2.99-.02-4.45-.02-7,0-13.45.18-20.57,1.32l-16.23-4.07-8.41-1.89,26.75-7.56M389.53,400.97l-.77.22-26.75,7.56-7.6,2.15,7.7,1.73,8.41,1.89,16.18,4.06.4.1.4-.06c6.71-1.07,12.95-1.29,20.26-1.29,1.45,0,2.93,0,4.44.02l8.1.05-7.15-3.81-22.92-12.22-.71-.38h0Z"/>
  </g>
  <g>
    <path class="cls-2" d="M53.56,380.93l5.46,1.15c13.47,2.85,25.39,6.71,38.01,10.8l5.39,1.74-14.92,7.73-33.94-21.42Z"/>
    <path class="cls-1" d="M58.81,383.06c14.55,3.08,27.61,7.45,41.02,11.78l-12.28,6.36-28.73-18.14M48.31,378.8l9.43,5.96,28.73,18.14.97.61,1.02-.53,12.28-6.36,4.26-2.2-4.56-1.47-3.11-1.01c-12.09-3.92-24.58-7.97-38.11-10.83l-10.92-2.31h0Z"/>
  </g>
  <g>
    <path class="cls-2" d="M404.16,394.42l2.54-.67c4.72-1.24,9.49-2.66,14.1-4.03,8.57-2.55,17.44-5.18,27.09-7.05l5.41-1.05-33.69,20.64-15.46-7.85Z"/>
    <path class="cls-1" d="M448.08,383.66l-28.51,17.47-12.62-6.41c13.36-3.51,26.26-8.18,41.12-11.06M458.53,379.6l-10.83,2.1c-9.7,1.88-18.59,4.52-27.18,7.07-4.82,1.43-9.37,2.78-14.07,4.02l-5.09,1.34,4.69,2.38,12.62,6.41,1,.51.95-.58,28.51-17.47,9.41-5.76h0Z"/>
  </g>
  <g>
    <path class="cls-2" d="M47.82,258.92l.73-.48c9.14-6,17.85-10.05,27.42-12.74l5.08-1.43-4.2,3.19c-9.16,6.95-16.04,13.15-22.02,22.6l-.97,1.53-6.03-12.67Z"/>
    <path class="cls-1" d="M76.24,246.66c-8.69,6.59-15.94,12.88-22.26,22.86l-4.88-10.25c8.39-5.51,17.09-9.78,27.14-12.61M85.85,241.87l-10.16,2.86c-9.66,2.72-18.47,6.81-27.7,12.87l-1.46.96.75,1.58,4.88,10.25,1.56,3.27,1.94-3.06c5.9-9.32,12.71-15.46,21.78-22.34l8.41-6.38h0Z"/>
  </g>
  <g>
    <path class="cls-2" d="M216.03,80.47c5.19-1.61,10.92-3.1,17.68-3.1.45,0,.91,0,1.37.02l7.91.23-15.96,3.61-10.6,1.19-.41-1.95Z"/>
    <path class="cls-1" d="M233.71,78.37c.44,0,.89,0,1.34.02l-8.19,1.85-10.54,1.18c5.75-1.78,11.16-3.05,17.39-3.05M233.71,76.37h0c-6.9,0-12.72,1.51-17.98,3.14l.81,3.9,10.54-1.18h.11s.11-.04.11-.04l8.19-1.85,15.45-3.49-15.83-.46c-.47-.01-.94-.02-1.4-.02h0Z"/>
  </g>
  <g>
    <path class="cls-2" d="M215.68,152.53c-2.13,0-3.93-3.81-4.13-5.07l-.06-.36.18-.31c1.67-2.83,5.18-3.83,7.67-3.83h.31s7.74.25,7.74.25l1.01,6.37-.79.27c-3.61,1.24-7.71,2.65-11.92,2.68h-.01Z"/>
    <path class="cls-1" d="M219.35,143.96c.09,0,.19,0,.28,0l6.91.22.75,4.72c-3.81,1.31-7.67,2.59-11.6,2.62,0,0,0,0,0,0-1.28,0-2.94-2.95-3.14-4.23,1.31-2.21,4.23-3.34,6.81-3.34M219.35,141.96h0c-2.76,0-6.65,1.13-8.54,4.32l-.37.62.12.71c.23,1.42,2.21,5.91,5.12,5.91,4.4-.03,8.57-1.47,12.26-2.73l1.59-.55-.26-1.66-.75-4.72-.26-1.63-1.65-.05-6.91-.22c-.11,0-.23,0-.34,0h0Z"/>
  </g>
</svg>