<?xml version="1.0" encoding="UTF-8"?>
<svg id="katman_1" data-name="katman 1" xmlns="http://www.w3.org/2000/svg" viewBox="0 0 506.39 510.61">
  <defs>
    <style>
      .cls-1 {
        fill: #548e00;
      }
    </style>
  </defs>
  <g>
    <path class="cls-1" d="M298.99,503.51c7.46-16.82,11.02-32.1,11.18-47.94-18.25,7.14-37.36,10.76-56.82,10.76s-38.49-3.58-56.89-10.66c-.1,15.13,3.39,30.35,10.95,47.76l1.1,2.53-24.82-12.46c-15.73-9.63-27.42-21.21-35.8-35.43-7.6-13.34-11.57-28.18-11.8-44.12-18.36-21.12-30.46-46.52-35.03-73.52-13.1-17.52-23.42-34.69-31.54-52.48-10.18-22.65-15.98-45.08-17.74-68.58-2.91-41.35,7.58-82.06,30.33-117.72,22.28-34.92,53.59-61.98,98.52-85.17l3.4-1.75-2.61,3.96c-9.1,13.82-17.7,26.88-25.14,41.21-7.86,15.37-12.98,28.86-16.11,42.47-5.26,22.54-4.31,45.75,2.72,67.14l.16.48-17.11,23.97-.72-1.57c-7.67-16.76-11.77-34.33-12.19-52.24-.71-15.06,1.06-30.04,5.74-48.08-18.79,21.68-31.74,47.61-38.5,77.13-6.43,28.87-5,57.91,4.25,86.31,4.16,12.87,9.73,25.52,17.02,38.61,2.63-14.94,7.01-28.77,13.68-43.29,6.58-14.32,13.25-26.23,21-37.49l27.66-40.2c1.73-2.52,3.46-5.01,5.18-7.51,9.04-13.09,17.58-25.45,25.92-38.82,19.4-31.1,34.65-60.96,46.63-91.28l11.7-29.61.91,2.45c17.26,46.72,36.88,86.59,61.74,125.47l32.98,48.25,21.37,31.19c6.75,10.65,14.5,23.4,20.92,37.55,6.57,14.4,10.96,28.26,13.71,43.38,7.53-13.6,13.25-26.75,17.46-40.1,17.54-54.84,4.24-116.47-34.68-161.92,6.41,23.96,7.56,46.59,3.52,69.05-2.01,10.28-5.15,20.17-9.9,31.16l-.71,1.63-17.13-24.16.15-.48c6.71-20.82,7.81-42.34,3.27-63.95-2.56-13.03-7.14-25.92-14.86-41.8-7.86-15.91-17.11-30.12-27.51-45.71l-2.13-3.2,3.42,1.75c56.36,28.86,93.85,66.78,114.59,115.91,19.21,46.41,19.57,97.81,1.01,144.75-8.27,21.18-20.06,41.94-36.04,63.43-4.7,27.33-16.83,52.7-35.09,73.4-.07,26.21-11.11,50.17-31.11,67.52-6.17,5.53-12.84,9.84-19.15,13.78l-.09.05-22.08,10.73,1.11-2.5ZM322.56,424.3c4.35,7.54,5.92,15,6.87,21.31v.08s-.36,18.62-.36,18.62c17.12-16.35,24.79-39.54,20.55-62.49l-.09-.49.34-.37c12.32-13.42,21.04-27.69,26.65-43.62,8.16-23.02,8.84-47.68,1.95-71.33-8.28-29.57-25.95-56.45-41.87-79.33l-31-44.54c-17.71-25.44-30.87-47.72-41.42-70.12l-10.98-23.3c-9.51,21.8-20.91,43.46-34.81,66.15-13.28,21.66-27.83,42.32-40.67,60.54l-.1.15c-19.89,28.23-40.45,57.42-49.79,90.97-11.5,40.59-.99,82.33,28.84,114.54l.34.37-.09.5c-4.28,22.63,3.12,45.18,20.34,62.24l-.43-13.77c-.26-8.34,2.11-17.12,7.03-26.1l.5-.9.89.52c20.68,12.17,44.24,18.6,68.12,18.6h0c23.85,0,47.29-6.42,67.81-18.58l.87-.52.51.88Z"/>
    <path d="M253.26,8.69c16.83,45.57,35.96,85.2,61.84,125.66l33,48.27,21.37,31.19c7.75,12.22,14.85,24.2,20.84,37.4,6.72,14.71,11.36,29.39,14.12,45.91,7.81-13.77,14.15-27.65,18.92-42.75,18.47-57.73,2.86-121-37.78-166.17,7.12,24.44,9.05,48.49,4.68,72.83-2.11,10.79-5.37,20.62-9.83,30.94l-15.81-22.3c6.71-20.82,7.85-42.75,3.29-64.46-2.93-14.89-8.31-28.39-14.94-42.03-7.94-16.07-17.36-30.51-27.58-45.83,51.42,26.33,91.58,62.02,114.13,115.41,19.14,46.23,19.39,97.47,1,143.99-8.87,22.72-21.31,43.58-36.06,63.39-4.65,27.31-16.64,52.57-35.14,73.42.04,26.08-11.17,50.15-30.77,67.14-5.95,5.34-12.23,9.45-19.02,13.69l-19.62,9.54c7.19-16.21,11.33-32.28,11.27-49.82-18.55,7.46-38.13,11.23-57.83,11.23s-39.02-3.67-57.87-11.11c-.38,17.3,4,33.46,11.01,49.61l-22.36-11.23c-14.55-8.91-26.7-20.3-35.39-35.05-7.7-13.52-11.49-28.35-11.66-44-18.34-21-30.49-46.13-35.08-73.54-12.47-16.65-23.01-33.72-31.58-52.49-9.77-21.74-15.86-44.32-17.65-68.24-2.92-41.45,7.9-82.2,30.18-117.11,24.15-37.85,58.02-64.12,98.14-84.82-9.37,14.22-18.1,27.43-25.69,42.06-7.07,13.82-12.71,27.52-16.2,42.7-5.28,22.64-4.47,45.75,2.75,67.67l-15.81,22.15c-7.49-16.36-11.68-33.73-12.1-51.84-.83-17.68,1.92-34.22,6.8-51.88-21.03,23.1-34.7,50.87-41.54,80.73-6.48,29.08-4.94,58.57,4.27,86.84,4.71,14.57,10.93,28.01,18.49,41.25,2.63-16.42,7.31-31.12,14.07-45.82,6.05-13.16,12.7-25.4,20.92-37.34l27.66-40.2c10.65-15.48,21.15-30.38,31.12-46.36,18.25-29.26,34.06-59.42,46.71-91.44l10.74-27.18M178.33,466.58l-.5-16.22c-.28-9.05,2.58-17.7,6.91-25.58,21.2,12.47,44.92,18.74,68.62,18.74s47.22-6.22,68.33-18.72c3.92,6.8,5.64,13.67,6.75,20.96l-.41,20.88c18.48-16.56,27-41.04,22.58-65,12.03-13.1,21.06-27.5,26.85-43.97,8.32-23.46,8.93-48.04,1.97-71.94-8.12-29.01-24.88-55-42.01-79.62l-31-44.54c-15.6-22.41-29.72-45.32-41.34-69.98l-11.92-25.31c-10.37,24.08-22.22,46.18-35.62,68.05-12.81,20.9-26.54,40.48-40.63,60.49-20.05,28.46-40.64,57.65-50.03,91.42-11.86,41.88-.22,83.86,29.07,115.48-4.61,24.4,4.25,47.9,22.4,64.85M253.32,3.08l-1.92,4.87-10.74,27.18c-11.96,30.26-27.18,60.07-46.55,91.12-8.32,13.35-16.86,25.7-25.89,38.78-1.72,2.49-3.45,4.99-5.18,7.51l-27.66,40.2c-7.78,11.31-14.48,23.27-21.09,37.64-6.29,13.7-10.56,26.79-13.25,40.76-6.6-12.16-11.71-23.98-15.59-35.97-9.2-28.23-10.62-57.1-4.22-85.79,6.39-27.87,18.32-52.53,35.51-73.41-3.92,16.3-5.39,30.21-4.73,44.21.42,17.99,4.55,35.7,12.28,52.58l1.44,3.14,2.01-2.81,15.81-22.15.59-.82-.32-.96c-6.98-21.21-7.91-44.24-2.7-66.6,3.11-13.53,8.2-26.95,16.03-42.25,7.4-14.27,15.99-27.31,25.08-41.11l.5-.76,4.2-6.38-6.79,3.51c-21.53,11.12-39.66,22.97-55.43,36.23-17.48,14.71-31.7,30.83-43.48,49.29-22.87,35.85-33.42,76.76-30.49,118.33,1.76,23.62,7.59,46.17,17.82,68.92,8.13,17.8,18.44,34.97,31.51,52.48,4.61,26.97,16.7,52.36,34.99,73.49.29,15.98,4.29,30.85,11.91,44.23,8.36,14.2,20.5,26.22,36.08,35.76l.07.04.08.04,22.36,11.23,4.93,2.48-2.2-5.06c-7.26-16.72-10.74-31.4-10.87-45.91,18.1,6.78,36.88,10.21,55.89,10.21s37.85-3.46,55.8-10.29c-.36,15.18-3.9,29.9-11.07,46.07l-2.22,5,4.92-2.39,19.62-9.54.1-.05.09-.06c6.35-3.96,13.07-8.3,19.3-13.9,9.98-8.65,17.8-19.03,23.23-30.81,5.36-11.64,8.12-24.11,8.2-37.06,18.2-20.72,30.3-46.07,35.03-73.37,15.96-21.5,27.75-42.26,36.03-63.47,18.65-47.17,18.29-98.84-1.02-145.49-11.05-26.16-26.31-48.57-46.68-68.52-18.57-18.18-40.93-33.85-68.38-47.91l-6.84-3.5,4.26,6.39c10.38,15.57,19.61,29.74,27.45,45.61,7.67,15.78,12.23,28.59,14.77,41.53,4.51,21.46,3.42,42.81-3.23,63.46l-.31.95.58.82,15.81,22.3,2.06,2.9,1.41-3.27c4.77-11.05,7.94-21.01,9.96-31.35,3.82-21.29,3.03-42.7-2.44-65.23,36.51,44.83,48.67,104.42,31.67,157.58-3.95,12.5-9.21,24.8-16.05,37.48-2.79-14.14-7.06-27.26-13.27-40.87-6.44-14.19-14.22-26.99-20.97-37.64l-.02-.03-.02-.03-21.37-31.19-32.98-48.24c-24.82-38.82-44.4-78.61-61.63-125.25l-1.81-4.91h0ZM176.18,461.63c-15.7-16.59-22.35-38.02-18.28-59.52l.19-.99-.69-.74c-29.58-31.94-40.01-73.34-28.61-113.58,9.29-33.39,29.81-62.51,49.64-90.67l.1-.15c12.85-18.24,27.42-38.92,40.71-60.6,13.5-22.02,24.64-43.09,33.99-64.26l10.04,21.32c10.58,22.45,23.77,44.78,41.51,70.27l31,44.54c15.87,22.81,33.49,49.6,41.73,79.01,6.83,23.46,6.16,47.91-1.93,70.73-5.56,15.81-14.21,29.97-26.44,43.28l-.67.73.18.98c4.03,21.83-2.87,43.87-18.52,59.86l.32-16.07v-.17s-.02-.17-.02-.17c-.97-6.4-2.56-13.97-6.99-21.66l-1.01-1.75-1.74,1.03c-20.37,12.06-43.64,18.44-67.31,18.44s-47.08-6.38-67.61-18.46l-1.78-1.04-.99,1.81c-5.01,9.13-7.42,18.09-7.15,26.61l.35,11.2h0Z"/>
  </g>
  <g>
    <path class="cls-1" d="M97.17,241.14c-9.71-28.64-10.12-57.68-1.2-83.98l2.3-6.78-.35,7.15c-1.2,24.14,2.56,43.75,11.83,61.71l.23.46-12.05,23.7-.76-2.25Z"/>
    <path d="M96.91,157.48c-1.09,21.97,1.82,42.61,11.94,62.21l-10.74,21.12c-9.31-27.46-10.33-56.42-1.2-83.34M99.62,143.28l-4.6,13.56c-8.99,26.51-8.57,55.77,1.2,84.62l1.52,4.5,2.15-4.23,10.74-21.12.46-.91-.47-.91c-9.18-17.79-12.91-37.24-11.72-61.2l.71-14.3h0Z"/>
  </g>
  <g>
    <path class="cls-1" d="M396.55,219.78l.22-.45c9.67-19.41,13.59-40.34,11.66-62.21l-.68-7.67,2.61,7.25c9.21,25.54,8.82,55.56-1.11,84.55l-.77,2.25-11.94-23.71Z"/>
    <path d="M409.43,157.03c9.6,26.61,8.09,57.01-1.12,83.89l-10.65-21.14c9.72-19.51,13.71-40.62,11.76-62.74M406.09,141.86l1.35,15.35c1.91,21.68-1.98,42.43-11.56,61.67l-.45.9.45.89,10.65,21.14,2.14,4.25,1.54-4.5c10-29.2,10.39-59.46,1.11-85.21l-5.23-14.49h0Z"/>
  </g>
  <g>
    <path class="cls-1" d="M253.29,421.32c-1.64,0-3.31-.04-4.96-.11-33.78-1.44-64.56-17.6-84.45-44.32-13.58-18.26-20.4-40.36-19.2-62.24.75-13.75,4.15-27.38,10.68-42.88,5.59-13.26,12.08-25.27,19.86-36.71l21.25-31.28c19.72-28.29,40.26-58.69,55.85-92.15l.91-1.94.91,1.94c15.52,33.23,36.22,63.91,56.09,92.5l2.53,3.63c22.39,32.14,47.76,68.57,49.05,108.85.72,22.38-6.42,43.87-20.66,62.17-21.03,27.04-53.06,42.55-87.86,42.55ZM309.77,360.66c-1.28,7.76-4.36,14.42-9.41,20.34-3.37,4.39-7.8,7.51-12.22,10.43,20.92-7.21,37.3-24.41,43.52-46.18,1.6-7,3-14.4,1.86-21.7-2.63,15.03-10.93,28.05-23.76,37.1ZM216,215.68l-20.86,31.7c-12.66,19.24-25.08,48.79-21.99,74.03.59,4.82,3.52,20.55,16.35,20.55h0c.55,0,1.12-.03,1.7-.09,4.78-.51,8.92-3.73,11.05-8.6,2.06-4.7,2.13-10,1.95-14.09-1.09-25.98,5.28-58.49,18.95-96.63l14.19-39.6-21.33,32.73Z"/>
    <path d="M253.23,112.05c15.35,32.88,35.56,63,56.18,92.64,22.97,33.03,50.07,70.44,51.4,111.94.72,22.47-6.73,43.89-20.45,61.52-20.85,26.81-52.81,42.16-87.07,42.16-1.63,0-3.27-.03-4.91-.11-33.56-1.43-63.96-17.41-83.69-43.92-13.22-17.77-20.23-39.32-19.01-61.59.83-15.05,4.82-28.82,10.61-42.55,5.46-12.94,11.88-24.92,19.76-36.54l21.25-31.28c20.54-29.47,40.57-59.33,55.93-92.29M241.15,175.26l-25.99,39.88-20.86,31.7c-13.61,20.69-25.2,49.84-22.15,74.7,1.39,11.34,6.95,21.43,17.34,21.43.59,0,1.19-.03,1.8-.1,5.04-.54,9.57-3.95,11.86-9.19,1.97-4.5,2.25-9.45,2.04-14.53-1.31-31.08,8.34-66.82,18.89-96.25l17.06-47.63M282.17,394.22c24.79-5.95,43.72-25.07,50.46-48.69,2.11-9.25,3.67-18.38.59-27.41-1.47,17.66-10.32,32.2-24.37,41.96-1.21,7.75-4.23,14.38-9.25,20.27-4.67,6.08-11.34,9.63-17.43,13.86M253.22,107.32l-1.81,3.89c-15.55,33.38-36.07,63.75-55.75,91.99l-21.26,31.3c-7.81,11.5-14.34,23.56-19.95,36.88-6.58,15.61-10,29.34-10.76,43.21-1.21,22.11,5.68,44.45,19.4,62.89,20.06,26.97,51.12,43.27,85.21,44.72,1.66.07,3.34.11,5,.11,35.11,0,67.42-15.65,88.65-42.93,14.38-18.48,21.59-40.2,20.87-62.82-1.3-40.58-26.77-77.13-49.23-109.39l-2.53-3.63c-19.85-28.55-40.52-59.19-56.01-92.35l-1.81-3.89h0ZM189.5,340.96c-12.01,0-14.79-15.06-15.35-19.67-3.06-24.97,9.27-54.27,21.83-73.36l20.86-31.7,16.68-25.6-11.31,31.58c-13.71,38.26-20.1,70.9-19,97.01.18,4.23.1,9.16-1.87,13.65-1.99,4.54-5.82,7.54-10.24,8.01-.54.06-1.07.09-1.59.09h0ZM310.69,361.24c10.91-7.8,18.54-18.44,22.23-30.75-.16,4.9-1.15,9.81-2.23,14.55-5.33,18.6-18.2,33.82-34.98,42.15,1.97-1.64,3.82-3.46,5.45-5.57,5.06-5.95,8.18-12.63,9.53-20.38h0Z"/>
  </g>
  <g>
    <path class="cls-1" d="M335.46,441.62c.49-9.2-.97-16.43-4.58-22.76l-.42-.73,10.61-8.72.34,1.61c2.35,11,.9,22.05-4.08,31.13l-2.11,3.84.23-4.37Z"/>
    <path d="M340.44,411.23c2.21,10.37,1.11,21.17-3.98,30.44.44-8.4-.67-16.23-4.71-23.31l8.69-7.14M341.71,407.6l-2.54,2.09-8.69,7.14-1.3,1.07.84,1.47c3.51,6.15,4.92,13.21,4.45,22.21l-.46,8.75,4.21-7.68c5.09-9.29,6.58-20.59,4.18-31.82l-.69-3.21h0Z"/>
  </g>
  <g>
    <path class="cls-1" d="M169.06,441.71c-4.87-8.57-6.3-19.11-4.13-30.49l.31-1.6,10.85,8.4-.44.76c-4.19,7.19-4.74,15.03-4.71,22.44l.02,3.82-1.89-3.32Z"/>
    <path d="M165.91,411.4l8.86,6.87c-4.11,7.06-4.88,14.54-4.85,22.95-5.1-8.99-6-19.42-4.02-29.81M164.55,407.82l-.61,3.21c-2.21,11.62-.74,22.4,4.24,31.17l3.77,6.64-.03-7.64c-.04-8.39.73-15.33,4.57-21.93l.88-1.51-1.39-1.07-8.86-6.87-2.58-2h0Z"/>
  </g>
</svg>