<?xml version="1.0" encoding="UTF-8"?>
<svg id="katman_1" data-name="katman 1" xmlns="http://www.w3.org/2000/svg" viewBox="0 0 512.39 510.61">
  <defs>
    <style>
      .cls-1 {
        fill: #fff;
      }
    </style>
  </defs>
  <g>
    <path d="M5,477.03c-1.38,0-2.5-1.12-2.5-2.5v-13.98c0-.66.26-1.3.73-1.77.47-.47,1.1-.73,1.77-.73l395.35-.07-62.64-33.41-101.18-46.33c-.14-.06-.27-.14-.39-.22l-57.41-40.17,4.08,21.51,35.73,27.22,19.81,15.54c.46.36.78.88.9,1.45l9.53,44.97c.2.94-.16,1.91-.92,2.5-.45.34-.99.52-1.53.52-.38,0-.76-.09-1.12-.26l-110.96-55.53c-.63-.32-1.1-.88-1.29-1.56l-23.09-82.66c-3.17-11.37-1.67-22.15,4.36-31.2l6.72-12.24c-5.82-.46-10.67-1.76-15.65-4.12l-13.75-6.51c-7.47-3.54-13.26-9.69-16.75-17.8-5.55-12.9-2.88-28.12,6.81-38.79,6.79-7.48,16.58-11.77,26.84-11.77,3.9,0,7.8.61,11.58,1.8,5.03,1.59,9.42,4.23,13.67,6.78.92.55,1.84,1.11,2.78,1.66,9.11,5.34,15.97,11.84,20.87,19.8l17.63-14.02c5.94-4.73,13.12-6.33,19.45-7.74l117.51-22.2c1.17-.22,2.39-.33,3.62-.33,7.61,0,15.88,4.23,21.07,10.77,4.39,5.55,6.01,11.99,4.56,18.16-1.16,4.93-4.61,8.86-9.23,10.51l-69.78,24.94-23.72,8.31,31.71,27.07,86.69.79c16.87.15,31.32,9.89,37.71,25.41l35.43,86.12c2.5,6.07,2.79,12.13.89,18.46l20.38,13.25c6.52,4.24,10.75,10.99,11.9,18.99,1.01,7-.53,14.31-4.15,20.37l48.37.03c.67,0,1.31.27,1.78.74.47.47.73,1.12.72,1.78l-.12,13.98c-.01,1.37-1.13,2.48-2.5,2.48H5ZM346.12,406.08c.05.02.1.05.15.07l82.94,44.57c1.75.94,3.49,1.42,5.19,1.42,1.19,0,2.36-.24,3.47-.72,4.02-1.73,5.54-5.66,5.63-8.76.1-3.66-1.82-6.76-5.71-9.23l-58.73-37.26-45.84-26.75-65.2-36.92c-.95-.54-1.44-1.63-1.21-2.71.23-1.07,1.13-1.86,2.22-1.96l84.12-7.5c.07,0,.15,0,.22,0,.91,0,1.75.49,2.19,1.3l30.28,55.18,24.95,15.72-35.11-84.78c-2.8-6.76-9.76-11.92-16.19-12l-95.86-1.2c-.58,0-1.15-.22-1.59-.6l-25.34-21.6-34.9-29.46c-.69-.58-1.01-1.48-.85-2.36s.78-1.61,1.63-1.91l117.4-41.32c-1.25-1.52-3.21-2.23-4.97-2.23-.45,0-.91.04-1.35.13l-118.47,22.51c-4.54.86-8.18,3.4-11.14,5.76l-17.84,14.24c-2.35,1.87-5.38,2.86-8.76,2.87-6,0-12.77-3.2-15.07-7.13-3.56-6.06-6.68-10.95-11.81-14.01l-13.53-8.07c-2.53-1.51-5.25-2.27-8.1-2.27-2.54,0-5.09.61-7.59,1.83-3.39,1.65-7.48,5.44-8.76,11.15-1.58,7.01,1.45,14.15,7.2,16.97l11.89,5.84c4.58,2.25,9.09,3.34,13.79,3.34,1.76,0,3.58-.16,5.43-.46.56-.09,1.13-.14,1.69-.14,4.74,0,8.55,3.11,10.53,6.03,2.75,4.05,3.18,9.64,1.03,13.6l-13.81,25.42c-1.99,3.66-2.43,8.02-1.25,12.28l21.27,76.52,71.39,35.9-.91-3.96-55.71-42.41c-.49-.38-.83-.92-.94-1.53l-13.17-70.25c-.19-1,.25-2.01,1.1-2.56.41-.27.88-.4,1.35-.4.5,0,1.01.15,1.44.45l90.71,63.74,100.5,45.63ZM352.16,357.2l-8.68-16.01-16.9,1.56,25.58,14.45Z"/>
    <path class="cls-1" d="M315.56,177.36c12.32,0,26.36,12.41,23.19,25.86-.92,3.93-3.66,7.31-7.64,8.73l-69.78,24.94-27.81,9.74,35.71,30.49,87.6.8c15.73.14,29.44,9.34,35.42,23.86l35.43,86.12c2.54,6.18,2.55,12.19.22,18.55l22,14.31c13.29,8.64,14.51,27.78,4.25,39.77l53.23.03-.12,13.98H5s0-13.98,0-13.98l405.34-.07-71.53-38.15-101.25-46.36-62.45-43.69,5.4,28.49,36.49,27.8,19.79,15.52,9.53,44.97-110.96-55.53-23.09-82.66c-2.87-10.29-1.87-20.33,4.09-29.22l8.7-15.85c-7.14-.12-12.82-1.28-18.7-4.07l-13.75-6.51c-7.14-3.38-12.4-9.27-15.52-16.52-5.36-12.46-2.44-26.42,6.36-36.12,6.47-7.13,15.54-10.95,24.99-10.95,3.59,0,7.24.55,10.83,1.68,5.79,1.83,10.68,5.13,15.94,8.21,8.89,5.21,16.32,12.01,21.43,21.4l19.9-15.83c5.31-4.22,11.7-5.75,18.44-7.26l117.43-22.19c1.03-.19,2.09-.29,3.16-.29M157.43,238.09c-5.53,0-11.24-3.05-12.91-5.9-3.42-5.83-6.85-11.41-12.68-14.89l-13.53-8.07c-2.9-1.73-6.09-2.62-9.38-2.63-2.87,0-5.8.68-8.68,2.08-4.49,2.18-8.75,6.84-10.11,12.85-1.73,7.68,1.35,16.24,8.54,19.76l11.89,5.84c4.85,2.38,9.72,3.6,14.89,3.6,1.9,0,3.84-.16,5.84-.49.43-.07.86-.11,1.29-.11,3.53,0,6.71,2.36,8.46,4.93,2.06,3.03,2.74,7.61.9,11l-13.81,25.42c-2.33,4.29-2.81,9.28-1.46,14.15l21.56,77.58,77.14,38.79-2.32-10.03-56.43-42.95-13.17-70.25,90.91,63.87,100.72,45.73,82.94,44.57c2.07,1.11,4.23,1.71,6.37,1.71,1.51,0,3.01-.3,4.46-.92,4.56-1.97,7.02-6.46,7.14-10.98.13-4.84-2.54-8.66-6.87-11.41l-58.73-37.26-45.92-26.8-65.23-36.94,84.12-7.5,30.59,55.74,30.1,18.97c.28-1.12.3-2.93-.25-4.25l-35.83-86.5c-2.95-7.12-10.52-13.45-18.47-13.54l-95.86-1.2-25.34-21.6-34.91-29.47,120.04-42.25c-1.06-3.89-4.63-6.15-8.45-6.15-.6,0-1.21.06-1.82.17l-118.47,22.51c-4.81.91-8.64,3.39-12.23,6.26l-17.84,14.24c-2.07,1.66-4.62,2.32-7.2,2.32M358.5,363.66l-13.61-25.11-26.5,2.45,40.11,22.66M315.56,172.36c-1.39,0-2.77.13-4.09.38l-117.43,22.19c-.05.01-.11.02-.16.03-6.6,1.47-14.07,3.14-20.46,8.22l-15.48,12.31c-4.98-7.25-11.64-13.27-20.2-18.29-.93-.54-1.84-1.09-2.75-1.64-4.37-2.63-8.89-5.34-14.2-7.02-4.03-1.27-8.17-1.92-12.33-1.92-10.97,0-21.43,4.59-28.69,12.59-10.34,11.39-13.18,27.66-7.25,41.46,3.73,8.68,9.95,15.27,17.98,19.07l13.75,6.51c4.09,1.94,8.2,3.21,12.75,3.9l-4.88,8.9c-6.39,9.65-7.99,21.11-4.62,33.16l23.09,82.66c.38,1.36,1.32,2.49,2.58,3.13l110.96,55.53c.71.35,1.47.53,2.24.53,1.09,0,2.16-.35,3.06-1.04,1.52-1.17,2.23-3.11,1.83-4.99l-9.53-44.97c-.24-1.15-.88-2.17-1.81-2.9l-19.79-15.52s-.04-.03-.06-.04l-34.96-26.64-2.75-14.53,52.38,36.65c.25.17.51.32.78.45l101.11,46.3,53.76,28.67-385.35.07c-1.33,0-2.6.53-3.54,1.47S0,459.22,0,460.54v13.98c0,2.76,2.24,5,5,5h502.26c2.74,0,4.98-2.21,5-4.96l.12-13.98c.01-1.33-.51-2.62-1.45-3.56-.94-.95-2.22-1.48-3.55-1.48l-44.24-.02c2.5-5.67,3.4-11.98,2.5-18.23-1.26-8.73-5.88-16.09-13.02-20.73l-18.86-12.26c1.51-6.24,1.02-12.26-1.47-18.31l-35.43-86.12c-3.31-8.03-8.8-14.8-15.88-19.57-7.07-4.75-15.4-7.31-24.11-7.39l-85.78-.79-27.71-23.66,19.6-6.86,69.81-24.95c5.42-1.94,9.47-6.53,10.83-12.29,1.63-6.92-.16-14.12-5.04-20.28-5.64-7.12-14.68-11.72-23.02-11.72h0ZM157.43,243.09c3.95,0,7.52-1.18,10.32-3.41l17.84-14.24c2.86-2.28,6.05-4.5,10.05-5.26l112.63-21.4-106.53,37.5c-1.69.6-2.93,2.05-3.26,3.81-.32,1.76.32,3.57,1.69,4.72l34.91,29.47,25.33,21.58c.89.76,2.01,1.18,3.18,1.19l95.86,1.2c6.03.08,11.81,5.38,13.91,10.46l32.11,77.52-17.75-11.18-29.97-54.61c-.88-1.61-2.57-2.59-4.38-2.59-.15,0-.3,0-.45.02l-84.12,7.5c-2.18.19-3.98,1.78-4.44,3.92-.46,2.14.52,4.33,2.42,5.41l65.2,36.92,45.82,26.74,58.65,37.21c4.66,2.96,4.58,6.04,4.55,7.05-.06,2.32-1.18,5.26-4.12,6.53-.81.35-1.62.52-2.48.52-1.28,0-2.62-.38-4.01-1.12l-82.94-44.57c-.1-.05-.2-.1-.3-.15l-100.29-45.54-90.52-63.6c-.86-.6-1.87-.91-2.87-.91-.94,0-1.88.26-2.71.8-1.71,1.1-2.58,3.13-2.21,5.13l13.17,70.25c.23,1.22.9,2.31,1.89,3.06l47.77,36.36-58.91-29.62-20.97-75.45c-1.02-3.68-.66-7.29,1.04-10.42l13.81-25.42c2.62-4.82,2.15-11.33-1.16-16.2-2.34-3.44-6.88-7.12-12.6-7.12-.7,0-1.41.06-2.1.17-1.71.28-3.4.43-5.02.43-4.31,0-8.46-1.01-12.69-3.08l-11.89-5.84c-5.35-2.63-7-9.12-5.86-14.18,1.09-4.84,4.67-8.12,7.41-9.45,2.15-1.05,4.34-1.58,6.5-1.58,2.39,0,4.68.65,6.81,1.92l13.53,8.07c4.61,2.75,7.56,7.37,10.93,13.12,2.75,4.69,10.32,8.37,17.23,8.37h0ZM334.76,344.51l7.3-.68,3.75,6.92-11.05-6.24h0Z"/>
  </g>
  <g>
    <path d="M458.02,395.78c-.46,0-.91-.12-1.3-.37l-13.96-8.51c-1.17-.71-1.55-2.23-.85-3.4,35.53-60.32,39.92-134.46,11.74-198.32-12.07-27.35-30.6-52.8-53.62-73.6-31.5-28.2-70.02-46.5-111.53-53.04l-.05,24.53c16.23,2.82,31.63,7.57,46.99,14.51,37.88,17.63,69.58,47.31,89.29,83.58,25.04,46.1,29.93,101.73,13.44,152.64-.21.63-.65,1.16-1.25,1.46-.35.18-.74.27-1.13.27-.26,0-.53-.04-.79-.13l-14.94-4.94c-1.3-.43-2.01-1.83-1.6-3.14,24.21-75.6-4.29-155.73-70.92-199.39-23.4-15.13-49.83-24.08-78.53-26.59-1.29-.11-2.28-1.19-2.28-2.49l.03-60.73c0-.69.28-1.34.78-1.81.47-.44,1.08-.68,1.72-.68.05,0,.09,0,.14,0,30.71,1.7,60.38,9.26,88.2,22.48,27.76,13.19,52.36,31.39,73.14,54.1,40.56,44.1,62.69,101.19,62.31,160.77.2,42.25-11.17,84.29-32.89,121.55-.34.58-.9,1-1.55,1.17-.2.05-.41.08-.61.08Z"/>
    <path class="cls-1" d="M269.28,38.13c61.12,3.38,118.37,30.67,159.63,75.77,39.85,43.33,62.03,99.99,61.66,159.06.21,42.58-11.33,83.91-32.55,120.31l-13.96-8.51c35.99-61.1,40.5-135.72,11.88-200.6-12.49-28.31-31.23-53.65-54.23-74.44-32.44-29.04-72.2-47.83-115.7-54.08l-.06,29.55c17.17,2.79,32.85,7.62,48.46,14.68,37.35,17.38,68.43,46.25,88.12,82.5,25.1,46.22,29.47,100.63,13.26,150.67l-14.94-4.94c24.89-77.72-4.42-158-71.93-202.24-23.94-15.48-51.12-24.49-79.68-26.99l.03-60.73M269.28,33.13c-1.27,0-2.5.49-3.44,1.37-1,.94-1.56,2.26-1.56,3.63l-.03,60.73c0,2.59,1.98,4.76,4.56,4.98,28.29,2.48,54.33,11.3,77.4,26.21,65.66,43.02,93.75,122.01,69.89,196.52-.84,2.61.59,5.41,3.19,6.27l14.94,4.94c.51.17,1.04.25,1.57.25.78,0,1.55-.18,2.26-.54,1.19-.6,2.09-1.65,2.5-2.92,8.32-25.67,11.37-52.16,9.09-78.74-2.31-26.84-9.95-52.36-22.71-75.86-10.02-18.46-22.95-35.14-38.42-49.59-15.37-14.36-32.86-26.15-51.99-35.05-.02,0-.03-.02-.05-.02-14.9-6.73-29.83-11.43-45.51-14.33l.04-19.5c39.93,6.84,76.95,24.73,107.38,51.96,22.73,20.55,41.06,45.71,52.99,72.73,27.85,63.13,23.51,136.42-11.61,196.04-1.39,2.35-.63,5.38,1.7,6.81l13.96,8.51c.79.48,1.69.73,2.6.73.41,0,.82-.05,1.23-.15,1.3-.33,2.42-1.17,3.09-2.33,21.94-37.65,33.43-80.12,33.23-122.83.37-60.2-22-117.89-62.98-162.45-20.99-22.94-45.85-41.33-73.9-54.66-28.11-13.36-58.1-21-89.13-22.72-.09,0-.18,0-.28,0h0Z"/>
  </g>
  <g>
    <path d="M46.6,381.25c-.26,0-.52-.04-.77-.12-.63-.2-1.16-.65-1.46-1.24-26.39-51.64-32.43-114.08-16.56-171.32,15.66-56.49,52.14-105.25,102.71-137.28,33.82-21.08,72.7-33.42,112.44-35.72.05,0,.1,0,.14,0,.64,0,1.25.24,1.72.68.5.47.78,1.13.78,1.82l.03,60.82c0,1.3-.99,2.38-2.28,2.49-20.7,1.8-39.79,6.83-58.34,15.36-28.54,13.49-52.16,33.73-70.18,60.16-.38.55-.96.93-1.62,1.05-.15.03-.29.04-.44.04-.52,0-1.02-.16-1.45-.46l-13.12-9.32c-1.11-.79-1.38-2.32-.62-3.45,12.2-17.86,27.02-33.36,44.05-46.07,24.78-18.58,52.41-30.54,82.15-35.56v-24.49c-50.73,7.56-97.39,33.61-131.65,73.58-31.49,36.74-49.36,81.58-51.68,129.68-1.83,38.14,6.09,75.56,22.92,108.21.3.59.36,1.28.16,1.91s-.65,1.16-1.24,1.46l-14.56,7.49c-.36.18-.75.28-1.14.28Z"/>
    <path class="cls-1" d="M243.11,38.07l.03,60.82c-20.85,1.82-40.39,6.94-59.17,15.58-28.9,13.66-53.13,34.53-71.2,61.02l-13.12-9.32c12.02-17.6,26.46-32.77,43.48-45.47,24.51-18.38,52.49-30.61,83.16-35.44v-29.49c-52.86,7.13-101.26,34.25-136.05,74.83-31.57,36.83-49.94,82.6-52.28,131.18-1.83,38,5.77,75.67,23.19,109.48l-14.56,7.49c-26.44-51.73-31.8-113.87-16.37-169.51,15.63-56.39,52.3-104.58,101.64-135.84,33.52-20.89,71.5-33.04,111.25-35.33M243.11,33.07c-.1,0-.19,0-.29,0-40.16,2.32-79.44,14.79-113.6,36.08-51.12,32.39-87.98,81.65-103.81,138.74-16.03,57.83-9.93,120.93,16.74,173.12.6,1.18,1.65,2.08,2.92,2.48.5.16,1.02.24,1.53.24.79,0,1.57-.19,2.29-.55l14.56-7.49c1.18-.61,2.07-1.66,2.47-2.92.4-1.26.29-2.64-.32-3.82-16.63-32.27-24.45-69.25-22.64-106.95,2.29-47.54,19.95-91.86,51.08-128.17,33.22-38.76,78.23-64.28,127.26-72.28v19.46c-29.35,5.29-56.63,17.28-81.16,35.67-17.25,12.87-32.26,28.57-44.61,46.65-1.54,2.25-.99,5.32,1.23,6.9l13.12,9.32c.85.61,1.87.92,2.9.92.29,0,.59-.03.88-.08,1.32-.24,2.49-.99,3.25-2.1,17.77-26.05,41.04-46,69.18-59.3,18.28-8.41,37.08-13.36,57.49-15.13,2.58-.23,4.57-2.39,4.57-4.98l-.03-60.82c0-1.38-.57-2.69-1.57-3.63-.93-.88-2.16-1.36-3.43-1.36h0Z"/>
  </g>
  <g>
    <path d="M125.86,449.29c-.57,0-1.14-.2-1.6-.58l-54.92-45.76c-1.05-.88-1.2-2.43-.34-3.5l8.57-10.55c.42-.51,1.02-.84,1.68-.91.09,0,.17-.01.26-.01.57,0,1.13.2,1.58.56l15.04,12.24-7.26-25.9c-.37-1.32.4-2.7,1.72-3.08l13.1-3.76c.23-.07.46-.1.69-.1.42,0,.84.11,1.22.32.58.32,1.01.87,1.19,1.51l21.5,76.34c.3,1.05-.13,2.18-1.05,2.78-.42.27-.89.4-1.36.4Z"/>
    <path class="cls-1" d="M104.36,370.45l21.5,76.34-54.92-45.76,8.57-10.55,21.15,17.22-9.39-33.49,13.1-3.76M104.36,365.45c-.46,0-.93.06-1.38.19l-13.1,3.76c-2.64.76-4.18,3.51-3.43,6.15l5.13,18.31-8.92-7.27c-.9-.73-2.01-1.12-3.16-1.12-.17,0-.34,0-.51.03-1.32.14-2.53.79-3.37,1.82l-8.57,10.55c-1.73,2.12-1.42,5.24.68,6.99l54.92,45.76c.92.77,2.06,1.16,3.2,1.16.94,0,1.89-.27,2.72-.8,1.84-1.19,2.69-3.44,2.09-5.55l-21.5-76.34c-.36-1.28-1.22-2.37-2.38-3.01-.75-.42-1.59-.63-2.43-.63h0Z"/>
  </g>
  <g>
    <path d="M68.07,443.58c-.55,0-1.11-.18-1.57-.56l-43.36-35.11c-.52-.42-.84-1.02-.91-1.68s.13-1.32.54-1.83l8.73-10.79c.49-.61,1.22-.93,1.94-.93.55,0,1.11.18,1.57.56l43.37,35.11c.52.42.84,1.02.91,1.68s-.13,1.32-.54,1.83l-8.73,10.79c-.49.61-1.22.93-1.94.93Z"/>
    <path class="cls-1" d="M33.44,395.19l43.37,35.11-8.73,10.79-43.37-35.11,8.73-10.79M33.44,390.19c-.17,0-.35,0-.52.03-1.32.14-2.53.8-3.36,1.83l-8.73,10.79c-1.74,2.15-1.41,5.29.74,7.03l43.37,35.11c.89.72,2.01,1.11,3.15,1.11.17,0,.35,0,.52-.03,1.32-.14,2.53-.8,3.36-1.83l8.73-10.79c1.74-2.15,1.41-5.29-.74-7.03l-43.37-35.11c-.89-.72-2.01-1.11-3.15-1.11h0Z"/>
  </g>
</svg>