<?xml version="1.0" encoding="UTF-8"?>
<svg id="katman_1" data-name="katman 1" xmlns="http://www.w3.org/2000/svg" viewBox="0 0 506.39 510.61">
  <defs>
    <style>
      .cls-1 {
        fill: red;
      }
    </style>
  </defs>
  <g>
    <path class="cls-1" d="M158.38,506.12l-17.31-.66-.12-1.99,82.3-13.41,43.27-86.31-10.65-7.94-15.58-15.89-13.95-16.26,31.88,17.92,19.01,10.37,58.02-35.54,38.23-48.75-17.41-1.86-25.79,4.77-17.84-15.85-.99-11.54-16.17-.81,12.14,42.47-33.34-54.78-12.17-9.46,4.56,39.69-14.33,25.94-16.19,25.38,18.77-56.7-12.1-49.52-16.67-15.39-11.02-5.36-9.46,7.33-.08.04c-9.27,4.81-18.94,8.53-30.42,11.69l-5.09,1.4,25.71-19.26c1.25-.94,2.31-2.42,3.34-3.85.05-.08.11-.15.16-.23l-9.17-.92c-5.02-.51-9.54-1.88-14.33-3.33-.98-.3-1.97-.6-2.97-.89l-4.71-1.39,26.2-3.05,11.9-2.06,4.29-7.13-9.85-16.21-2.23-19.95,2.19,2.87c1.35,1.77,2.63,3.58,3.86,5.33,2.24,3.18,4.36,6.18,6.91,9.03,2.3,2.57,4.81,4.78,7.47,7.12,1.17,1.03,2.35,2.06,3.52,3.14l28.07,4.69,18.73-6.38c4.61-1.57,8.34-4.15,11.41-7.88,2.69-3.28,5.46-7.27,6.32-12.43l-15.69,14.39-29.06-10.15-.8-8.86v-.08c.38-5.98,3.03-12.01,7.49-17.12l-40.35-17.65c-3.52,4.93-6.62,10.53-9.46,17.09l-1.98,4.58.18-14.87c.02-1.31.37-2.72.76-4.1l-5.32,2.05-.22,25.05-7.24-17.93-51.07,66.61,20.4,89,3.4,13.84,18.85,15.09c5.37,4.3,10.1,7.81,15.7,10.95l29.5,16.52-42.16-10.88-26.3-15.41-84.01,99.14,45.21,58.14-1.45,1.37-66.55-58.3,86.58-101.85,9.13-10.38-24.79-110.5,34.67-45.24,28.2-36.81,24.77-8.79c.58-.21,1.21-.31,1.85-.31,1.14,0,2.38.33,3.69.98l16.67-25.57,18.48-6.86,26.44-8.89,31.5,18.54,4,16.12,16.63-1.21.3.22c10.93,8.05,20.25,15.49,29.32,23.42l.31.27,1.55,23.27,10.92,1.07,5.69,5.57c7.55,7.4,13.73,14.18,19.44,21.35l.24.3-1.16,22.64,5.69,1.87c2.5.82,4.8,3.4,6.52,5.55l14.19,17.71-1.36,41.16-26.66,37.8-33.61,43.46-10.74,13.59-61.91,38.12-10.25,20.66-34.05,68.56-4.82,10.07-75.52-.53ZM377.19,302.53l16.44-23.08c-5.67,4.17-11.24,7.43-16.48,10.35-3.44,1.76-6.59,3.78-9.61,6.19l9.65,6.54ZM334.65,294.84l16.04-2.71,45.72-36.88-1.02,3.18c-1.88,5.88-3.98,10.27-6.79,14.23l-2.66,3.75,10.67-1.12,4.11-5.76,1.34-31.72-12.25-14.53-8.17-1.78-53.5,50.29c-1.58,1.48-2.4,2.81-2.37,3.31l.67,12.27,8.22,7.47ZM302.8,266.68c4.61-.25,8.67-.98,13.27-2.01l59.57-55.81,1.35-18.55-16.49-17.48-12.25-1.04-15.45,18.37-43.64,51.22-.28,14.05,13.92,11.24ZM264.92,230.66c.91.75,2.41,1.29,3.58,1.29.15,0,.29,0,.43-.03l11.78-1.64,30.11-35.08,30-35.11-.69-18.63-20.34-16.44-15.61,1.67-16.68,25.32,12.99,6.06.1,11.29c-.47,9.77-4.05,18.28-10.65,25.36-4.74,5.08-9.1,8.15-14.16,9.97l-15.53,5.58c5.84,4.44,12.73,9.49,20.37,14.29l2.19,1.38-2.55.45c-1.71.3-3.33.46-4.83.46-5.72,0-10.24-2.15-14.21-6.78-1.79-2.09-2.71-4.7-3.6-7.23-.18-.51-.36-1.01-.54-1.5l-3.99.95-.03,8.6,11.86,9.77ZM268.95,176.57l13.35-11.71-23.16-9.89c-3.51,3.5-9.23,9.45-8.88,14.79l18.7,6.81ZM274.95,146.89l13.81-20.95,5.24-8.12-3.4-13.27-20.34-11.76-33.25,11.34-12.68,20.05,4.65,2.32,7.15-12.48,17.44-11.76-5.72,11.44c-1.16,2.31-2.34,4.54-3.48,6.7-1.92,3.63-3.73,7.07-5.44,10.84l36.02,15.67Z"/>
    <path d="M272.05,77.63l30.74,18.1,4.1,16.53,17.1-1.24c10.26,7.55,19.75,15.06,29.25,23.37l1.58,23.7,11.41,1.12,5.44,5.33c6.97,6.82,13.31,13.66,19.36,21.26l-1.18,23.02,6.41,2.11c2.28.75,4.49,3.27,6.05,5.22l13.96,17.42-1.34,40.49-26.49,37.55-33.58,43.43-10.62,13.45-62,38.17-10.38,20.92-34.05,68.56-4.55,9.51-74.88-.53-17.28-.66,82.8-13.49,43.87-87.51-11.26-8.4-15.53-15.83-10.22-11.91,26.95,15.14,19.53,10.65,58.66-35.94,39.45-50.31-19.35-2.06-25.45,4.71-17.18-15.26-1.03-12.01-18.44-.93,10.49,36.69-29.59-48.61-14.19-11.04,4.8,41.74-14.18,25.66-11.85,18.57,16.34-49.37-12.25-50.09-17-15.7-11.71-5.7-9.88,7.66c-9.69,5.03-19.56,8.68-30.23,11.62l21.48-16.09c1.88-1.41,3.24-3.75,4.75-5.7l-10.92-1.1c-5.96-.6-11.34-2.49-17.11-4.18l21.33-2.48,12.4-2.15,4.84-8.04-10.05-16.54-1.8-16.14c3.71,4.87,6.78,9.89,10.83,14.42,3.44,3.85,7.42,6.96,11.27,10.53l28.61,4.78,18.97-6.46c4.83-1.64,8.7-4.34,11.86-8.2,3.71-4.53,6.57-9.37,6.8-15.57l-17.18,15.76-27.88-9.74-.73-8.14c.42-6.67,3.73-12.85,8.16-17.54l-42.37-18.54c-4.12,5.64-7.34,11.69-10.04,17.93l.12-9.89c.02-1.76.73-3.77,1.27-5.76l-7.82,3.01-.18,20.7-6.01-14.89-52.42,68.37,20.5,89.46,3.48,14.18,19.11,15.31c5.16,4.13,10.06,7.81,15.83,11.04l22.77,12.75-34.56-8.92-26.91-15.76-85.08,100.4,45.71,58.78-65.81-57.65,85.94-101.1,9.45-10.75-24.8-110.54,34.39-44.87,28.02-36.58,24.49-8.69c.49-.17,1-.25,1.52-.25,1.32,0,2.7.52,4.02,1.29l16.99-26.07,18.17-6.75,25.98-8.73M229.37,127.82l7.5-13.1,14.09-9.5-4.02,8.03c-3.19,6.38-6.47,11.98-9.35,18.5l37.72,16.41,14.27-21.65,5.48-8.49-3.62-14.1-21.09-12.2-34.02,11.6-13.46,21.29,6.49,3.23M275.43,225.85c-5.33,0-9.63-1.98-13.45-6.43-2.23-2.59-3.08-6.25-4.28-9.25l-5.6,1.34-.03,9.86,12.22,10.07c1.04.86,2.78,1.51,4.21,1.51.19,0,.38-.01.57-.04l12.16-1.69,30.35-35.37,30.25-35.41-.72-19.48-21.01-16.99-16.49,1.76-17.57,26.68,13.47,6.29.09,10.66c-.45,9.46-4.01,17.84-10.38,24.66-3.96,4.25-8.25,7.73-13.77,9.71l-17.26,6.21c7.12,5.44,14.16,10.59,21.91,15.45-1.64.29-3.19.44-4.66.44M269.16,177.71l14.99-13.15-25.25-10.78c-4.59,4.57-10.48,10.79-9.58,16.7l19.84,7.23M302.47,267.7c4.74-.23,8.98-.97,14.08-2.11l60.05-56.26,1.41-19.38-17.05-18.07-13.14-1.12-15.78,18.77-43.86,51.49-.3,14.9,14.6,11.79M334.34,295.91l16.77-2.83,43.32-34.95c-1.68,5.25-3.69,9.79-6.65,13.96l-3.95,5.55,12.22-1.29c-6.26,4.95-12.52,8.75-19.38,12.58-3.87,1.98-7.42,4.32-10.8,7.13l11.57,7.85,24.25-34.04,1.37-32.41-12.72-15.09-9.01-1.96-53.88,50.66c-1.08,1.01-2.75,2.88-2.69,4.09l.69,12.68,8.89,8.08M272.28,75.44l-.87.29-25.98,8.73h-.03s-.03.02-.03.02l-18.17,6.75-.62.23-.36.55-16.02,24.58c-1.16-.47-2.27-.71-3.32-.71-.76,0-1.5.12-2.19.37l-24.49,8.69-.56.2-.36.47-28.02,36.58-34.39,44.87-.57.74.2.91,24.58,109.55-8.78,9.98-85.97,101.13-1.28,1.5,1.48,1.3,65.81,57.65,2.9-2.73-44.71-57.5,82.94-97.88,25.46,14.91.24.14.27.07,34.56,8.92,14.93,3.85-13.45-7.53-22.77-12.75c-5.54-3.1-10.23-6.58-15.56-10.86l-18.58-14.88-3.32-13.52-20.29-88.51,49.72-64.85,4.7,11.65,3.77,9.33.09-10.06.17-19.34,2.88-1.11c-.18.82-.3,1.65-.31,2.46l-.12,9.89-.12,9.97,3.96-9.15c2.68-6.2,5.6-11.53,8.89-16.24l38.38,16.79c-4.08,5.05-6.49,10.88-6.86,16.68v.15s0,.15,0,.15l.73,8.14.12,1.28,1.22.43,27.88,9.74,1.13.39.88-.81,12.78-11.72c-.99,2.82-2.71,5.64-5.29,8.79-2.94,3.59-6.53,6.06-10.96,7.57l-18.49,6.3-27.53-4.6c-1.11-1.02-2.23-2-3.31-2.95-2.64-2.32-5.12-4.5-7.38-7.03-2.51-2.81-4.61-5.79-6.84-8.94-1.24-1.76-2.52-3.57-3.88-5.36l-4.38-5.75.8,7.18,1.8,16.14.05.44.23.38,9.42,15.51-3.74,6.22-11.44,1.98-21.27,2.48-9.75,1.13,9.41,2.77c1,.29,1.98.59,2.96.89,4.83,1.47,9.39,2.85,14.51,3.37l7.45.75c-.73.97-1.46,1.85-2.27,2.46l-21.48,16.09-8.45,6.33,10.18-2.8c11.55-3.18,21.28-6.92,30.62-11.77l.16-.08.14-.11,8.89-6.89,10.33,5.03,16.34,15.09,11.97,48.95-16.16,48.82-5.03,15.21,8.62-13.5,11.85-18.57.03-.05.03-.06,14.18-25.66.31-.56-.07-.64-4.25-37.01,10.15,7.89,29.4,48.3,7.7,12.65-4.07-14.24-9.72-34.01,13.91.7.88,10.27.07.79.6.53,17.18,15.26.73.65.96-.18,25.16-4.65,15.47,1.65-37,47.19-57.37,35.14-18.52-10.1-26.92-15.13-9.87-5.55,7.37,8.59,10.22,11.91.04.05.05.05,15.53,15.83.11.11.12.09,9.92,7.4-42.66,85.1-81.8,13.32.24,3.97,17.28.66h.03s.03,0,.03,0l74.88.53h1.27s.55-1.14.55-1.14l4.55-9.51,34.04-68.53,10.13-20.4,61.51-37.87.3-.19.22-.28,10.62-13.45,33.6-43.44.03-.03.03-.04,26.49-37.55.34-.49.02-.6,1.34-40.49.02-.74-.46-.58-13.96-17.42c-1.81-2.26-4.24-4.97-6.99-5.87l-4.96-1.63,1.1-21.5.04-.76-.47-.59c-5.74-7.2-11.95-14.02-19.53-21.44l-5.44-5.33-.5-.49-.7-.07-9.72-.95-1.46-22.01-.06-.83-.62-.55c-9.09-7.95-18.43-15.41-29.39-23.47l-.59-.44-.74.05-15.42,1.12-3.69-14.9-.2-.82-.72-.43-30.74-18.1-.79-.46h0ZM237.66,104.96l32.49-11.08,19.58,11.32,3.19,12.44-5,7.76-13.34,20.23-34.31-14.92c1.57-3.39,3.24-6.55,4.99-9.86,1.14-2.16,2.32-4.4,3.48-6.72l4.02-8.03,3.41-6.81-6.31,4.26-14.09,9.5-.39.26-.23.4-6.56,11.46-2.81-1.4,11.9-18.82h0ZM304.75,127.63l14.73-1.57,19.66,15.89.66,17.79-29.75,34.81-26.39,30.75-2.52-1.58c-6.98-4.39-13.33-8.98-18.83-13.12l13.8-4.96c5.22-1.88,9.7-5.03,14.55-10.23,6.77-7.25,10.44-15.98,10.91-25.93v-.06s0-.06,0-.06l-.09-10.66v-1.26s-1.15-.53-1.15-.53l-11.37-5.31,15.78-23.96h0ZM251.24,169.05c.15-4.52,4.87-9.62,8.13-12.9l21.08,9-11.71,10.27-17.5-6.38h0ZM290.15,241.76l43.4-50.95,15.12-17.99,11.35.96,15.92,16.88-1.29,17.72-59.08,55.35c-4.31.96-8.15,1.65-12.45,1.91l-13.24-10.69.26-13.21h0ZM254.09,213.08l2.35-.56c.08.22.15.43.23.66.88,2.49,1.87,5.32,3.79,7.55,4.12,4.8,9.01,7.13,14.97,7.13,1.56,0,3.24-.16,5.01-.47l1.7-.3-1.94,2.26-11.41,1.58c-.09.01-.18.02-.29.02-.93,0-2.22-.46-2.94-1.06l-11.49-9.46.02-7.34h0ZM326.76,275.12c.1-.38.8-1.42,2.06-2.6l53.11-49.93,7.32,1.59,11.78,13.97-1.31,31.04-3.67,5.15-.2.02-7.81.82,1.38-1.94c2.88-4.05,5.01-8.52,6.93-14.51l2.03-6.36-5.19,4.19-42.92,34.62-15.3,2.58-7.56-6.87-.64-11.78h0ZM369.24,295.93c2.64-2,5.39-3.72,8.33-5.22l.03-.02.03-.02c3.79-2.12,7.77-4.42,11.83-7.11l-12.53,17.58-7.7-5.22h0Z"/>
  </g>
  <g>
    <path class="cls-1" d="M87.28,308.95l-52.36,24.41,49.37-79.39-37.97.17,29.3-20.13-66.14-21.73,28.24-14.88,68.5-36.49-36.67-70.29,40.43,19.79-10.84-16.16,22.98,7.06L69.44,25.8l107.24,56.27-6.33-32.38,19.34,16.37,1.27-38.54,32.95,60.78-23.09-25.23-.96,26.28-12.35-10.75,4.86,24.45-87.27-45.98,44.98,64.53-23.4-7.13,17.28,24.6-32.44-15.51-16.41-7.98,26.03,49.99-83.08,44.32,62.64,20.55-18.5,12.44h22s-40.36,64.81-40.36,64.81l49.2-22.57-14.36,26.03c1.87-.89,3.68-1.79,5.45-2.67,4.67-2.32,9.08-4.52,14.29-6.39l5-1.8-53.28,46.43,17.13-37.76Z"/>
    <path d="M72.6,28.59l105.45,55.33-6.18-31.63,18.75,15.86,1.22-36.92,27.31,50.38-19.24-21.02-.98,26.63-12.98-11.3,5.02,25.26-89.05-46.92,45.67,65.53-23.41-7.14,16.76,23.85-28.99-13.87-19.13-9.3,26.97,51.8-84.27,44.96,62.92,20.64-19.52,13.13h23.48s-41.17,66.11-41.17,66.11l49.47-22.69-14.36,26.04c7.83-3.51,14.26-7.37,22.43-10.3l-45.81,39.91,16.34-36.03-51.76,24.13,48.55-78.07-36.54.16,28.28-19.43-65.82-21.63,26.15-13.78,69.37-36.96-35.72-68.47,41.04,20.09-11.34-16.91,23.06,7.08L72.6,28.59M66.27,23.01l4.69,6.72,48.66,69.77-17.51-5.38-5.39-1.65,3.14,4.68,7.19,10.72-34.35-16.82-5.47-2.68,2.82,5.4,34.8,66.71-67.62,36.02-26.14,13.78-4.17,2.2,4.48,1.47,61.99,20.37-24.95,17.14-5.35,3.68,6.49-.03,32.92-.15-46.64,75-3.55,5.71,6.09-2.84,46.86-21.85-14.11,31.11-3.8,8.38,6.93-6.04,45.81-39.91,8.02-6.99-10.01,3.6c-5.26,1.89-9.91,4.2-14.4,6.43-.86.43-1.73.86-2.61,1.3l11.37-20.62,2.93-5.31-5.52,2.53-43.42,19.91,37.65-60.46,1.9-3.06h-3.6s-16.92,0-16.92,0l14.08-9.47,3.4-2.28-3.89-1.28-58.47-19.18,80.14-42.75,1.75-.93-.91-1.76-24.17-46.43,13.68,6.66,29,13.87,6.89,3.3-4.39-6.25-13.41-19.09,17.85,5.44,5.53,1.69-3.31-4.74-40.97-58.79,81.77,43.09,3.71,1.96-.82-4.12-3.88-19.52,8.57,7.45,3.16,2.75.15-4.18.8-21.75,15.94,17.42,10.99,12.01-7.76-14.32-27.31-50.38-3.51-6.48-.24,7.37-1.08,32.79-15.59-13.2-4.35-3.68,1.09,5.59,5.38,27.54L73.53,26.82l-7.26-3.81h0Z"/>
  </g>
  <g>
    <polygon class="cls-1" points="417.4 301.49 432.25 299.59 426.75 283.89 457.68 273.9 431.9 254.99 473.02 207.73 416.11 204.82 456.18 161.62 404.68 174.88 438.63 147.21 403.86 157.62 429.95 124.96 399.92 133.42 451.47 49.82 373.61 102.45 379.08 70.42 338.9 89.78 337.86 88.08 394.95 45.16 389.15 78.54 487.75 12.34 424.55 114.67 461.17 104.44 434.77 136.65 490.58 119.39 451.2 151.33 490.57 141.12 440.39 194.91 496.47 197.64 448.13 253.24 482.38 278.53 438.96 289.88 444.5 310.98 417.4 301.49"/>
    <path d="M484.47,15.75l-62.12,100.57,36.04-10.07-26.5,32.33,54.04-16.71-38.94,31.58,40.5-10.51-49.31,52.86,56.18,2.73-47.71,54.86,33.44,24.69-42.36,11.07,5.32,20.25-21.33-7.46,11.88-1.52-5.57-15.91,31.81-10.27-26.48-19.43,41.76-47.99-56.82-2.9,40.92-44.14-50.38,12.98,34.31-27.97-36.53,10.93,26.04-32.59-30.55,8.62,52.64-85.38-79.77,53.92,5.4-31.63-41.93,20.2,55.07-41.4-5.77,33.19L484.47,15.75M491.03,8.94l-7.67,5.15-92.82,62.31,4.97-28.58.86-4.98-4.04,3.03-55.07,41.4,2.07,3.4,38.44-18.52-4.75,27.81-.79,4.62,3.88-2.62,72.07-48.71-47.76,77.47-2.69,4.37,4.94-1.39,24.56-6.93-22.15,27.73-3.99,5,6.13-1.83,26.9-8.05-26.52,21.62-7.07,5.76,8.83-2.28,43.78-11.28-36.29,39.14-2.91,3.14,4.27.22,52.72,2.69-39.06,44.89-1.43,1.64,1.75,1.29,23.32,17.11-28.09,9.07-1.95.63.68,1.93,4.75,13.58-9.43,1.21-8.4,1.07,8,2.8,21.33,7.46,3.55,1.24-.96-3.64-4.81-18.31,40.43-10.57,4.05-1.06-3.37-2.49-31.69-23.4,46.28-53.23,2.7-3.11-4.12-.2-51.88-2.52,46.37-49.7,4.69-5.03-6.65,1.73-31.59,8.19,31.78-25.78,8.04-6.52-9.89,3.06-47.69,14.74,22.28-27.19,4.01-4.9-6.1,1.7-31.11,8.69,59.43-96.22,4.86-7.86h0Z"/>
  </g>
  <g>
    <polygon class="cls-1" points="336.66 435.77 327.69 464.18 299.11 420.11 323.28 441.35 332.57 411.39 361.98 451.54 364.27 372.02 381.03 408.96 381.32 392.39 411.5 429.21 382.21 342.53 407.48 381.23 428.27 444.4 439.55 480.45 391.45 422.33 393.82 465.45 384.66 445.86 374.1 421.54 372.09 485.08 336.66 435.77"/>
    <path d="M385.68,349.67l20.89,32,20.75,63.04,9.75,31.18-46.78-56.53,2.24,40.99-6.97-14.92-12.33-28.38-2.05,65.04-34.88-48.53-8.94,28.29-23.49-36.22,19.89,17.48,9.16-29.54,29.96,40.9,2.24-78.11,16.8,37.04.33-18.29,31.93,38.96-28.52-84.42M378.75,335.38l5.04,14.92,25.01,74.03-24.97-30.48-3.45-4.21-.1,5.44-.17,9.43-13.14-28.97-3.57-7.87-.25,8.64-2.07,72.29-26.52-36.2-2.35-3.2-1.18,3.79-8.25,26.59-17.57-15.45-10.88-9.56,7.88,12.15,23.49,36.22,2.31,3.56,1.28-4.04,7.74-24.49,32.55,45.29,3.44,4.78.19-5.89,1.77-56.14,8.78,20.2v.02s.02.02.02.02l6.97,14.92,4.37,9.36-.56-10.32-1.91-34.93,42.91,51.86,6.49,7.84-3.04-9.71-9.75-31.18-20.76-63.07-.08-.25-.14-.22-20.89-32-8.61-13.19h0Z"/>
  </g>
  <g>
    <path class="cls-1" d="M417.15,379.8l-7.8-14.96,33.11,14.18-19.11-24.07-24.22-30.09,24.27,14.82-4.69-34.75,25.13,54.66c.47,1.03.91,2.08,1.35,3.13,1.23,2.96,2.39,5.76,4.32,8.05l33.63,39.93-65.98-30.89Z"/>
    <path d="M420.59,311.42l22.34,48.58c1.79,3.88,3.07,8.15,5.81,11.41l30.7,36.45-61.55-28.82-6.35-12.17,34.17,14.64-21.57-27.17-20.63-25.63,21.16,12.92-4.08-30.2M416.82,298.43l1.79,13.26,3.51,26.04-17.58-10.73-9.8-5.98,7.2,8.95,20.63,25.63,16.64,20.96-26.89-11.52-5.15-2.21,2.59,4.97,6.35,12.17.31.6.61.29,61.55,28.82,8.24,3.86-5.86-6.96-30.7-36.45c-1.82-2.17-2.96-4.9-4.16-7.79-.43-1.04-.88-2.12-1.36-3.17l-22.34-48.58-5.59-12.15h0Z"/>
  </g>
  <g>
    <polygon class="cls-1" points="126.67 472.83 183.45 375.7 150.29 340.75 177.9 356.26 205.43 371.67 128.34 473.94 126.67 472.83"/>
    <path d="M155.57,344.86l21.84,12.27,26.54,14.85-76.41,101.35,57.15-97.78-29.12-30.7M145.01,336.63l9.11,9.61,28.08,29.61-56.39,96.48,3.32,2.21,76.41-101.35,1.38-1.83-2-1.12-26.54-14.85-21.83-12.27-11.54-6.49h0Z"/>
  </g>
  <g>
    <path class="cls-1" d="M172.72,450.07l45.23-74.3,41.1,32.94-5.32-1.78c-8.79-2.94-16.98-6.41-24.89-9.76-2.4-1.02-4.8-2.04-7.22-3.04l-47.26,57.1-1.62-1.16Z"/>
    <path d="M218.21,377.26l35.83,28.72c-11.62-3.89-21.95-8.61-32.73-13.06l-47.73,57.67,44.63-73.33M217.69,374.27l-1.18,1.94-44.63,73.33,3.25,2.32,46.79-56.53c2.2.92,4.4,1.85,6.54,2.75,7.93,3.36,16.13,6.84,24.96,9.79l10.64,3.56-8.76-7.02-35.83-28.72-1.78-1.42h0Z"/>
  </g>
  <g>
    <polygon class="cls-1" points="478.7 374.58 438.48 337.47 488.02 355.61 494.76 388.88 478.7 374.58"/>
    <path d="M442.84,340.13l44.32,16.23,6.03,29.79-13.82-12.31-36.53-33.7M434.12,334.81l7.36,6.79,36.53,33.7,13.85,12.34,4.48,3.99-1.19-5.88-6.03-29.79-.22-1.1-1.05-.38-44.32-16.23-9.4-3.44h0Z"/>
  </g>
  <g>
    <polygon class="cls-1" points="37.9 135.3 29.75 105.59 50.54 121.04 91.61 152.58 37.9 135.3"/>
    <path d="M31.48,108.12l18.46,13.72,36.49,28.01-47.7-15.34-7.24-26.39M28.02,103.05l1.54,5.6,7.24,26.39.29,1.04,1.03.33,47.7,15.34,10.97,3.53-9.14-7.02-36.49-28.01-18.48-13.74-4.66-3.46h0Z"/>
  </g>
  <g>
    <polygon class="cls-1" points="379.65 17.83 412.12 10.4 361.02 60.61 379.65 17.83"/>
    <path d="M408.9,12.16l-44.9,44.13,16.37-37.59,28.53-6.53M415.34,8.63l-6.89,1.58-28.53,6.53-.98.23-.4.93-16.37,37.59-4.11,9.45,7.35-7.22,44.9-44.13,5.04-4.95h0Z"/>
  </g>
  <g>
    <path class="cls-1" d="M326.49,62.52l-37.26,12.02,54.97-34.91-6.4,19.83c-4.34,13.47-8.45,26.19-13.89,39.59l-2.86,7.04,5.44-43.59Z"/>
    <path d="M342.4,41.97l-5.34,16.56c-4.38,13.56-8.56,26.57-14.07,40.16l4.69-37.6-31.29,10.1,46.01-29.22M346,37.31l-4.68,2.97-46.01,29.22-13.24,8.41,14.93-4.82,28.3-9.13-4.3,34.49-1.88,15.09,5.72-14.09c5.46-13.44,9.57-26.18,13.92-39.67l.2-.63,5.34-16.56,1.7-5.27h0Z"/>
  </g>
  <g>
    <path class="cls-1" d="M147.23,40.82c-8.83-12.87-14.89-22.86-20.26-33.42l-2-3.93,32.21,24.67,7.32,36.89-17.27-24.22Z"/>
    <path d="M127.86,6.95l28.41,21.76,6.34,31.96-14.57-20.43c-7.37-10.74-14.09-21.31-20.19-33.29M122.08,0l4,7.85c5.39,10.6,11.47,20.62,20.32,33.52l14.59,20.46,5.4,7.57-1.81-9.12-6.34-31.96-.15-.74-.6-.46-28.41-21.76-7-5.36h0Z"/>
  </g>
  <g>
    <polygon class="cls-1" points="303.68 439.38 313.4 467.58 281.56 488.34 303.68 439.38"/>
    <path d="M303.56,442.08l8.65,25.08-28.33,18.46,19.68-43.55M303.81,436.67l-2.07,4.59-19.68,43.55-2.82,6.24,5.73-3.74,28.33-18.46,1.31-.85-.51-1.48-8.65-25.08-1.64-4.76h0Z"/>
  </g>
  <g>
    <path class="cls-1" d="M312.01,22.49l19.97-16.91-1.17,3.43c-4.79,14-9.99,26.53-16.81,42.21l-1.91,4.38-.07-33.1Z"/>
    <path d="M329.85,8.69c-5.04,14.74-10.67,28.09-16.78,42.13l-.06-27.86,16.84-14.27M334.09,2.47l-5.53,4.69-16.84,14.27-.71.6v.93s.06,27.86.06,27.86l.02,9.55,3.81-8.75c6.84-15.7,12.04-28.25,16.84-42.28l2.35-6.86h0Z"/>
  </g>
  <g>
    <path class="cls-1" d="M368.77,209.67c-3.33-7.59-6.64-12.71-11.43-17.67-4.93-5.11-8.86-8.45-13.56-11.5l-2.58-1.68,13.83-.71.31.3c5.35,5.11,10.25,10.4,15.88,17.15l.25.3-1.02,17.61-1.67-3.81Z"/>
    <path d="M354.65,179.13c5.77,5.5,10.71,10.96,15.8,17.07l-.76,13.07c-3.16-7.2-6.51-12.66-11.63-17.96-4.3-4.46-8.38-8.16-13.74-11.65l10.32-.53M355.4,177.09l-.86.04-10.32.53-6.15.32,5.16,3.36c4.63,3.01,8.51,6.3,13.39,11.36,4.7,4.87,7.95,9.9,11.23,17.37l3.35,7.61.48-8.3.76-13.07.05-.79-.51-.61c-5.65-6.79-10.57-12.1-15.96-17.24l-.62-.59h0Z"/>
  </g>
  <g>
    <path class="cls-1" d="M304.36,261.73c-7.56-4.6-12-9.07-12.29-18.31l-.08-2.35,8.82,7.99,16.5,12.73-12.71.09-.24-.15Z"/>
    <path d="M293.07,243.39l7.07,6.41,14.27,11.01-9.53.07c-7.28-4.43-11.53-8.58-11.81-17.48M290.92,238.75l.15,4.71c.31,9.69,4.92,14.35,12.77,19.13l.49.3h.57s9.53-.07,9.53-.07l5.8-.04-4.59-3.54-14.2-10.96-7.01-6.36-3.49-3.16h0Z"/>
  </g>
  <g>
    <path class="cls-1" d="M333.87,160c-3.49-6.5-7.72-11.44-14.13-16.52-5.25-4.15-9.93-7.38-15.74-9.66l-3.7-1.45,15.93-1.89.32.23c7.2,5.21,13.05,10.04,18.4,15.18l.29.28.68,17.65-2.05-3.82Z"/>
    <path d="M315.96,131.51c6.58,4.76,12.5,9.52,18.29,15.09l.5,12.92c-3.8-7.08-8.36-12.06-14.39-16.83-5.04-3.99-9.87-7.4-16-9.81l11.6-1.38M316.5,129.44l-.78.09-11.6,1.38-7.89.94,7.39,2.91c5.7,2.24,10.31,5.43,15.49,9.52,6.3,4.98,10.45,9.83,13.87,16.2l4.09,7.63-.33-8.66-.5-12.92-.03-.81-.58-.56c-5.39-5.18-11.27-10.03-18.51-15.27l-.63-.46h0Z"/>
  </g>
  <g>
    <path class="cls-1" d="M387.47,243.29l-13.6-17.56,3.72.82c3.32.71,7.08,1.52,9.93,3.78,2.99,2.37,5.77,6.62,7.1,10.82.89,2.81.87,5.5.84,8.09,0,.82-.01,1.65,0,2.48l.09,3.4-8.09-11.81Z"/>
    <path d="M376.35,227.3c3.45.76,7.59,1.46,10.55,3.81,2.95,2.34,5.57,6.54,6.76,10.33,1.11,3.54.71,6.88.81,10.29l-6.17-9.01-11.95-15.42M371.38,224.16l3.38,4.37,11.91,15.38,6.14,8.96,3.84,5.6-.19-6.79c-.02-.8-.02-1.6,0-2.44.02-2.67.04-5.43-.89-8.4-1.38-4.37-4.29-8.81-7.43-11.3-3.03-2.41-6.92-3.24-10.35-3.98-.34-.07-.68-.15-1.01-.22l-5.39-1.19h0Z"/>
  </g>
  <g>
    <path class="cls-1" d="M344.28,291.59c-6.14,0-10.77-2.98-14.57-9.38-1.64-2.75-1.7-6.18-1.55-9.17l.12-2.3,1.6,1.65c6.56,6.78,12.01,11.99,18.88,17.02l1.89,1.38-2.3.41c-1.43.26-2.8.39-4.07.39Z"/>
    <path d="M329.16,273.09c6.09,6.3,11.74,11.81,19.01,17.13-1.38.25-2.67.37-3.89.37-5.96,0-10.18-2.95-13.71-8.89-1.44-2.43-1.56-5.58-1.41-8.61M327.4,268.39l-.24,4.59c-.15,2.95-.1,6.73,1.69,9.73,4,6.74,8.91,9.87,15.43,9.87,1.33,0,2.76-.14,4.25-.4l4.6-.83-3.77-2.76c-6.82-4.99-12.23-10.16-18.76-16.9l-3.2-3.31h0Z"/>
  </g>
  <g>
    <path class="cls-1" d="M285.41,116.34c-7.91-5.05-15.38-9.81-24.02-13.99l-3.09-1.5,3.41-.4c.8-.09,1.63-.23,2.48-.36,1.74-.28,3.54-.56,5.29-.56,1.27,0,2.36.15,3.34.46,4.14,1.3,8.53,4.09,12.04,7.64,2.17,2.19,3.21,5.15,4.21,8.01.14.4.28.79.42,1.18l1,2.76-5.1-3.25Z"/>
    <path d="M269.49,100.53c1.06,0,2.09.11,3.04.41,4.18,1.31,8.43,4.15,11.63,7.39,2.29,2.32,3.26,5.68,4.41,8.84-8.96-5.7-17.1-11.05-26.74-15.72,2.42-.28,5.14-.92,7.66-.92M269.49,98.53h0c-1.83,0-3.67.29-5.45.57-.86.14-1.67.27-2.44.35l-6.83.79,6.19,2.99c8.59,4.16,16.03,8.91,23.92,13.94l2.62,1.67,4.95,3.15-1.99-5.52c-.14-.39-.28-.78-.42-1.17-1.04-2.97-2.12-6.03-4.45-8.39-3.62-3.67-8.16-6.55-12.46-7.89-1.08-.34-2.27-.5-3.64-.5h0Z"/>
  </g>
</svg>